<svg xmlns="http://www.w3.org/2000/svg" xmlns:xlink="http://www.w3.org/1999/xlink" width="60" zoomAndPan="magnify" viewBox="0 0 45 30.000001" height="40" preserveAspectRatio="xMidYMid meet" version="1.0"><defs><g/><clipPath id="8f871652d5"><path d="M 0.726562 0 L 44.273438 0 L 44.273438 29.03125 L 0.726562 29.03125 Z M 0.726562 0 " clip-rule="nonzero"/></clipPath><clipPath id="d73f9deb07"><path d="M 0.726562 0 L 44.273438 0 L 44.273438 29 L 0.726562 29 Z M 0.726562 0 " clip-rule="nonzero"/></clipPath><clipPath id="e0b10cf68d"><path d="M 0.726562 20 L 6 20 L 6 26 L 0.726562 26 Z M 0.726562 20 " clip-rule="nonzero"/></clipPath><clipPath id="d618cfb5a2"><path d="M 40 20 L 44.273438 20 L 44.273438 26 L 40 26 Z M 40 20 " clip-rule="nonzero"/></clipPath><clipPath id="19a44f4b35"><rect x="0" width="45" y="0" height="29"/></clipPath></defs><g clip-path="url(#8f871652d5)"><path fill="#ffffff" d="M 0.726562 0 L 44.273438 0 L 44.273438 29.03125 L 0.726562 29.03125 Z M 0.726562 0 " fill-opacity="1" fill-rule="nonzero"/><path fill="#edecec" d="M 0.726562 0 L 44.273438 0 L 44.273438 29.03125 L 0.726562 29.03125 Z M 0.726562 0 " fill-opacity="1" fill-rule="nonzero"/></g><g clip-path="url(#d73f9deb07)"><g transform="matrix(1, 0, 0, 1, 0.000000000000000111, 0.000000000000005773)"><g clip-path="url(#19a44f4b35)"><g fill="#000000" fill-opacity="1"><g transform="translate(2.076753, 8.791744)"><g><path d="M 1.953125 -4.921875 L 1.734375 -3.171875 L 3.6875 -3.171875 L 3.578125 -2.34375 L 1.625 -2.34375 L 1.34375 0 L 0.3125 0 L 1.015625 -5.734375 L 4.359375 -5.734375 L 4.25 -4.921875 Z M 1.953125 -4.921875 "/></g></g></g><g fill="#000000" fill-opacity="1"><g transform="translate(6.189754, 8.791744)"><g><path d="M 3.375 -2.15625 L 3 -4.125 C 2.976562 -4.21875 2.957031 -4.320312 2.9375 -4.4375 C 2.914062 -4.550781 2.894531 -4.679688 2.875 -4.828125 C 2.820312 -4.679688 2.769531 -4.550781 2.71875 -4.4375 C 2.664062 -4.320312 2.617188 -4.21875 2.578125 -4.125 L 1.71875 -2.15625 Z M 4.875 0 L 4.078125 0 C 3.984375 0 3.910156 -0.0195312 3.859375 -0.0625 C 3.816406 -0.101562 3.785156 -0.160156 3.765625 -0.234375 L 3.53125 -1.4375 L 1.390625 -1.4375 L 0.859375 -0.234375 C 0.828125 -0.171875 0.78125 -0.113281 0.71875 -0.0625 C 0.65625 -0.0195312 0.578125 0 0.484375 0 L -0.3125 0 L 2.453125 -5.734375 L 3.515625 -5.734375 Z M 3.046875 -6.140625 C 2.859375 -6.140625 2.691406 -6.160156 2.546875 -6.203125 C 2.410156 -6.242188 2.289062 -6.304688 2.1875 -6.390625 C 2.09375 -6.484375 2.023438 -6.597656 1.984375 -6.734375 C 1.953125 -6.867188 1.945312 -7.03125 1.96875 -7.21875 L 2.65625 -7.21875 C 2.644531 -7.132812 2.644531 -7.0625 2.65625 -7 C 2.664062 -6.945312 2.6875 -6.898438 2.71875 -6.859375 C 2.757812 -6.816406 2.8125 -6.78125 2.875 -6.75 C 2.9375 -6.726562 3.015625 -6.71875 3.109375 -6.71875 C 3.304688 -6.71875 3.445312 -6.757812 3.53125 -6.84375 C 3.613281 -6.9375 3.660156 -7.0625 3.671875 -7.21875 L 4.375 -7.21875 C 4.351562 -7.050781 4.304688 -6.898438 4.234375 -6.765625 C 4.160156 -6.628906 4.066406 -6.515625 3.953125 -6.421875 C 3.835938 -6.328125 3.703125 -6.253906 3.546875 -6.203125 C 3.390625 -6.160156 3.222656 -6.140625 3.046875 -6.140625 Z M 3.046875 -6.140625 "/></g></g></g><g fill="#000000" fill-opacity="1"><g transform="translate(11.686976, 8.791744)"><g><path d="M 2.296875 -3 C 2.492188 -3 2.664062 -3.023438 2.8125 -3.078125 C 2.96875 -3.140625 3.09375 -3.222656 3.1875 -3.328125 C 3.289062 -3.429688 3.363281 -3.550781 3.40625 -3.6875 C 3.457031 -3.832031 3.484375 -3.988281 3.484375 -4.15625 C 3.484375 -4.40625 3.40625 -4.597656 3.25 -4.734375 C 3.09375 -4.867188 2.859375 -4.9375 2.546875 -4.9375 L 1.9375 -4.9375 L 1.703125 -3 Z M 2.640625 -5.734375 C 2.960938 -5.734375 3.242188 -5.695312 3.484375 -5.625 C 3.722656 -5.5625 3.914062 -5.46875 4.0625 -5.34375 C 4.21875 -5.21875 4.332031 -5.066406 4.40625 -4.890625 C 4.476562 -4.710938 4.515625 -4.519531 4.515625 -4.3125 C 4.515625 -4.09375 4.484375 -3.882812 4.421875 -3.6875 C 4.359375 -3.488281 4.265625 -3.3125 4.140625 -3.15625 C 4.023438 -3 3.882812 -2.859375 3.71875 -2.734375 C 3.550781 -2.617188 3.359375 -2.53125 3.140625 -2.46875 C 3.203125 -2.425781 3.253906 -2.378906 3.296875 -2.328125 C 3.347656 -2.273438 3.394531 -2.210938 3.4375 -2.140625 L 4.453125 0 L 3.53125 0 C 3.351562 0 3.238281 -0.0664062 3.1875 -0.203125 L 2.34375 -2.0625 C 2.3125 -2.132812 2.269531 -2.1875 2.21875 -2.21875 C 2.175781 -2.25 2.109375 -2.265625 2.015625 -2.265625 L 1.609375 -2.265625 L 1.328125 0 L 0.3125 0 L 1 -5.734375 Z M 2.640625 -5.734375 "/></g></g></g><g fill="#000000" fill-opacity="1"><g transform="translate(16.783607, 8.791744)"><g><path d="M 3.375 -2.15625 L 3 -4.125 C 2.976562 -4.21875 2.957031 -4.320312 2.9375 -4.4375 C 2.914062 -4.550781 2.894531 -4.679688 2.875 -4.828125 C 2.820312 -4.679688 2.769531 -4.550781 2.71875 -4.4375 C 2.664062 -4.320312 2.617188 -4.21875 2.578125 -4.125 L 1.71875 -2.15625 Z M 4.875 0 L 4.078125 0 C 3.984375 0 3.910156 -0.0195312 3.859375 -0.0625 C 3.816406 -0.101562 3.785156 -0.160156 3.765625 -0.234375 L 3.53125 -1.4375 L 1.390625 -1.4375 L 0.859375 -0.234375 C 0.828125 -0.171875 0.78125 -0.113281 0.71875 -0.0625 C 0.65625 -0.0195312 0.578125 0 0.484375 0 L -0.3125 0 L 2.453125 -5.734375 L 3.515625 -5.734375 Z M 3.046875 -6.140625 C 2.859375 -6.140625 2.691406 -6.160156 2.546875 -6.203125 C 2.410156 -6.242188 2.289062 -6.304688 2.1875 -6.390625 C 2.09375 -6.484375 2.023438 -6.597656 1.984375 -6.734375 C 1.953125 -6.867188 1.945312 -7.03125 1.96875 -7.21875 L 2.65625 -7.21875 C 2.644531 -7.132812 2.644531 -7.0625 2.65625 -7 C 2.664062 -6.945312 2.6875 -6.898438 2.71875 -6.859375 C 2.757812 -6.816406 2.8125 -6.78125 2.875 -6.75 C 2.9375 -6.726562 3.015625 -6.71875 3.109375 -6.71875 C 3.304688 -6.71875 3.445312 -6.757812 3.53125 -6.84375 C 3.613281 -6.9375 3.660156 -7.0625 3.671875 -7.21875 L 4.375 -7.21875 C 4.351562 -7.050781 4.304688 -6.898438 4.234375 -6.765625 C 4.160156 -6.628906 4.066406 -6.515625 3.953125 -6.421875 C 3.835938 -6.328125 3.703125 -6.253906 3.546875 -6.203125 C 3.390625 -6.160156 3.222656 -6.140625 3.046875 -6.140625 Z M 3.046875 -6.140625 "/></g></g></g><g fill="#000000" fill-opacity="1"><g transform="translate(22.030952, 8.791744)"><g/></g></g><g fill="#000000" fill-opacity="1"><g transform="translate(23.879218, 8.791744)"><g><path d="M 4.59375 -4.890625 L 3.03125 -4.890625 L 2.421875 0 L 1.40625 0 L 2 -4.890625 L 0.421875 -4.890625 L 0.53125 -5.734375 L 4.703125 -5.734375 Z M 4.59375 -4.890625 "/></g></g></g><g fill="#000000" fill-opacity="1"><g transform="translate(28.638723, 8.791744)"><g><path d="M 1.34375 0 L 0.3125 0 L 1 -5.734375 L 2.046875 -5.734375 Z M 1.34375 0 "/></g></g></g><g fill="#000000" fill-opacity="1"><g transform="translate(31.216779, 8.791744)"><g><path d="M 6.78125 -5.734375 L 6.078125 0 L 5.171875 0 L 5.625 -3.734375 C 5.632812 -3.804688 5.644531 -3.878906 5.65625 -3.953125 C 5.675781 -4.035156 5.695312 -4.117188 5.71875 -4.203125 L 3.75 -0.9375 C 3.695312 -0.863281 3.640625 -0.804688 3.578125 -0.765625 C 3.515625 -0.734375 3.441406 -0.71875 3.359375 -0.71875 L 3.21875 -0.71875 C 3.132812 -0.71875 3.0625 -0.734375 3 -0.765625 C 2.945312 -0.804688 2.90625 -0.863281 2.875 -0.9375 L 1.6875 -4.203125 C 1.6875 -4.117188 1.679688 -4.039062 1.671875 -3.96875 C 1.671875 -3.894531 1.671875 -3.820312 1.671875 -3.75 L 1.21875 0 L 0.3125 0 L 1.015625 -5.734375 L 1.78125 -5.734375 C 1.832031 -5.734375 1.867188 -5.734375 1.890625 -5.734375 C 1.921875 -5.734375 1.945312 -5.722656 1.96875 -5.703125 C 2 -5.691406 2.023438 -5.675781 2.046875 -5.65625 C 2.066406 -5.632812 2.085938 -5.609375 2.109375 -5.578125 L 3.296875 -2.296875 C 3.347656 -2.148438 3.390625 -2.003906 3.421875 -1.859375 C 3.453125 -1.929688 3.484375 -2.003906 3.515625 -2.078125 C 3.554688 -2.148438 3.597656 -2.222656 3.640625 -2.296875 L 5.640625 -5.578125 C 5.671875 -5.609375 5.695312 -5.632812 5.71875 -5.65625 C 5.75 -5.675781 5.773438 -5.691406 5.796875 -5.703125 C 5.828125 -5.722656 5.859375 -5.734375 5.890625 -5.734375 C 5.921875 -5.734375 5.957031 -5.734375 6 -5.734375 Z M 6.78125 -5.734375 "/></g></g></g><g fill="#000000" fill-opacity="1"><g transform="translate(38.530555, 8.791744)"><g><path d="M 2.390625 -2.828125 C 2.597656 -2.828125 2.773438 -2.859375 2.921875 -2.921875 C 3.066406 -2.984375 3.1875 -3.066406 3.28125 -3.171875 C 3.382812 -3.285156 3.457031 -3.414062 3.5 -3.5625 C 3.550781 -3.71875 3.578125 -3.890625 3.578125 -4.078125 C 3.578125 -4.203125 3.554688 -4.316406 3.515625 -4.421875 C 3.484375 -4.535156 3.425781 -4.628906 3.34375 -4.703125 C 3.269531 -4.773438 3.175781 -4.832031 3.0625 -4.875 C 2.945312 -4.914062 2.8125 -4.9375 2.65625 -4.9375 L 1.9375 -4.9375 L 1.671875 -2.828125 Z M 2.75 -5.734375 C 3.070312 -5.734375 3.347656 -5.691406 3.578125 -5.609375 C 3.816406 -5.535156 4.007812 -5.425781 4.15625 -5.28125 C 4.3125 -5.144531 4.425781 -4.984375 4.5 -4.796875 C 4.570312 -4.609375 4.609375 -4.394531 4.609375 -4.15625 C 4.609375 -3.851562 4.5625 -3.570312 4.46875 -3.3125 C 4.375 -3.050781 4.226562 -2.828125 4.03125 -2.640625 C 3.84375 -2.453125 3.601562 -2.300781 3.3125 -2.1875 C 3.019531 -2.082031 2.679688 -2.03125 2.296875 -2.03125 L 1.578125 -2.03125 L 1.328125 0 L 0.3125 0 L 1 -5.734375 Z M 2.75 -5.734375 "/></g></g></g><g fill="#000000" fill-opacity="1"><g transform="translate(17.507868, 17.385243)"><g><path d="M 5.40625 -3.25 C 5.40625 -2.78125 5.328125 -2.34375 5.171875 -1.9375 C 5.015625 -1.539062 4.800781 -1.195312 4.53125 -0.90625 C 4.257812 -0.625 3.9375 -0.398438 3.5625 -0.234375 C 3.1875 -0.078125 2.773438 0 2.328125 0 L 0.3125 0 L 1.015625 -5.734375 L 3.03125 -5.734375 C 3.394531 -5.734375 3.722656 -5.671875 4.015625 -5.546875 C 4.304688 -5.421875 4.554688 -5.25 4.765625 -5.03125 C 4.972656 -4.8125 5.128906 -4.550781 5.234375 -4.25 C 5.347656 -3.945312 5.40625 -3.613281 5.40625 -3.25 Z M 4.34375 -3.234375 C 4.34375 -3.484375 4.3125 -3.710938 4.25 -3.921875 C 4.1875 -4.140625 4.09375 -4.320312 3.96875 -4.46875 C 3.851562 -4.613281 3.707031 -4.722656 3.53125 -4.796875 C 3.351562 -4.878906 3.15625 -4.921875 2.9375 -4.921875 L 1.953125 -4.921875 L 1.4375 -0.828125 L 2.421875 -0.828125 C 2.710938 -0.828125 2.972656 -0.878906 3.203125 -0.984375 C 3.441406 -1.097656 3.644531 -1.257812 3.8125 -1.46875 C 3.988281 -1.675781 4.117188 -1.925781 4.203125 -2.21875 C 4.296875 -2.519531 4.34375 -2.859375 4.34375 -3.234375 Z M 4.34375 -3.234375 "/></g></g></g><g fill="#000000" fill-opacity="1"><g transform="translate(23.465182, 17.385243)"><g><path d="M 1.953125 -4.921875 L 1.75 -3.28125 L 3.5625 -3.28125 L 3.453125 -2.5 L 1.640625 -2.5 L 1.4375 -0.828125 L 3.765625 -0.828125 L 3.65625 0 L 0.3125 0 L 1.015625 -5.734375 L 4.359375 -5.734375 L 4.25 -4.921875 Z M 1.953125 -4.921875 "/></g></g></g><g clip-path="url(#e0b10cf68d)"><g fill="#000000" fill-opacity="1"><g transform="translate(0.961251, 25.978742)"><g><path d="M 3.375 -2.15625 L 3 -4.125 C 2.976562 -4.21875 2.957031 -4.320312 2.9375 -4.4375 C 2.914062 -4.550781 2.894531 -4.679688 2.875 -4.828125 C 2.820312 -4.679688 2.769531 -4.550781 2.71875 -4.4375 C 2.664062 -4.320312 2.617188 -4.21875 2.578125 -4.125 L 1.71875 -2.15625 Z M 4.875 0 L 4.078125 0 C 3.984375 0 3.910156 -0.0195312 3.859375 -0.0625 C 3.816406 -0.101562 3.785156 -0.160156 3.765625 -0.234375 L 3.53125 -1.4375 L 1.390625 -1.4375 L 0.859375 -0.234375 C 0.828125 -0.171875 0.78125 -0.113281 0.71875 -0.0625 C 0.65625 -0.0195312 0.578125 0 0.484375 0 L -0.3125 0 L 2.453125 -5.734375 L 3.515625 -5.734375 Z M 4.875 0 "/></g></g></g></g><g fill="#000000" fill-opacity="1"><g transform="translate(6.398982, 25.978742)"><g><path d="M 3.734375 -4.703125 C 3.691406 -4.648438 3.65625 -4.609375 3.625 -4.578125 C 3.59375 -4.554688 3.550781 -4.546875 3.5 -4.546875 C 3.4375 -4.546875 3.378906 -4.566406 3.328125 -4.609375 C 3.273438 -4.648438 3.207031 -4.695312 3.125 -4.75 C 3.050781 -4.800781 2.960938 -4.847656 2.859375 -4.890625 C 2.753906 -4.929688 2.625 -4.953125 2.46875 -4.953125 C 2.332031 -4.953125 2.207031 -4.929688 2.09375 -4.890625 C 1.976562 -4.847656 1.882812 -4.789062 1.8125 -4.71875 C 1.738281 -4.644531 1.679688 -4.554688 1.640625 -4.453125 C 1.609375 -4.359375 1.59375 -4.253906 1.59375 -4.140625 C 1.59375 -4.015625 1.625 -3.910156 1.6875 -3.828125 C 1.75 -3.742188 1.828125 -3.671875 1.921875 -3.609375 C 2.023438 -3.554688 2.140625 -3.503906 2.265625 -3.453125 C 2.398438 -3.410156 2.53125 -3.363281 2.65625 -3.3125 C 2.789062 -3.257812 2.921875 -3.195312 3.046875 -3.125 C 3.179688 -3.050781 3.300781 -2.960938 3.40625 -2.859375 C 3.507812 -2.765625 3.59375 -2.644531 3.65625 -2.5 C 3.71875 -2.363281 3.75 -2.195312 3.75 -2 C 3.75 -1.71875 3.695312 -1.453125 3.59375 -1.203125 C 3.5 -0.953125 3.359375 -0.734375 3.171875 -0.546875 C 2.992188 -0.359375 2.773438 -0.207031 2.515625 -0.09375 C 2.253906 0.0078125 1.96875 0.0625 1.65625 0.0625 C 1.488281 0.0625 1.320312 0.0390625 1.15625 0 C 1 -0.03125 0.847656 -0.078125 0.703125 -0.140625 C 0.554688 -0.203125 0.421875 -0.28125 0.296875 -0.375 C 0.179688 -0.46875 0.078125 -0.570312 -0.015625 -0.6875 L 0.359375 -1.1875 C 0.378906 -1.21875 0.410156 -1.242188 0.453125 -1.265625 C 0.503906 -1.296875 0.550781 -1.3125 0.59375 -1.3125 C 0.632812 -1.3125 0.675781 -1.296875 0.71875 -1.265625 C 0.757812 -1.242188 0.804688 -1.210938 0.859375 -1.171875 C 0.910156 -1.128906 0.960938 -1.082031 1.015625 -1.03125 C 1.078125 -0.988281 1.144531 -0.945312 1.21875 -0.90625 C 1.289062 -0.875 1.375 -0.84375 1.46875 -0.8125 C 1.5625 -0.789062 1.664062 -0.78125 1.78125 -0.78125 C 2.082031 -0.78125 2.316406 -0.863281 2.484375 -1.03125 C 2.660156 -1.207031 2.75 -1.441406 2.75 -1.734375 C 2.75 -1.867188 2.71875 -1.976562 2.65625 -2.0625 C 2.59375 -2.144531 2.507812 -2.210938 2.40625 -2.265625 C 2.3125 -2.328125 2.195312 -2.378906 2.0625 -2.421875 C 1.9375 -2.472656 1.804688 -2.519531 1.671875 -2.5625 C 1.535156 -2.613281 1.40625 -2.671875 1.28125 -2.734375 C 1.15625 -2.804688 1.039062 -2.890625 0.9375 -2.984375 C 0.84375 -3.085938 0.765625 -3.210938 0.703125 -3.359375 C 0.640625 -3.515625 0.609375 -3.695312 0.609375 -3.90625 C 0.609375 -4.15625 0.648438 -4.394531 0.734375 -4.625 C 0.828125 -4.851562 0.957031 -5.050781 1.125 -5.21875 C 1.300781 -5.394531 1.507812 -5.535156 1.75 -5.640625 C 2 -5.742188 2.273438 -5.796875 2.578125 -5.796875 C 2.734375 -5.796875 2.882812 -5.78125 3.03125 -5.75 C 3.175781 -5.71875 3.304688 -5.671875 3.421875 -5.609375 C 3.546875 -5.554688 3.660156 -5.488281 3.765625 -5.40625 C 3.867188 -5.320312 3.960938 -5.234375 4.046875 -5.140625 Z M 1.984375 0.359375 C 2.046875 0.359375 2.082031 0.367188 2.09375 0.390625 C 2.113281 0.421875 2.125 0.445312 2.125 0.46875 C 2.125 0.5 2.117188 0.535156 2.109375 0.578125 C 2.097656 0.628906 2.078125 0.6875 2.046875 0.75 C 2.023438 0.820312 1.988281 0.90625 1.9375 1 C 1.894531 1.101562 1.835938 1.222656 1.765625 1.359375 C 1.722656 1.429688 1.671875 1.476562 1.609375 1.5 C 1.554688 1.53125 1.488281 1.546875 1.40625 1.546875 L 1.0625 1.546875 L 1.390625 0.359375 Z M 1.984375 0.359375 "/></g></g></g><g fill="#000000" fill-opacity="1"><g transform="translate(10.829288, 25.978742)"><g><path d="M 4.59375 -4.890625 L 3.03125 -4.890625 L 2.421875 0 L 1.40625 0 L 2 -4.890625 L 0.421875 -4.890625 L 0.53125 -5.734375 L 4.703125 -5.734375 Z M 4.59375 -4.890625 "/></g></g></g><g fill="#000000" fill-opacity="1"><g transform="translate(15.588793, 25.978742)"><g><path d="M 1.953125 -4.921875 L 1.75 -3.28125 L 3.5625 -3.28125 L 3.453125 -2.5 L 1.640625 -2.5 L 1.4375 -0.828125 L 3.765625 -0.828125 L 3.65625 0 L 0.3125 0 L 1.015625 -5.734375 L 4.359375 -5.734375 L 4.25 -4.921875 Z M 1.953125 -4.921875 "/></g></g></g><g fill="#000000" fill-opacity="1"><g transform="translate(20.185681, 25.978742)"><g><path d="M 2.390625 -2.828125 C 2.597656 -2.828125 2.773438 -2.859375 2.921875 -2.921875 C 3.066406 -2.984375 3.1875 -3.066406 3.28125 -3.171875 C 3.382812 -3.285156 3.457031 -3.414062 3.5 -3.5625 C 3.550781 -3.71875 3.578125 -3.890625 3.578125 -4.078125 C 3.578125 -4.203125 3.554688 -4.316406 3.515625 -4.421875 C 3.484375 -4.535156 3.425781 -4.628906 3.34375 -4.703125 C 3.269531 -4.773438 3.175781 -4.832031 3.0625 -4.875 C 2.945312 -4.914062 2.8125 -4.9375 2.65625 -4.9375 L 1.9375 -4.9375 L 1.671875 -2.828125 Z M 2.75 -5.734375 C 3.070312 -5.734375 3.347656 -5.691406 3.578125 -5.609375 C 3.816406 -5.535156 4.007812 -5.425781 4.15625 -5.28125 C 4.3125 -5.144531 4.425781 -4.984375 4.5 -4.796875 C 4.570312 -4.609375 4.609375 -4.394531 4.609375 -4.15625 C 4.609375 -3.851562 4.5625 -3.570312 4.46875 -3.3125 C 4.375 -3.050781 4.226562 -2.828125 4.03125 -2.640625 C 3.84375 -2.453125 3.601562 -2.300781 3.3125 -2.1875 C 3.019531 -2.082031 2.679688 -2.03125 2.296875 -2.03125 L 1.578125 -2.03125 L 1.328125 0 L 0.3125 0 L 1 -5.734375 Z M 2.75 -5.734375 "/></g></g></g><g fill="#000000" fill-opacity="1"><g transform="translate(25.135561, 25.978742)"><g><path d="M 4.59375 -4.890625 L 3.03125 -4.890625 L 2.421875 0 L 1.40625 0 L 2 -4.890625 L 0.421875 -4.890625 L 0.53125 -5.734375 L 4.703125 -5.734375 Z M 4.59375 -4.890625 "/></g></g></g><g fill="#000000" fill-opacity="1"><g transform="translate(29.399286, 25.978742)"><g><path d="M 3.375 -2.15625 L 3 -4.125 C 2.976562 -4.21875 2.957031 -4.320312 2.9375 -4.4375 C 2.914062 -4.550781 2.894531 -4.679688 2.875 -4.828125 C 2.820312 -4.679688 2.769531 -4.550781 2.71875 -4.4375 C 2.664062 -4.320312 2.617188 -4.21875 2.578125 -4.125 L 1.71875 -2.15625 Z M 4.875 0 L 4.078125 0 C 3.984375 0 3.910156 -0.0195312 3.859375 -0.0625 C 3.816406 -0.101562 3.785156 -0.160156 3.765625 -0.234375 L 3.53125 -1.4375 L 1.390625 -1.4375 L 0.859375 -0.234375 C 0.828125 -0.171875 0.78125 -0.113281 0.71875 -0.0625 C 0.65625 -0.0195312 0.578125 0 0.484375 0 L -0.3125 0 L 2.453125 -5.734375 L 3.515625 -5.734375 Z M 4.875 0 "/></g></g></g><g fill="#000000" fill-opacity="1"><g transform="translate(34.896508, 25.978742)"><g><path d="M 2.296875 -3 C 2.492188 -3 2.664062 -3.023438 2.8125 -3.078125 C 2.96875 -3.140625 3.09375 -3.222656 3.1875 -3.328125 C 3.289062 -3.429688 3.363281 -3.550781 3.40625 -3.6875 C 3.457031 -3.832031 3.484375 -3.988281 3.484375 -4.15625 C 3.484375 -4.40625 3.40625 -4.597656 3.25 -4.734375 C 3.09375 -4.867188 2.859375 -4.9375 2.546875 -4.9375 L 1.9375 -4.9375 L 1.703125 -3 Z M 2.640625 -5.734375 C 2.960938 -5.734375 3.242188 -5.695312 3.484375 -5.625 C 3.722656 -5.5625 3.914062 -5.46875 4.0625 -5.34375 C 4.21875 -5.21875 4.332031 -5.066406 4.40625 -4.890625 C 4.476562 -4.710938 4.515625 -4.519531 4.515625 -4.3125 C 4.515625 -4.09375 4.484375 -3.882812 4.421875 -3.6875 C 4.359375 -3.488281 4.265625 -3.3125 4.140625 -3.15625 C 4.023438 -3 3.882812 -2.859375 3.71875 -2.734375 C 3.550781 -2.617188 3.359375 -2.53125 3.140625 -2.46875 C 3.203125 -2.425781 3.253906 -2.378906 3.296875 -2.328125 C 3.347656 -2.273438 3.394531 -2.210938 3.4375 -2.140625 L 4.453125 0 L 3.53125 0 C 3.351562 0 3.238281 -0.0664062 3.1875 -0.203125 L 2.34375 -2.0625 C 2.3125 -2.132812 2.269531 -2.1875 2.21875 -2.21875 C 2.175781 -2.25 2.109375 -2.265625 2.015625 -2.265625 L 1.609375 -2.265625 L 1.328125 0 L 0.3125 0 L 1 -5.734375 Z M 2.640625 -5.734375 "/></g></g></g><g clip-path="url(#d618cfb5a2)"><g fill="#000000" fill-opacity="1"><g transform="translate(39.993139, 25.978742)"><g><path d="M 1.953125 -4.921875 L 1.75 -3.28125 L 3.5625 -3.28125 L 3.453125 -2.5 L 1.640625 -2.5 L 1.4375 -0.828125 L 3.765625 -0.828125 L 3.65625 0 L 0.3125 0 L 1.015625 -5.734375 L 4.359375 -5.734375 L 4.25 -4.921875 Z M 1.953125 -4.921875 "/></g></g></g></g></g></g></g></svg>