<svg xmlns="http://www.w3.org/2000/svg" xmlns:xlink="http://www.w3.org/1999/xlink" width="167" zoomAndPan="magnify" viewBox="0 0 125.25 30.000001" height="40" preserveAspectRatio="xMidYMid meet" version="1.0"><defs><g/><clipPath id="d3339294e5"><path d="M 1.65625 0 L 122.867188 0 L 122.867188 29.03125 L 1.65625 29.03125 Z M 1.65625 0 " clip-rule="nonzero"/></clipPath><clipPath id="a2ed4052dc"><path d="M 0.515625 2 L 7 2 L 7 9 L 0.515625 9 Z M 0.515625 2 " clip-rule="nonzero"/></clipPath><clipPath id="2976b3762c"><rect x="0" width="119" y="0" height="11"/></clipPath></defs><g clip-path="url(#d3339294e5)"><path fill="#ffffff" d="M 1.65625 0 L 122.867188 0 L 122.867188 29.03125 L 1.65625 29.03125 Z M 1.65625 0 " fill-opacity="1" fill-rule="nonzero"/><path fill="#edecec" d="M 1.65625 0 L 122.867188 0 L 122.867188 29.03125 L 1.65625 29.03125 Z M 1.65625 0 " fill-opacity="1" fill-rule="nonzero"/></g><g transform="matrix(1, 0, 0, 1, 3, 9)"><g clip-path="url(#2976b3762c)"><g clip-path="url(#a2ed4052dc)"><g fill="#000000" fill-opacity="1"><g transform="translate(0.615466, 8.670823)"><g><path d="M 2.875 -0.859375 C 3.050781 -0.859375 3.203125 -0.867188 3.328125 -0.890625 C 3.453125 -0.921875 3.5625 -0.957031 3.65625 -1 C 3.75 -1.039062 3.828125 -1.082031 3.890625 -1.125 C 3.960938 -1.175781 4.023438 -1.222656 4.078125 -1.265625 C 4.128906 -1.304688 4.171875 -1.335938 4.203125 -1.359375 C 4.242188 -1.390625 4.285156 -1.40625 4.328125 -1.40625 C 4.359375 -1.40625 4.382812 -1.394531 4.40625 -1.375 C 4.4375 -1.363281 4.457031 -1.351562 4.46875 -1.34375 L 4.84375 -0.875 C 4.582031 -0.570312 4.273438 -0.335938 3.921875 -0.171875 C 3.566406 -0.015625 3.15625 0.0625 2.6875 0.0625 C 2.3125 0.0625 1.976562 0 1.6875 -0.125 C 1.394531 -0.257812 1.148438 -0.441406 0.953125 -0.671875 C 0.753906 -0.910156 0.601562 -1.191406 0.5 -1.515625 C 0.394531 -1.835938 0.34375 -2.191406 0.34375 -2.578125 C 0.34375 -2.929688 0.378906 -3.265625 0.453125 -3.578125 C 0.523438 -3.890625 0.628906 -4.175781 0.765625 -4.4375 C 0.910156 -4.695312 1.082031 -4.929688 1.28125 -5.140625 C 1.476562 -5.359375 1.695312 -5.539062 1.9375 -5.6875 C 2.175781 -5.832031 2.429688 -5.941406 2.703125 -6.015625 C 2.984375 -6.097656 3.269531 -6.140625 3.5625 -6.140625 C 3.789062 -6.140625 3.992188 -6.117188 4.171875 -6.078125 C 4.359375 -6.035156 4.523438 -5.976562 4.671875 -5.90625 C 4.816406 -5.832031 4.945312 -5.742188 5.0625 -5.640625 C 5.1875 -5.546875 5.296875 -5.4375 5.390625 -5.3125 L 5.015625 -4.859375 C 4.984375 -4.816406 4.945312 -4.785156 4.90625 -4.765625 C 4.875 -4.742188 4.828125 -4.734375 4.765625 -4.734375 C 4.703125 -4.734375 4.644531 -4.753906 4.59375 -4.796875 C 4.539062 -4.847656 4.46875 -4.90625 4.375 -4.96875 C 4.289062 -5.03125 4.179688 -5.085938 4.046875 -5.140625 C 3.910156 -5.191406 3.734375 -5.21875 3.515625 -5.21875 C 3.222656 -5.21875 2.953125 -5.15625 2.703125 -5.03125 C 2.453125 -4.914062 2.234375 -4.742188 2.046875 -4.515625 C 1.859375 -4.296875 1.710938 -4.03125 1.609375 -3.71875 C 1.503906 -3.40625 1.453125 -3.054688 1.453125 -2.671875 C 1.453125 -2.390625 1.488281 -2.132812 1.5625 -1.90625 C 1.632812 -1.6875 1.734375 -1.5 1.859375 -1.34375 C 1.984375 -1.1875 2.132812 -1.066406 2.3125 -0.984375 C 2.488281 -0.898438 2.675781 -0.859375 2.875 -0.859375 Z M 2.875 -0.859375 "/></g></g></g></g><g fill="#000000" fill-opacity="1"><g transform="translate(6.197192, 8.670823)"><g><path d="M 2.421875 -3.171875 C 2.640625 -3.171875 2.828125 -3.203125 2.984375 -3.265625 C 3.148438 -3.328125 3.28125 -3.410156 3.375 -3.515625 C 3.476562 -3.628906 3.554688 -3.757812 3.609375 -3.90625 C 3.660156 -4.0625 3.6875 -4.222656 3.6875 -4.390625 C 3.6875 -4.660156 3.601562 -4.867188 3.4375 -5.015625 C 3.28125 -5.160156 3.03125 -5.234375 2.6875 -5.234375 L 2.046875 -5.234375 L 1.796875 -3.171875 Z M 2.796875 -6.078125 C 3.140625 -6.078125 3.4375 -6.039062 3.6875 -5.96875 C 3.9375 -5.894531 4.140625 -5.789062 4.296875 -5.65625 C 4.460938 -5.519531 4.582031 -5.359375 4.65625 -5.171875 C 4.738281 -4.992188 4.78125 -4.789062 4.78125 -4.5625 C 4.78125 -4.332031 4.742188 -4.113281 4.671875 -3.90625 C 4.609375 -3.695312 4.515625 -3.507812 4.390625 -3.34375 C 4.265625 -3.175781 4.113281 -3.03125 3.9375 -2.90625 C 3.757812 -2.78125 3.554688 -2.679688 3.328125 -2.609375 C 3.390625 -2.566406 3.445312 -2.519531 3.5 -2.46875 C 3.550781 -2.414062 3.597656 -2.347656 3.640625 -2.265625 L 4.71875 0 L 3.75 0 C 3.5625 0 3.4375 -0.0703125 3.375 -0.21875 L 2.484375 -2.1875 C 2.441406 -2.257812 2.394531 -2.3125 2.34375 -2.34375 C 2.300781 -2.375 2.226562 -2.390625 2.125 -2.390625 L 1.703125 -2.390625 L 1.40625 0 L 0.328125 0 L 1.0625 -6.078125 Z M 2.796875 -6.078125 "/></g></g></g><g fill="#000000" fill-opacity="1"><g transform="translate(11.602257, 8.670823)"><g><path d="M 2.0625 -5.203125 L 1.84375 -3.484375 L 3.765625 -3.484375 L 3.671875 -2.640625 L 1.75 -2.640625 L 1.53125 -0.875 L 3.984375 -0.875 L 3.875 0 L 0.328125 0 L 1.078125 -6.078125 L 4.609375 -6.078125 L 4.5 -5.203125 Z M 2.0625 -5.203125 "/></g></g></g><g fill="#000000" fill-opacity="1"><g transform="translate(16.477336, 8.670823)"><g><path d="M 3.578125 -2.28125 L 3.171875 -4.359375 C 3.148438 -4.460938 3.128906 -4.578125 3.109375 -4.703125 C 3.085938 -4.828125 3.066406 -4.960938 3.046875 -5.109375 C 2.984375 -4.960938 2.925781 -4.828125 2.875 -4.703125 C 2.820312 -4.578125 2.773438 -4.460938 2.734375 -4.359375 L 1.8125 -2.28125 Z M 5.171875 0 L 4.328125 0 C 4.222656 0 4.144531 -0.0195312 4.09375 -0.0625 C 4.039062 -0.113281 4.003906 -0.175781 3.984375 -0.25 L 3.734375 -1.515625 L 1.46875 -1.515625 L 0.90625 -0.25 C 0.875 -0.1875 0.820312 -0.128906 0.75 -0.078125 C 0.6875 -0.0234375 0.609375 0 0.515625 0 L -0.34375 0 L 2.609375 -6.078125 L 3.71875 -6.078125 Z M 5.171875 0 "/></g></g></g><g fill="#000000" fill-opacity="1"><g transform="translate(21.735188, 8.670823)"><g><path d="M 4.859375 -5.1875 L 3.203125 -5.1875 L 2.5625 0 L 1.484375 0 L 2.109375 -5.1875 L 0.453125 -5.1875 L 0.5625 -6.078125 L 4.984375 -6.078125 Z M 4.859375 -5.1875 "/></g></g></g><g fill="#000000" fill-opacity="1"><g transform="translate(26.568206, 8.670823)"><g/></g></g><g fill="#000000" fill-opacity="1"><g transform="translate(28.772293, 8.670823)"><g><path d="M 2.53125 -3 C 2.75 -3 2.9375 -3.03125 3.09375 -3.09375 C 3.25 -3.15625 3.378906 -3.242188 3.484375 -3.359375 C 3.585938 -3.484375 3.660156 -3.625 3.703125 -3.78125 C 3.753906 -3.9375 3.78125 -4.113281 3.78125 -4.3125 C 3.78125 -4.445312 3.757812 -4.570312 3.71875 -4.6875 C 3.6875 -4.800781 3.628906 -4.898438 3.546875 -4.984375 C 3.460938 -5.066406 3.359375 -5.128906 3.234375 -5.171875 C 3.117188 -5.210938 2.976562 -5.234375 2.8125 -5.234375 L 2.046875 -5.234375 L 1.78125 -3 Z M 2.90625 -6.078125 C 3.257812 -6.078125 3.554688 -6.035156 3.796875 -5.953125 C 4.046875 -5.867188 4.25 -5.753906 4.40625 -5.609375 C 4.570312 -5.460938 4.691406 -5.285156 4.765625 -5.078125 C 4.847656 -4.878906 4.890625 -4.65625 4.890625 -4.40625 C 4.890625 -4.082031 4.835938 -3.78125 4.734375 -3.5 C 4.628906 -3.226562 4.472656 -2.992188 4.265625 -2.796875 C 4.066406 -2.597656 3.8125 -2.441406 3.5 -2.328125 C 3.195312 -2.210938 2.835938 -2.15625 2.421875 -2.15625 L 1.671875 -2.15625 L 1.40625 0 L 0.328125 0 L 1.0625 -6.078125 Z M 2.90625 -6.078125 "/></g></g></g><g fill="#000000" fill-opacity="1"><g transform="translate(34.021726, 8.670823)"><g><path d="M 2.0625 -5.203125 L 1.84375 -3.484375 L 3.765625 -3.484375 L 3.671875 -2.640625 L 1.75 -2.640625 L 1.53125 -0.875 L 3.984375 -0.875 L 3.875 0 L 0.328125 0 L 1.078125 -6.078125 L 4.609375 -6.078125 L 4.5 -5.203125 Z M 2.0625 -5.203125 "/></g></g></g><g fill="#000000" fill-opacity="1"><g transform="translate(38.896805, 8.670823)"><g><path d="M 5.828125 -6.078125 L 5.078125 0 L 4.515625 0 C 4.429688 0 4.359375 -0.015625 4.296875 -0.046875 C 4.242188 -0.078125 4.195312 -0.125 4.15625 -0.1875 L 1.796875 -4.34375 C 1.796875 -4.269531 1.789062 -4.203125 1.78125 -4.140625 C 1.78125 -4.078125 1.773438 -4.019531 1.765625 -3.96875 L 1.28125 0 L 0.328125 0 L 1.078125 -6.078125 L 1.640625 -6.078125 C 1.691406 -6.078125 1.734375 -6.070312 1.765625 -6.0625 C 1.796875 -6.0625 1.820312 -6.054688 1.84375 -6.046875 C 1.875 -6.035156 1.898438 -6.015625 1.921875 -5.984375 C 1.941406 -5.960938 1.960938 -5.9375 1.984375 -5.90625 L 4.34375 -1.75 C 4.351562 -1.832031 4.359375 -1.910156 4.359375 -1.984375 C 4.367188 -2.066406 4.378906 -2.140625 4.390625 -2.203125 L 4.859375 -6.078125 Z M 5.828125 -6.078125 "/></g></g></g><g fill="#000000" fill-opacity="1"><g transform="translate(45.294557, 8.670823)"><g><path d="M 4.859375 -5.1875 L 3.203125 -5.1875 L 2.5625 0 L 1.484375 0 L 2.109375 -5.1875 L 0.453125 -5.1875 L 0.5625 -6.078125 L 4.984375 -6.078125 Z M 4.859375 -5.1875 "/></g></g></g><g fill="#000000" fill-opacity="1"><g transform="translate(50.342093, 8.670823)"><g><path d="M 2.421875 -3.171875 C 2.640625 -3.171875 2.828125 -3.203125 2.984375 -3.265625 C 3.148438 -3.328125 3.28125 -3.410156 3.375 -3.515625 C 3.476562 -3.628906 3.554688 -3.757812 3.609375 -3.90625 C 3.660156 -4.0625 3.6875 -4.222656 3.6875 -4.390625 C 3.6875 -4.660156 3.601562 -4.867188 3.4375 -5.015625 C 3.28125 -5.160156 3.03125 -5.234375 2.6875 -5.234375 L 2.046875 -5.234375 L 1.796875 -3.171875 Z M 2.796875 -6.078125 C 3.140625 -6.078125 3.4375 -6.039062 3.6875 -5.96875 C 3.9375 -5.894531 4.140625 -5.789062 4.296875 -5.65625 C 4.460938 -5.519531 4.582031 -5.359375 4.65625 -5.171875 C 4.738281 -4.992188 4.78125 -4.789062 4.78125 -4.5625 C 4.78125 -4.332031 4.742188 -4.113281 4.671875 -3.90625 C 4.609375 -3.695312 4.515625 -3.507812 4.390625 -3.34375 C 4.265625 -3.175781 4.113281 -3.03125 3.9375 -2.90625 C 3.757812 -2.78125 3.554688 -2.679688 3.328125 -2.609375 C 3.390625 -2.566406 3.445312 -2.519531 3.5 -2.46875 C 3.550781 -2.414062 3.597656 -2.347656 3.640625 -2.265625 L 4.71875 0 L 3.75 0 C 3.5625 0 3.4375 -0.0703125 3.375 -0.21875 L 2.484375 -2.1875 C 2.441406 -2.257812 2.394531 -2.3125 2.34375 -2.34375 C 2.300781 -2.375 2.226562 -2.390625 2.125 -2.390625 L 1.703125 -2.390625 L 1.40625 0 L 0.328125 0 L 1.0625 -6.078125 Z M 2.796875 -6.078125 "/></g></g></g><g fill="#000000" fill-opacity="1"><g transform="translate(55.692475, 8.670823)"><g><path d="M 2.703125 -0.875 C 2.898438 -0.875 3.078125 -0.910156 3.234375 -0.984375 C 3.398438 -1.054688 3.546875 -1.160156 3.671875 -1.296875 C 3.796875 -1.429688 3.894531 -1.59375 3.96875 -1.78125 C 4.050781 -1.976562 4.109375 -2.191406 4.140625 -2.421875 L 4.578125 -6.078125 L 5.671875 -6.078125 L 5.21875 -2.421875 C 5.175781 -2.066406 5.082031 -1.734375 4.9375 -1.421875 C 4.789062 -1.117188 4.601562 -0.859375 4.375 -0.640625 C 4.144531 -0.421875 3.878906 -0.25 3.578125 -0.125 C 3.273438 0 2.941406 0.0625 2.578125 0.0625 C 2.210938 0.0625 1.894531 0 1.625 -0.125 C 1.351562 -0.25 1.128906 -0.421875 0.953125 -0.640625 C 0.785156 -0.859375 0.664062 -1.117188 0.59375 -1.421875 C 0.519531 -1.734375 0.507812 -2.066406 0.5625 -2.421875 L 0.984375 -6.078125 L 2.078125 -6.078125 L 1.640625 -2.421875 C 1.609375 -2.191406 1.609375 -1.976562 1.640625 -1.78125 C 1.671875 -1.59375 1.734375 -1.429688 1.828125 -1.296875 C 1.921875 -1.160156 2.039062 -1.054688 2.1875 -0.984375 C 2.332031 -0.910156 2.503906 -0.875 2.703125 -0.875 Z M 2.703125 -0.875 "/></g></g></g><g fill="#000000" fill-opacity="1"><g transform="translate(61.871504, 8.670823)"><g/></g></g><g fill="#000000" fill-opacity="1"><g transform="translate(63.840042, 8.670823)"><g><path d="M 3.578125 -2.28125 L 3.171875 -4.359375 C 3.148438 -4.460938 3.128906 -4.578125 3.109375 -4.703125 C 3.085938 -4.828125 3.066406 -4.960938 3.046875 -5.109375 C 2.984375 -4.960938 2.925781 -4.828125 2.875 -4.703125 C 2.820312 -4.578125 2.773438 -4.460938 2.734375 -4.359375 L 1.8125 -2.28125 Z M 5.171875 0 L 4.328125 0 C 4.222656 0 4.144531 -0.0195312 4.09375 -0.0625 C 4.039062 -0.113281 4.003906 -0.175781 3.984375 -0.25 L 3.734375 -1.515625 L 1.46875 -1.515625 L 0.90625 -0.25 C 0.875 -0.1875 0.820312 -0.128906 0.75 -0.078125 C 0.6875 -0.0234375 0.609375 0 0.515625 0 L -0.34375 0 L 2.609375 -6.078125 L 3.71875 -6.078125 Z M 5.171875 0 "/></g></g></g><g fill="#000000" fill-opacity="1"><g transform="translate(69.66994, 8.670823)"><g><path d="M 2.0625 -5.203125 L 1.828125 -3.359375 L 3.90625 -3.359375 L 3.78125 -2.484375 L 1.734375 -2.484375 L 1.421875 0 L 0.328125 0 L 1.078125 -6.078125 L 4.609375 -6.078125 L 4.5 -5.203125 Z M 2.0625 -5.203125 "/></g></g></g><g fill="#000000" fill-opacity="1"><g transform="translate(74.031849, 8.670823)"><g><path d="M 3.578125 -2.28125 L 3.171875 -4.359375 C 3.148438 -4.460938 3.128906 -4.578125 3.109375 -4.703125 C 3.085938 -4.828125 3.066406 -4.960938 3.046875 -5.109375 C 2.984375 -4.960938 2.925781 -4.828125 2.875 -4.703125 C 2.820312 -4.578125 2.773438 -4.460938 2.734375 -4.359375 L 1.8125 -2.28125 Z M 5.171875 0 L 4.328125 0 C 4.222656 0 4.144531 -0.0195312 4.09375 -0.0625 C 4.039062 -0.113281 4.003906 -0.175781 3.984375 -0.25 L 3.734375 -1.515625 L 1.46875 -1.515625 L 0.90625 -0.25 C 0.875 -0.1875 0.820312 -0.128906 0.75 -0.078125 C 0.6875 -0.0234375 0.609375 0 0.515625 0 L -0.34375 0 L 2.609375 -6.078125 L 3.71875 -6.078125 Z M 5.171875 0 "/></g></g></g><g fill="#000000" fill-opacity="1"><g transform="translate(79.647228, 8.670823)"><g><path d="M 2.875 -0.859375 C 3.050781 -0.859375 3.203125 -0.867188 3.328125 -0.890625 C 3.453125 -0.921875 3.5625 -0.957031 3.65625 -1 C 3.75 -1.039062 3.828125 -1.082031 3.890625 -1.125 C 3.960938 -1.175781 4.023438 -1.222656 4.078125 -1.265625 C 4.128906 -1.304688 4.171875 -1.335938 4.203125 -1.359375 C 4.242188 -1.390625 4.285156 -1.40625 4.328125 -1.40625 C 4.359375 -1.40625 4.382812 -1.394531 4.40625 -1.375 C 4.4375 -1.363281 4.457031 -1.351562 4.46875 -1.34375 L 4.84375 -0.875 C 4.582031 -0.570312 4.273438 -0.335938 3.921875 -0.171875 C 3.566406 -0.015625 3.15625 0.0625 2.6875 0.0625 C 2.3125 0.0625 1.976562 0 1.6875 -0.125 C 1.394531 -0.257812 1.148438 -0.441406 0.953125 -0.671875 C 0.753906 -0.910156 0.601562 -1.191406 0.5 -1.515625 C 0.394531 -1.835938 0.34375 -2.191406 0.34375 -2.578125 C 0.34375 -2.929688 0.378906 -3.265625 0.453125 -3.578125 C 0.523438 -3.890625 0.628906 -4.175781 0.765625 -4.4375 C 0.910156 -4.695312 1.082031 -4.929688 1.28125 -5.140625 C 1.476562 -5.359375 1.695312 -5.539062 1.9375 -5.6875 C 2.175781 -5.832031 2.429688 -5.941406 2.703125 -6.015625 C 2.984375 -6.097656 3.269531 -6.140625 3.5625 -6.140625 C 3.789062 -6.140625 3.992188 -6.117188 4.171875 -6.078125 C 4.359375 -6.035156 4.523438 -5.976562 4.671875 -5.90625 C 4.816406 -5.832031 4.945312 -5.742188 5.0625 -5.640625 C 5.1875 -5.546875 5.296875 -5.4375 5.390625 -5.3125 L 5.015625 -4.859375 C 4.984375 -4.816406 4.945312 -4.785156 4.90625 -4.765625 C 4.875 -4.742188 4.828125 -4.734375 4.765625 -4.734375 C 4.703125 -4.734375 4.644531 -4.753906 4.59375 -4.796875 C 4.539062 -4.847656 4.46875 -4.90625 4.375 -4.96875 C 4.289062 -5.03125 4.179688 -5.085938 4.046875 -5.140625 C 3.910156 -5.191406 3.734375 -5.21875 3.515625 -5.21875 C 3.222656 -5.21875 2.953125 -5.15625 2.703125 -5.03125 C 2.453125 -4.914062 2.234375 -4.742188 2.046875 -4.515625 C 1.859375 -4.296875 1.710938 -4.03125 1.609375 -3.71875 C 1.503906 -3.40625 1.453125 -3.054688 1.453125 -2.671875 C 1.453125 -2.390625 1.488281 -2.132812 1.5625 -1.90625 C 1.632812 -1.6875 1.734375 -1.5 1.859375 -1.34375 C 1.984375 -1.1875 2.132812 -1.066406 2.3125 -0.984375 C 2.488281 -0.898438 2.675781 -0.859375 2.875 -0.859375 Z M 2.875 -0.859375 "/></g></g></g><g fill="#000000" fill-opacity="1"><g transform="translate(85.228955, 8.670823)"><g><path d="M 2.0625 -5.203125 L 1.84375 -3.484375 L 3.765625 -3.484375 L 3.671875 -2.640625 L 1.75 -2.640625 L 1.53125 -0.875 L 3.984375 -0.875 L 3.875 0 L 0.328125 0 L 1.078125 -6.078125 L 4.609375 -6.078125 L 4.5 -5.203125 Z M 2.0625 -5.203125 "/></g></g></g><g fill="#000000" fill-opacity="1"><g transform="translate(90.104034, 8.670823)"><g><path d="M 2.421875 -3.171875 C 2.640625 -3.171875 2.828125 -3.203125 2.984375 -3.265625 C 3.148438 -3.328125 3.28125 -3.410156 3.375 -3.515625 C 3.476562 -3.628906 3.554688 -3.757812 3.609375 -3.90625 C 3.660156 -4.0625 3.6875 -4.222656 3.6875 -4.390625 C 3.6875 -4.660156 3.601562 -4.867188 3.4375 -5.015625 C 3.28125 -5.160156 3.03125 -5.234375 2.6875 -5.234375 L 2.046875 -5.234375 L 1.796875 -3.171875 Z M 2.796875 -6.078125 C 3.140625 -6.078125 3.4375 -6.039062 3.6875 -5.96875 C 3.9375 -5.894531 4.140625 -5.789062 4.296875 -5.65625 C 4.460938 -5.519531 4.582031 -5.359375 4.65625 -5.171875 C 4.738281 -4.992188 4.78125 -4.789062 4.78125 -4.5625 C 4.78125 -4.332031 4.742188 -4.113281 4.671875 -3.90625 C 4.609375 -3.695312 4.515625 -3.507812 4.390625 -3.34375 C 4.265625 -3.175781 4.113281 -3.03125 3.9375 -2.90625 C 3.757812 -2.78125 3.554688 -2.679688 3.328125 -2.609375 C 3.390625 -2.566406 3.445312 -2.519531 3.5 -2.46875 C 3.550781 -2.414062 3.597656 -2.347656 3.640625 -2.265625 L 4.71875 0 L 3.75 0 C 3.5625 0 3.4375 -0.0703125 3.375 -0.21875 L 2.484375 -2.1875 C 2.441406 -2.257812 2.394531 -2.3125 2.34375 -2.34375 C 2.300781 -2.375 2.226562 -2.390625 2.125 -2.390625 L 1.703125 -2.390625 L 1.40625 0 L 0.328125 0 L 1.0625 -6.078125 Z M 2.796875 -6.078125 "/></g></g></g><g fill="#000000" fill-opacity="1"><g transform="translate(95.509099, 8.670823)"><g><path d="M 2.0625 -5.203125 L 1.84375 -3.484375 L 3.765625 -3.484375 L 3.671875 -2.640625 L 1.75 -2.640625 L 1.53125 -0.875 L 3.984375 -0.875 L 3.875 0 L 0.328125 0 L 1.078125 -6.078125 L 4.609375 -6.078125 L 4.5 -5.203125 Z M 2.0625 -5.203125 "/></g></g></g><g fill="#000000" fill-opacity="1"><g transform="translate(100.384178, 8.670823)"><g><path d="M 3.578125 -2.28125 L 3.171875 -4.359375 C 3.148438 -4.460938 3.128906 -4.578125 3.109375 -4.703125 C 3.085938 -4.828125 3.066406 -4.960938 3.046875 -5.109375 C 2.984375 -4.960938 2.925781 -4.828125 2.875 -4.703125 C 2.820312 -4.578125 2.773438 -4.460938 2.734375 -4.359375 L 1.8125 -2.28125 Z M 5.171875 0 L 4.328125 0 C 4.222656 0 4.144531 -0.0195312 4.09375 -0.0625 C 4.039062 -0.113281 4.003906 -0.175781 3.984375 -0.25 L 3.734375 -1.515625 L 1.46875 -1.515625 L 0.90625 -0.25 C 0.875 -0.1875 0.820312 -0.128906 0.75 -0.078125 C 0.6875 -0.0234375 0.609375 0 0.515625 0 L -0.34375 0 L 2.609375 -6.078125 L 3.71875 -6.078125 Z M 5.171875 0 "/></g></g></g><g fill="#000000" fill-opacity="1"><g transform="translate(105.949078, 8.670823)"><g/></g></g><g fill="#000000" fill-opacity="1"><g transform="translate(107.909197, 8.670823)"><g><path d="M 4.859375 -5.1875 L 3.203125 -5.1875 L 2.5625 0 L 1.484375 0 L 2.109375 -5.1875 L 0.453125 -5.1875 L 0.5625 -6.078125 L 4.984375 -6.078125 Z M 4.859375 -5.1875 "/></g></g></g><g fill="#000000" fill-opacity="1"><g transform="translate(112.430951, 8.670823)"><g><path d="M 3.578125 -2.28125 L 3.171875 -4.359375 C 3.148438 -4.460938 3.128906 -4.578125 3.109375 -4.703125 C 3.085938 -4.828125 3.066406 -4.960938 3.046875 -5.109375 C 2.984375 -4.960938 2.925781 -4.828125 2.875 -4.703125 C 2.820312 -4.578125 2.773438 -4.460938 2.734375 -4.359375 L 1.8125 -2.28125 Z M 5.171875 0 L 4.328125 0 C 4.222656 0 4.144531 -0.0195312 4.09375 -0.0625 C 4.039062 -0.113281 4.003906 -0.175781 3.984375 -0.25 L 3.734375 -1.515625 L 1.46875 -1.515625 L 0.90625 -0.25 C 0.875 -0.1875 0.820312 -0.128906 0.75 -0.078125 C 0.6875 -0.0234375 0.609375 0 0.515625 0 L -0.34375 0 L 2.609375 -6.078125 L 3.71875 -6.078125 Z M 5.171875 0 "/></g></g></g></g></g></svg>