<svg xmlns="http://www.w3.org/2000/svg" xmlns:xlink="http://www.w3.org/1999/xlink" width="229" zoomAndPan="magnify" viewBox="0 0 171.75 30.000001" height="40" preserveAspectRatio="xMidYMid meet" version="1.0"><defs><g/><clipPath id="3964355c4d"><path d="M 2.648438 0 L 168.859375 0 L 168.859375 29.03125 L 2.648438 29.03125 Z M 2.648438 0 " clip-rule="nonzero"/></clipPath><clipPath id="a5ba727184"><path d="M 0.210938 3 L 8 3 L 8 12 L 0.210938 12 Z M 0.210938 3 " clip-rule="nonzero"/></clipPath><clipPath id="1f1e1c4ce5"><path d="M 129 3 L 135.617188 3 L 135.617188 12 L 129 12 Z M 129 3 " clip-rule="nonzero"/></clipPath><clipPath id="553903e8f3"><rect x="0" width="136" y="0" height="15"/></clipPath></defs><g clip-path="url(#3964355c4d)"><path fill="#ffffff" d="M 2.648438 0 L 168.859375 0 L 168.859375 29.03125 L 2.648438 29.03125 Z M 2.648438 0 " fill-opacity="1" fill-rule="nonzero"/><path fill="#edecec" d="M 2.648438 0 L 168.859375 0 L 168.859375 29.03125 L 2.648438 29.03125 Z M 2.648438 0 " fill-opacity="1" fill-rule="nonzero"/></g><g transform="matrix(1, 0, 0, 1, 18, 7)"><g clip-path="url(#553903e8f3)"><g clip-path="url(#a5ba727184)"><g fill="#000000" fill-opacity="1"><g transform="translate(0.573753, 11.746167)"><g><path d="M 6.515625 -7.640625 C 6.503906 -7.578125 6.484375 -7.519531 6.453125 -7.46875 C 6.421875 -7.414062 6.390625 -7.359375 6.359375 -7.296875 L 1.875 -1.15625 L 5.625 -1.15625 L 5.484375 0 L -0.203125 0 L -0.15625 -0.4375 C -0.144531 -0.5 -0.125 -0.554688 -0.09375 -0.609375 C -0.0625 -0.671875 -0.03125 -0.734375 0 -0.796875 L 4.5 -6.9375 L 0.890625 -6.9375 L 1.03125 -8.09375 L 6.578125 -8.09375 Z M 6.515625 -7.640625 "/></g></g></g></g><g fill="#000000" fill-opacity="1"><g transform="translate(7.334971, 11.746167)"><g><path d="M 2.75 -6.9375 L 2.46875 -4.640625 L 5.03125 -4.640625 L 4.890625 -3.515625 L 2.328125 -3.515625 L 2.03125 -1.15625 L 5.3125 -1.15625 L 5.15625 0 L 0.4375 0 L 1.421875 -8.09375 L 6.15625 -8.09375 L 6 -6.9375 Z M 2.75 -6.9375 "/></g></g></g><g fill="#000000" fill-opacity="1"><g transform="translate(13.821939, 11.746167)"><g><path d="M 3.234375 -4.234375 C 3.523438 -4.234375 3.773438 -4.273438 3.984375 -4.359375 C 4.191406 -4.441406 4.363281 -4.554688 4.5 -4.703125 C 4.644531 -4.847656 4.75 -5.019531 4.8125 -5.21875 C 4.882812 -5.414062 4.921875 -5.628906 4.921875 -5.859375 C 4.921875 -6.210938 4.8125 -6.488281 4.59375 -6.6875 C 4.375 -6.882812 4.035156 -6.984375 3.578125 -6.984375 L 2.734375 -6.984375 L 2.390625 -4.234375 Z M 3.71875 -8.09375 C 4.1875 -8.09375 4.585938 -8.039062 4.921875 -7.9375 C 5.253906 -7.84375 5.523438 -7.707031 5.734375 -7.53125 C 5.953125 -7.351562 6.109375 -7.140625 6.203125 -6.890625 C 6.304688 -6.648438 6.359375 -6.382812 6.359375 -6.09375 C 6.359375 -5.78125 6.3125 -5.484375 6.21875 -5.203125 C 6.132812 -4.929688 6.007812 -4.679688 5.84375 -4.453125 C 5.6875 -4.234375 5.488281 -4.039062 5.25 -3.875 C 5.007812 -3.707031 4.738281 -3.578125 4.4375 -3.484375 C 4.519531 -3.429688 4.59375 -3.363281 4.65625 -3.28125 C 4.726562 -3.207031 4.789062 -3.117188 4.84375 -3.015625 L 6.296875 0 L 4.984375 0 C 4.734375 0 4.570312 -0.0976562 4.5 -0.296875 L 3.3125 -2.921875 C 3.257812 -3.015625 3.203125 -3.082031 3.140625 -3.125 C 3.078125 -3.164062 2.972656 -3.1875 2.828125 -3.1875 L 2.265625 -3.1875 L 1.875 0 L 0.4375 0 L 1.421875 -8.09375 Z M 3.71875 -8.09375 "/></g></g></g><g fill="#000000" fill-opacity="1"><g transform="translate(20.907767, 11.746167)"><g><path d="M 8.140625 -4.59375 C 8.140625 -4.144531 8.085938 -3.71875 7.984375 -3.3125 C 7.890625 -2.90625 7.75 -2.523438 7.5625 -2.171875 C 7.382812 -1.828125 7.164062 -1.515625 6.90625 -1.234375 C 6.644531 -0.960938 6.351562 -0.726562 6.03125 -0.53125 C 5.707031 -0.332031 5.351562 -0.175781 4.96875 -0.0625 C 4.59375 0.0390625 4.195312 0.09375 3.78125 0.09375 C 3.269531 0.09375 2.804688 0.00390625 2.390625 -0.171875 C 1.984375 -0.359375 1.632812 -0.613281 1.34375 -0.9375 C 1.050781 -1.257812 0.828125 -1.640625 0.671875 -2.078125 C 0.523438 -2.515625 0.453125 -2.988281 0.453125 -3.5 C 0.453125 -3.945312 0.5 -4.375 0.59375 -4.78125 C 0.695312 -5.1875 0.84375 -5.5625 1.03125 -5.90625 C 1.21875 -6.257812 1.4375 -6.570312 1.6875 -6.84375 C 1.945312 -7.125 2.238281 -7.363281 2.5625 -7.5625 C 2.882812 -7.769531 3.234375 -7.925781 3.609375 -8.03125 C 3.992188 -8.132812 4.394531 -8.1875 4.8125 -8.1875 C 5.320312 -8.1875 5.78125 -8.09375 6.1875 -7.90625 C 6.601562 -7.726562 6.957031 -7.476562 7.25 -7.15625 C 7.539062 -6.832031 7.757812 -6.453125 7.90625 -6.015625 C 8.0625 -5.578125 8.140625 -5.101562 8.140625 -4.59375 Z M 6.65625 -4.5625 C 6.65625 -4.925781 6.609375 -5.253906 6.515625 -5.546875 C 6.421875 -5.847656 6.285156 -6.101562 6.109375 -6.3125 C 5.941406 -6.53125 5.734375 -6.695312 5.484375 -6.8125 C 5.234375 -6.925781 4.945312 -6.984375 4.625 -6.984375 C 4.226562 -6.984375 3.863281 -6.898438 3.53125 -6.734375 C 3.195312 -6.578125 2.910156 -6.347656 2.671875 -6.046875 C 2.441406 -5.742188 2.257812 -5.378906 2.125 -4.953125 C 2 -4.523438 1.9375 -4.050781 1.9375 -3.53125 C 1.9375 -3.164062 1.984375 -2.832031 2.078125 -2.53125 C 2.171875 -2.238281 2.300781 -1.984375 2.46875 -1.765625 C 2.644531 -1.554688 2.851562 -1.394531 3.09375 -1.28125 C 3.34375 -1.164062 3.628906 -1.109375 3.953125 -1.109375 C 4.359375 -1.109375 4.726562 -1.191406 5.0625 -1.359375 C 5.394531 -1.523438 5.675781 -1.753906 5.90625 -2.046875 C 6.144531 -2.347656 6.328125 -2.710938 6.453125 -3.140625 C 6.585938 -3.566406 6.65625 -4.039062 6.65625 -4.5625 Z M 6.65625 -4.5625 "/></g></g></g><g fill="#000000" fill-opacity="1"><g transform="translate(29.818224, 11.746167)"><g/></g></g><g fill="#000000" fill-opacity="1"><g transform="translate(32.437636, 11.746167)"><g><path d="M 4.765625 -3.046875 L 4.21875 -5.8125 C 4.195312 -5.945312 4.171875 -6.097656 4.140625 -6.265625 C 4.109375 -6.429688 4.082031 -6.613281 4.0625 -6.8125 C 3.976562 -6.613281 3.898438 -6.429688 3.828125 -6.265625 C 3.765625 -6.097656 3.703125 -5.945312 3.640625 -5.8125 L 2.421875 -3.046875 Z M 6.890625 0 L 5.765625 0 C 5.628906 0 5.523438 -0.03125 5.453125 -0.09375 C 5.390625 -0.15625 5.34375 -0.234375 5.3125 -0.328125 L 4.984375 -2.015625 L 1.953125 -2.015625 L 1.203125 -0.328125 C 1.160156 -0.242188 1.09375 -0.164062 1 -0.09375 C 0.914062 -0.03125 0.8125 0 0.6875 0 L -0.453125 0 L 3.46875 -8.09375 L 4.953125 -8.09375 Z M 6.890625 0 "/></g></g></g><g fill="#000000" fill-opacity="1"><g transform="translate(40.195116, 11.746167)"><g><path d="M 3.390625 -4 C 3.671875 -4 3.914062 -4.039062 4.125 -4.125 C 4.332031 -4.207031 4.503906 -4.328125 4.640625 -4.484375 C 4.773438 -4.640625 4.875 -4.820312 4.9375 -5.03125 C 5.007812 -5.25 5.046875 -5.488281 5.046875 -5.75 C 5.046875 -5.925781 5.019531 -6.09375 4.96875 -6.25 C 4.914062 -6.40625 4.832031 -6.535156 4.71875 -6.640625 C 4.613281 -6.742188 4.476562 -6.828125 4.3125 -6.890625 C 4.15625 -6.953125 3.960938 -6.984375 3.734375 -6.984375 L 2.734375 -6.984375 L 2.375 -4 Z M 3.875 -8.09375 C 4.34375 -8.09375 4.738281 -8.035156 5.0625 -7.921875 C 5.394531 -7.816406 5.664062 -7.664062 5.875 -7.46875 C 6.09375 -7.269531 6.253906 -7.035156 6.359375 -6.765625 C 6.460938 -6.492188 6.515625 -6.195312 6.515625 -5.875 C 6.515625 -5.4375 6.441406 -5.035156 6.296875 -4.671875 C 6.160156 -4.304688 5.957031 -3.988281 5.6875 -3.71875 C 5.414062 -3.457031 5.078125 -3.25 4.671875 -3.09375 C 4.265625 -2.945312 3.785156 -2.875 3.234375 -2.875 L 2.234375 -2.875 L 1.875 0 L 0.4375 0 L 1.421875 -8.09375 Z M 3.875 -8.09375 "/></g></g></g><g fill="#000000" fill-opacity="1"><g transform="translate(47.180212, 11.746167)"><g><path d="M 2.75 -6.9375 L 2.46875 -4.640625 L 5.03125 -4.640625 L 4.890625 -3.515625 L 2.328125 -3.515625 L 2.03125 -1.15625 L 5.3125 -1.15625 L 5.15625 0 L 0.4375 0 L 1.421875 -8.09375 L 6.15625 -8.09375 L 6 -6.9375 Z M 2.75 -6.9375 "/></g></g></g><g fill="#000000" fill-opacity="1"><g transform="translate(53.66718, 11.746167)"><g><path d="M 4.96875 -1.203125 L 4.828125 0 L 0.4375 0 L 1.421875 -8.09375 L 2.875 -8.09375 L 2.03125 -1.203125 Z M 4.96875 -1.203125 "/></g></g></g><g fill="#000000" fill-opacity="1"><g transform="translate(59.292176, 11.746167)"><g><path d="M 3.59375 -1.171875 C 3.851562 -1.171875 4.09375 -1.21875 4.3125 -1.3125 C 4.53125 -1.414062 4.722656 -1.554688 4.890625 -1.734375 C 5.054688 -1.910156 5.191406 -2.125 5.296875 -2.375 C 5.398438 -2.632812 5.472656 -2.921875 5.515625 -3.234375 L 6.109375 -8.09375 L 7.5625 -8.09375 L 6.96875 -3.234375 C 6.90625 -2.753906 6.773438 -2.3125 6.578125 -1.90625 C 6.390625 -1.5 6.140625 -1.144531 5.828125 -0.84375 C 5.523438 -0.550781 5.171875 -0.320312 4.765625 -0.15625 C 4.359375 0.0078125 3.914062 0.09375 3.4375 0.09375 C 2.957031 0.09375 2.535156 0.0078125 2.171875 -0.15625 C 1.804688 -0.320312 1.507812 -0.550781 1.28125 -0.84375 C 1.050781 -1.144531 0.890625 -1.5 0.796875 -1.90625 C 0.703125 -2.3125 0.679688 -2.753906 0.734375 -3.234375 L 1.328125 -8.09375 L 2.78125 -8.09375 L 2.1875 -3.234375 C 2.144531 -2.921875 2.144531 -2.632812 2.1875 -2.375 C 2.226562 -2.125 2.3125 -1.910156 2.4375 -1.734375 C 2.5625 -1.554688 2.71875 -1.414062 2.90625 -1.3125 C 3.101562 -1.21875 3.332031 -1.171875 3.59375 -1.171875 Z M 3.59375 -1.171875 "/></g></g></g><g fill="#000000" fill-opacity="1"><g transform="translate(67.514205, 11.746167)"><g><path d="M 3.234375 -4.234375 C 3.523438 -4.234375 3.773438 -4.273438 3.984375 -4.359375 C 4.191406 -4.441406 4.363281 -4.554688 4.5 -4.703125 C 4.644531 -4.847656 4.75 -5.019531 4.8125 -5.21875 C 4.882812 -5.414062 4.921875 -5.628906 4.921875 -5.859375 C 4.921875 -6.210938 4.8125 -6.488281 4.59375 -6.6875 C 4.375 -6.882812 4.035156 -6.984375 3.578125 -6.984375 L 2.734375 -6.984375 L 2.390625 -4.234375 Z M 3.71875 -8.09375 C 4.1875 -8.09375 4.585938 -8.039062 4.921875 -7.9375 C 5.253906 -7.84375 5.523438 -7.707031 5.734375 -7.53125 C 5.953125 -7.351562 6.109375 -7.140625 6.203125 -6.890625 C 6.304688 -6.648438 6.359375 -6.382812 6.359375 -6.09375 C 6.359375 -5.78125 6.3125 -5.484375 6.21875 -5.203125 C 6.132812 -4.929688 6.007812 -4.679688 5.84375 -4.453125 C 5.6875 -4.234375 5.488281 -4.039062 5.25 -3.875 C 5.007812 -3.707031 4.738281 -3.578125 4.4375 -3.484375 C 4.519531 -3.429688 4.59375 -3.363281 4.65625 -3.28125 C 4.726562 -3.207031 4.789062 -3.117188 4.84375 -3.015625 L 6.296875 0 L 4.984375 0 C 4.734375 0 4.570312 -0.0976562 4.5 -0.296875 L 3.3125 -2.921875 C 3.257812 -3.015625 3.203125 -3.082031 3.140625 -3.125 C 3.078125 -3.164062 2.972656 -3.1875 2.828125 -3.1875 L 2.265625 -3.1875 L 1.875 0 L 0.4375 0 L 1.421875 -8.09375 Z M 3.71875 -8.09375 "/></g></g></g><g fill="#000000" fill-opacity="1"><g transform="translate(74.70639, 11.746167)"><g><path d="M 1.890625 0 L 0.4375 0 L 1.421875 -8.09375 L 2.875 -8.09375 Z M 1.890625 0 "/></g></g></g><g fill="#000000" fill-opacity="1"><g transform="translate(78.344495, 11.746167)"><g/></g></g><g fill="#000000" fill-opacity="1"><g transform="translate(81.277384, 11.746167)"><g><path d="M 3.390625 -4 C 3.671875 -4 3.914062 -4.039062 4.125 -4.125 C 4.332031 -4.207031 4.503906 -4.328125 4.640625 -4.484375 C 4.773438 -4.640625 4.875 -4.820312 4.9375 -5.03125 C 5.007812 -5.25 5.046875 -5.488281 5.046875 -5.75 C 5.046875 -5.925781 5.019531 -6.09375 4.96875 -6.25 C 4.914062 -6.40625 4.832031 -6.535156 4.71875 -6.640625 C 4.613281 -6.742188 4.476562 -6.828125 4.3125 -6.890625 C 4.15625 -6.953125 3.960938 -6.984375 3.734375 -6.984375 L 2.734375 -6.984375 L 2.375 -4 Z M 3.875 -8.09375 C 4.34375 -8.09375 4.738281 -8.035156 5.0625 -7.921875 C 5.394531 -7.816406 5.664062 -7.664062 5.875 -7.46875 C 6.09375 -7.269531 6.253906 -7.035156 6.359375 -6.765625 C 6.460938 -6.492188 6.515625 -6.195312 6.515625 -5.875 C 6.515625 -5.4375 6.441406 -5.035156 6.296875 -4.671875 C 6.160156 -4.304688 5.957031 -3.988281 5.6875 -3.71875 C 5.414062 -3.457031 5.078125 -3.25 4.671875 -3.09375 C 4.265625 -2.945312 3.785156 -2.875 3.234375 -2.875 L 2.234375 -2.875 L 1.875 0 L 0.4375 0 L 1.421875 -8.09375 Z M 3.875 -8.09375 "/></g></g></g><g fill="#000000" fill-opacity="1"><g transform="translate(88.262484, 11.746167)"><g><path d="M 1.890625 0 L 0.4375 0 L 1.421875 -8.09375 L 2.875 -8.09375 Z M 1.890625 0 "/></g></g></g><g fill="#000000" fill-opacity="1"><g transform="translate(91.90059, 11.746167)"><g><path d="M 2.75 -6.9375 L 2.46875 -4.640625 L 5.03125 -4.640625 L 4.890625 -3.515625 L 2.328125 -3.515625 L 2.03125 -1.15625 L 5.3125 -1.15625 L 5.15625 0 L 0.4375 0 L 1.421875 -8.09375 L 6.15625 -8.09375 L 6 -6.9375 Z M 2.75 -6.9375 "/></g></g></g><g fill="#000000" fill-opacity="1"><g transform="translate(98.387557, 11.746167)"><g><path d="M 3.234375 -4.234375 C 3.523438 -4.234375 3.773438 -4.273438 3.984375 -4.359375 C 4.191406 -4.441406 4.363281 -4.554688 4.5 -4.703125 C 4.644531 -4.847656 4.75 -5.019531 4.8125 -5.21875 C 4.882812 -5.414062 4.921875 -5.628906 4.921875 -5.859375 C 4.921875 -6.210938 4.8125 -6.488281 4.59375 -6.6875 C 4.375 -6.882812 4.035156 -6.984375 3.578125 -6.984375 L 2.734375 -6.984375 L 2.390625 -4.234375 Z M 3.71875 -8.09375 C 4.1875 -8.09375 4.585938 -8.039062 4.921875 -7.9375 C 5.253906 -7.84375 5.523438 -7.707031 5.734375 -7.53125 C 5.953125 -7.351562 6.109375 -7.140625 6.203125 -6.890625 C 6.304688 -6.648438 6.359375 -6.382812 6.359375 -6.09375 C 6.359375 -5.78125 6.3125 -5.484375 6.21875 -5.203125 C 6.132812 -4.929688 6.007812 -4.679688 5.84375 -4.453125 C 5.6875 -4.234375 5.488281 -4.039062 5.25 -3.875 C 5.007812 -3.707031 4.738281 -3.578125 4.4375 -3.484375 C 4.519531 -3.429688 4.59375 -3.363281 4.65625 -3.28125 C 4.726562 -3.207031 4.789062 -3.117188 4.84375 -3.015625 L 6.296875 0 L 4.984375 0 C 4.734375 0 4.570312 -0.0976562 4.5 -0.296875 L 3.3125 -2.921875 C 3.257812 -3.015625 3.203125 -3.082031 3.140625 -3.125 C 3.078125 -3.164062 2.972656 -3.1875 2.828125 -3.1875 L 2.265625 -3.1875 L 1.875 0 L 0.4375 0 L 1.421875 -8.09375 Z M 3.71875 -8.09375 "/></g></g></g><g fill="#000000" fill-opacity="1"><g transform="translate(105.579742, 11.746167)"><g><path d="M 7.625 -4.59375 C 7.625 -3.914062 7.515625 -3.296875 7.296875 -2.734375 C 7.078125 -2.171875 6.773438 -1.6875 6.390625 -1.28125 C 6.003906 -0.875 5.546875 -0.554688 5.015625 -0.328125 C 4.484375 -0.109375 3.90625 0 3.28125 0 L 0.4375 0 L 1.421875 -8.09375 L 4.28125 -8.09375 C 4.800781 -8.09375 5.265625 -8.003906 5.671875 -7.828125 C 6.085938 -7.660156 6.4375 -7.421875 6.71875 -7.109375 C 7.007812 -6.796875 7.234375 -6.425781 7.390625 -6 C 7.546875 -5.570312 7.625 -5.101562 7.625 -4.59375 Z M 6.140625 -4.5625 C 6.140625 -4.925781 6.09375 -5.253906 6 -5.546875 C 5.90625 -5.835938 5.773438 -6.085938 5.609375 -6.296875 C 5.441406 -6.503906 5.234375 -6.664062 4.984375 -6.78125 C 4.734375 -6.894531 4.453125 -6.953125 4.140625 -6.953125 L 2.75 -6.953125 L 2.03125 -1.15625 L 3.421875 -1.15625 C 3.828125 -1.15625 4.195312 -1.234375 4.53125 -1.390625 C 4.863281 -1.546875 5.148438 -1.769531 5.390625 -2.0625 C 5.628906 -2.363281 5.8125 -2.722656 5.9375 -3.140625 C 6.070312 -3.554688 6.140625 -4.03125 6.140625 -4.5625 Z M 6.140625 -4.5625 "/></g></g></g><g fill="#000000" fill-opacity="1"><g transform="translate(113.986473, 11.746167)"><g><path d="M 3.59375 -1.171875 C 3.851562 -1.171875 4.09375 -1.21875 4.3125 -1.3125 C 4.53125 -1.414062 4.722656 -1.554688 4.890625 -1.734375 C 5.054688 -1.910156 5.191406 -2.125 5.296875 -2.375 C 5.398438 -2.632812 5.472656 -2.921875 5.515625 -3.234375 L 6.109375 -8.09375 L 7.5625 -8.09375 L 6.96875 -3.234375 C 6.90625 -2.753906 6.773438 -2.3125 6.578125 -1.90625 C 6.390625 -1.5 6.140625 -1.144531 5.828125 -0.84375 C 5.523438 -0.550781 5.171875 -0.320312 4.765625 -0.15625 C 4.359375 0.0078125 3.914062 0.09375 3.4375 0.09375 C 2.957031 0.09375 2.535156 0.0078125 2.171875 -0.15625 C 1.804688 -0.320312 1.507812 -0.550781 1.28125 -0.84375 C 1.050781 -1.144531 0.890625 -1.5 0.796875 -1.90625 C 0.703125 -2.3125 0.679688 -2.753906 0.734375 -3.234375 L 1.328125 -8.09375 L 2.78125 -8.09375 L 2.1875 -3.234375 C 2.144531 -2.921875 2.144531 -2.632812 2.1875 -2.375 C 2.226562 -2.125 2.3125 -1.910156 2.4375 -1.734375 C 2.5625 -1.554688 2.71875 -1.414062 2.90625 -1.3125 C 3.101562 -1.21875 3.332031 -1.171875 3.59375 -1.171875 Z M 3.59375 -1.171875 "/></g></g></g><g fill="#000000" fill-opacity="1"><g transform="translate(122.208502, 11.746167)"><g><path d="M 6.484375 -6.90625 L 4.28125 -6.90625 L 3.421875 0 L 1.984375 0 L 2.8125 -6.90625 L 0.59375 -6.90625 L 0.734375 -8.09375 L 6.640625 -8.09375 Z M 6.484375 -6.90625 "/></g></g></g><g clip-path="url(#1f1e1c4ce5)"><g fill="#000000" fill-opacity="1"><g transform="translate(128.924946, 11.746167)"><g><path d="M 2.75 -6.9375 L 2.46875 -4.640625 L 5.03125 -4.640625 L 4.890625 -3.515625 L 2.328125 -3.515625 L 2.03125 -1.15625 L 5.3125 -1.15625 L 5.15625 0 L 0.4375 0 L 1.421875 -8.09375 L 6.15625 -8.09375 L 6 -6.9375 Z M 2.75 -6.9375 "/></g></g></g></g></g></g></svg>