<svg xmlns="http://www.w3.org/2000/svg" xmlns:xlink="http://www.w3.org/1999/xlink" width="46" zoomAndPan="magnify" viewBox="0 0 34.5 30.000001" height="40" preserveAspectRatio="xMidYMid meet" version="1.0"><defs><g/><clipPath id="4817cb2009"><path d="M 0.316406 0 L 33.703125 0 L 33.703125 29.03125 L 0.316406 29.03125 Z M 0.316406 0 " clip-rule="nonzero"/></clipPath><clipPath id="ca704a485b"><path d="M 0.316406 6 L 8 6 L 8 14 L 0.316406 14 Z M 0.316406 6 " clip-rule="nonzero"/></clipPath><clipPath id="5d0e3ea446"><path d="M 28 6 L 33.703125 6 L 33.703125 14 L 28 14 Z M 28 6 " clip-rule="nonzero"/></clipPath></defs><g clip-path="url(#4817cb2009)"><path fill="#ffffff" d="M 0.316406 0 L 33.703125 0 L 33.703125 29.03125 L 0.316406 29.03125 Z M 0.316406 0 " fill-opacity="1" fill-rule="nonzero"/><path fill="#edecec" d="M 0.316406 0 L 33.703125 0 L 33.703125 29.03125 L 0.316406 29.03125 Z M 0.316406 0 " fill-opacity="1" fill-rule="nonzero"/></g><g clip-path="url(#ca704a485b)"><g fill="#000000" fill-opacity="1"><g transform="translate(0.631702, 13.064518)"><g><path d="M 6.421875 -3.625 C 6.421875 -3.269531 6.378906 -2.929688 6.296875 -2.609375 C 6.222656 -2.296875 6.113281 -2 5.96875 -1.71875 C 5.820312 -1.445312 5.644531 -1.203125 5.4375 -0.984375 C 5.238281 -0.765625 5.007812 -0.578125 4.75 -0.421875 C 4.5 -0.265625 4.222656 -0.140625 3.921875 -0.046875 C 3.628906 0.0351562 3.316406 0.078125 2.984375 0.078125 C 2.578125 0.078125 2.210938 0.00390625 1.890625 -0.140625 C 1.566406 -0.285156 1.289062 -0.484375 1.0625 -0.734375 C 0.832031 -0.992188 0.65625 -1.296875 0.53125 -1.640625 C 0.414062 -1.984375 0.359375 -2.359375 0.359375 -2.765625 C 0.359375 -3.117188 0.394531 -3.453125 0.46875 -3.765625 C 0.550781 -4.085938 0.664062 -4.382812 0.8125 -4.65625 C 0.957031 -4.9375 1.128906 -5.1875 1.328125 -5.40625 C 1.535156 -5.625 1.765625 -5.8125 2.015625 -5.96875 C 2.273438 -6.132812 2.550781 -6.257812 2.84375 -6.34375 C 3.144531 -6.425781 3.460938 -6.46875 3.796875 -6.46875 C 4.203125 -6.46875 4.566406 -6.394531 4.890625 -6.25 C 5.210938 -6.101562 5.488281 -5.898438 5.71875 -5.640625 C 5.945312 -5.390625 6.117188 -5.09375 6.234375 -4.75 C 6.359375 -4.40625 6.421875 -4.03125 6.421875 -3.625 Z M 5.25 -3.59375 C 5.25 -3.882812 5.210938 -4.144531 5.140625 -4.375 C 5.066406 -4.613281 4.960938 -4.816406 4.828125 -4.984375 C 4.691406 -5.160156 4.523438 -5.289062 4.328125 -5.375 C 4.128906 -5.46875 3.90625 -5.515625 3.65625 -5.515625 C 3.332031 -5.515625 3.039062 -5.445312 2.78125 -5.3125 C 2.519531 -5.1875 2.296875 -5.003906 2.109375 -4.765625 C 1.929688 -4.523438 1.789062 -4.238281 1.6875 -3.90625 C 1.582031 -3.570312 1.53125 -3.203125 1.53125 -2.796875 C 1.53125 -2.503906 1.566406 -2.238281 1.640625 -2 C 1.710938 -1.769531 1.816406 -1.570312 1.953125 -1.40625 C 2.085938 -1.238281 2.25 -1.109375 2.4375 -1.015625 C 2.632812 -0.921875 2.863281 -0.875 3.125 -0.875 C 3.4375 -0.875 3.722656 -0.9375 3.984375 -1.0625 C 4.253906 -1.195312 4.476562 -1.382812 4.65625 -1.625 C 4.84375 -1.863281 4.988281 -2.148438 5.09375 -2.484375 C 5.195312 -2.816406 5.25 -3.1875 5.25 -3.59375 Z M 5.25 -3.59375 "/></g></g></g></g><g fill="#000000" fill-opacity="1"><g transform="translate(7.664292, 13.064518)"><g><path d="M 6.125 -6.390625 L 5.34375 0 L 4.75 0 C 4.65625 0 4.578125 -0.015625 4.515625 -0.046875 C 4.460938 -0.078125 4.414062 -0.128906 4.375 -0.203125 L 1.890625 -4.5625 C 1.890625 -4.488281 1.882812 -4.421875 1.875 -4.359375 C 1.863281 -4.296875 1.859375 -4.234375 1.859375 -4.171875 L 1.359375 0 L 0.34375 0 L 1.125 -6.390625 L 1.734375 -6.390625 C 1.773438 -6.390625 1.8125 -6.382812 1.84375 -6.375 C 1.882812 -6.375 1.914062 -6.367188 1.9375 -6.359375 C 1.96875 -6.347656 1.992188 -6.328125 2.015625 -6.296875 C 2.035156 -6.273438 2.054688 -6.242188 2.078125 -6.203125 L 4.578125 -1.84375 C 4.578125 -1.9375 4.582031 -2.019531 4.59375 -2.09375 C 4.601562 -2.175781 4.609375 -2.253906 4.609375 -2.328125 L 5.109375 -6.390625 Z M 6.125 -6.390625 "/></g></g></g><g fill="#000000" fill-opacity="1"><g transform="translate(14.383262, 13.064518)"><g><path d="M 3.921875 -0.953125 L 3.8125 0 L 0.34375 0 L 1.125 -6.390625 L 2.265625 -6.390625 L 1.59375 -0.953125 Z M 3.921875 -0.953125 "/></g></g></g><g fill="#000000" fill-opacity="1"><g transform="translate(19.030578, 13.064518)"><g><path d="M 1.5 0 L 0.34375 0 L 1.125 -6.390625 L 2.265625 -6.390625 Z M 1.5 0 "/></g></g></g><g fill="#000000" fill-opacity="1"><g transform="translate(21.902196, 13.064518)"><g><path d="M 6.125 -6.390625 L 5.34375 0 L 4.75 0 C 4.65625 0 4.578125 -0.015625 4.515625 -0.046875 C 4.460938 -0.078125 4.414062 -0.128906 4.375 -0.203125 L 1.890625 -4.5625 C 1.890625 -4.488281 1.882812 -4.421875 1.875 -4.359375 C 1.863281 -4.296875 1.859375 -4.234375 1.859375 -4.171875 L 1.359375 0 L 0.34375 0 L 1.125 -6.390625 L 1.734375 -6.390625 C 1.773438 -6.390625 1.8125 -6.382812 1.84375 -6.375 C 1.882812 -6.375 1.914062 -6.367188 1.9375 -6.359375 C 1.96875 -6.347656 1.992188 -6.328125 2.015625 -6.296875 C 2.035156 -6.273438 2.054688 -6.242188 2.078125 -6.203125 L 4.578125 -1.84375 C 4.578125 -1.9375 4.582031 -2.019531 4.59375 -2.09375 C 4.601562 -2.175781 4.609375 -2.253906 4.609375 -2.328125 L 5.109375 -6.390625 Z M 6.125 -6.390625 "/></g></g></g><g clip-path="url(#5d0e3ea446)"><g fill="#000000" fill-opacity="1"><g transform="translate(28.621166, 13.064518)"><g><path d="M 2.171875 -5.484375 L 1.953125 -3.65625 L 3.96875 -3.65625 L 3.859375 -2.78125 L 1.828125 -2.78125 L 1.609375 -0.921875 L 4.1875 -0.921875 L 4.078125 0 L 0.34375 0 L 1.125 -6.390625 L 4.859375 -6.390625 L 4.734375 -5.484375 Z M 2.171875 -5.484375 "/></g></g></g></g><g fill="#000000" fill-opacity="1"><g transform="translate(6.846419, 22.500002)"><g><path d="M 3.984375 -0.984375 C 4.097656 -0.984375 4.179688 -0.945312 4.234375 -0.875 C 4.296875 -0.8125 4.320312 -0.726562 4.3125 -0.625 L 4.234375 0 L 0.171875 0 L 0.21875 -0.34375 C 0.226562 -0.414062 0.25 -0.488281 0.28125 -0.5625 C 0.320312 -0.644531 0.378906 -0.71875 0.453125 -0.78125 L 2.46875 -2.75 C 2.664062 -2.9375 2.835938 -3.113281 2.984375 -3.28125 C 3.128906 -3.445312 3.25 -3.609375 3.34375 -3.765625 C 3.445312 -3.929688 3.519531 -4.09375 3.5625 -4.25 C 3.613281 -4.414062 3.640625 -4.59375 3.640625 -4.78125 C 3.640625 -5.039062 3.578125 -5.238281 3.453125 -5.375 C 3.328125 -5.507812 3.148438 -5.578125 2.921875 -5.578125 C 2.804688 -5.578125 2.695312 -5.554688 2.59375 -5.515625 C 2.488281 -5.472656 2.394531 -5.414062 2.3125 -5.34375 C 2.226562 -5.28125 2.15625 -5.203125 2.09375 -5.109375 C 2.03125 -5.015625 1.976562 -4.914062 1.9375 -4.8125 C 1.875 -4.675781 1.800781 -4.585938 1.71875 -4.546875 C 1.632812 -4.503906 1.523438 -4.492188 1.390625 -4.515625 L 0.84375 -4.609375 C 0.914062 -4.921875 1.023438 -5.191406 1.171875 -5.421875 C 1.316406 -5.648438 1.488281 -5.835938 1.6875 -5.984375 C 1.882812 -6.140625 2.101562 -6.253906 2.34375 -6.328125 C 2.582031 -6.410156 2.832031 -6.453125 3.09375 -6.453125 C 3.34375 -6.453125 3.566406 -6.414062 3.765625 -6.34375 C 3.972656 -6.269531 4.144531 -6.160156 4.28125 -6.015625 C 4.425781 -5.878906 4.535156 -5.710938 4.609375 -5.515625 C 4.691406 -5.328125 4.734375 -5.113281 4.734375 -4.875 C 4.734375 -4.613281 4.691406 -4.367188 4.609375 -4.140625 C 4.535156 -3.921875 4.429688 -3.710938 4.296875 -3.515625 C 4.160156 -3.316406 4.003906 -3.125 3.828125 -2.9375 C 3.648438 -2.75 3.457031 -2.554688 3.25 -2.359375 L 1.703125 -0.84375 C 1.847656 -0.882812 1.992188 -0.914062 2.140625 -0.9375 C 2.285156 -0.96875 2.421875 -0.984375 2.546875 -0.984375 Z M 3.984375 -0.984375 "/></g></g></g><g fill="#000000" fill-opacity="1"><g transform="translate(12.350669, 22.500002)"><g><path d="M 3.046875 -2.390625 L 3.3125 -4.5625 C 3.320312 -4.632812 3.332031 -4.71875 3.34375 -4.8125 C 3.363281 -4.90625 3.382812 -5 3.40625 -5.09375 L 1.28125 -2.390625 Z M 4.6875 -2.390625 L 4.609375 -1.78125 C 4.609375 -1.726562 4.582031 -1.679688 4.53125 -1.640625 C 4.488281 -1.597656 4.4375 -1.578125 4.375 -1.578125 L 3.875 -1.578125 L 3.671875 0 L 2.765625 0 L 2.953125 -1.578125 L 0.484375 -1.578125 C 0.421875 -1.578125 0.363281 -1.597656 0.3125 -1.640625 C 0.257812 -1.679688 0.234375 -1.734375 0.234375 -1.796875 L 0.1875 -2.34375 L 3.46875 -6.390625 L 4.46875 -6.390625 L 3.96875 -2.390625 Z M 4.6875 -2.390625 "/></g></g></g><g fill="#000000" fill-opacity="1"><g transform="translate(17.854919, 22.500002)"><g><path d="M 0.921875 0.03125 C 0.847656 0.15625 0.753906 0.25 0.640625 0.3125 C 0.535156 0.382812 0.425781 0.421875 0.3125 0.421875 L -0.125 0.421875 L 2.96875 -6.0625 C 3.03125 -6.175781 3.113281 -6.265625 3.21875 -6.328125 C 3.320312 -6.398438 3.4375 -6.4375 3.5625 -6.4375 L 4 -6.4375 Z M 0.921875 0.03125 "/></g></g></g><g fill="#000000" fill-opacity="1"><g transform="translate(22.029602, 22.500002)"><g><path d="M 5.09375 -6.390625 L 5.03125 -5.9375 C 5.019531 -5.800781 4.992188 -5.691406 4.953125 -5.609375 C 4.910156 -5.523438 4.875 -5.453125 4.84375 -5.390625 L 2.03125 -0.359375 C 1.96875 -0.253906 1.890625 -0.164062 1.796875 -0.09375 C 1.703125 -0.03125 1.578125 0 1.421875 0 L 0.65625 0 L 3.5 -4.9375 C 3.570312 -5.03125 3.640625 -5.117188 3.703125 -5.203125 C 3.765625 -5.285156 3.832031 -5.363281 3.90625 -5.4375 L 1.125 -5.4375 C 1.0625 -5.4375 1.007812 -5.457031 0.96875 -5.5 C 0.925781 -5.550781 0.910156 -5.609375 0.921875 -5.671875 L 1 -6.390625 Z M 5.09375 -6.390625 "/></g></g></g></svg>