<svg xmlns="http://www.w3.org/2000/svg" xmlns:xlink="http://www.w3.org/1999/xlink" width="47" zoomAndPan="magnify" viewBox="0 0 35.25 30.000001" height="40" preserveAspectRatio="xMidYMid meet" version="1.0"><defs><g/><clipPath id="8cc7fff674"><path d="M 0.207031 0 L 34.320312 0 L 34.320312 29.03125 L 0.207031 29.03125 Z M 0.207031 0 " clip-rule="nonzero"/></clipPath><clipPath id="399f4e9a51"><path d="M 0.207031 2 L 34.320312 2 L 34.320312 27 L 0.207031 27 Z M 0.207031 2 " clip-rule="nonzero"/></clipPath><clipPath id="a5f6801710"><rect x="0" width="35" y="0" height="25"/></clipPath></defs><g clip-path="url(#8cc7fff674)"><path fill="#ffffff" d="M 0.207031 0 L 34.320312 0 L 34.320312 29.03125 L 0.207031 29.03125 Z M 0.207031 0 " fill-opacity="1" fill-rule="nonzero"/><path fill="#edecec" d="M 0.207031 0 L 34.320312 0 L 34.320312 29.03125 L 0.207031 29.03125 Z M 0.207031 0 " fill-opacity="1" fill-rule="nonzero"/></g><g clip-path="url(#399f4e9a51)"><g transform="matrix(1, 0, 0, 1, 0.000000000000000028, 2)"><g clip-path="url(#a5f6801710)"><g fill="#000000" fill-opacity="1"><g transform="translate(1.136016, 10.915112)"><g><path d="M 4.96875 -6.265625 C 4.914062 -6.191406 4.863281 -6.140625 4.8125 -6.109375 C 4.769531 -6.078125 4.710938 -6.0625 4.640625 -6.0625 C 4.578125 -6.0625 4.503906 -6.085938 4.421875 -6.140625 C 4.347656 -6.191406 4.257812 -6.253906 4.15625 -6.328125 C 4.0625 -6.398438 3.941406 -6.460938 3.796875 -6.515625 C 3.660156 -6.566406 3.492188 -6.59375 3.296875 -6.59375 C 3.109375 -6.59375 2.9375 -6.566406 2.78125 -6.515625 C 2.632812 -6.460938 2.507812 -6.382812 2.40625 -6.28125 C 2.3125 -6.1875 2.238281 -6.070312 2.1875 -5.9375 C 2.132812 -5.800781 2.109375 -5.65625 2.109375 -5.5 C 2.109375 -5.34375 2.148438 -5.207031 2.234375 -5.09375 C 2.316406 -4.988281 2.425781 -4.894531 2.5625 -4.8125 C 2.695312 -4.726562 2.847656 -4.65625 3.015625 -4.59375 C 3.191406 -4.53125 3.367188 -4.460938 3.546875 -4.390625 C 3.722656 -4.328125 3.894531 -4.25 4.0625 -4.15625 C 4.238281 -4.0625 4.394531 -3.945312 4.53125 -3.8125 C 4.664062 -3.6875 4.773438 -3.523438 4.859375 -3.328125 C 4.941406 -3.140625 4.984375 -2.914062 4.984375 -2.65625 C 4.984375 -2.28125 4.914062 -1.925781 4.78125 -1.59375 C 4.65625 -1.257812 4.472656 -0.96875 4.234375 -0.71875 C 3.992188 -0.476562 3.703125 -0.285156 3.359375 -0.140625 C 3.015625 0.00390625 2.628906 0.078125 2.203125 0.078125 C 1.972656 0.078125 1.75 0.0507812 1.53125 0 C 1.320312 -0.0390625 1.125 -0.101562 0.9375 -0.1875 C 0.75 -0.28125 0.570312 -0.382812 0.40625 -0.5 C 0.238281 -0.625 0.0976562 -0.765625 -0.015625 -0.921875 L 0.46875 -1.578125 C 0.507812 -1.617188 0.554688 -1.65625 0.609375 -1.6875 C 0.671875 -1.726562 0.734375 -1.75 0.796875 -1.75 C 0.847656 -1.75 0.898438 -1.726562 0.953125 -1.6875 C 1.015625 -1.65625 1.078125 -1.613281 1.140625 -1.5625 C 1.203125 -1.507812 1.269531 -1.453125 1.34375 -1.390625 C 1.425781 -1.328125 1.515625 -1.269531 1.609375 -1.21875 C 1.710938 -1.164062 1.828125 -1.125 1.953125 -1.09375 C 2.078125 -1.0625 2.21875 -1.046875 2.375 -1.046875 C 2.769531 -1.046875 3.082031 -1.15625 3.3125 -1.375 C 3.539062 -1.601562 3.65625 -1.914062 3.65625 -2.3125 C 3.65625 -2.488281 3.613281 -2.632812 3.53125 -2.75 C 3.445312 -2.863281 3.335938 -2.957031 3.203125 -3.03125 C 3.066406 -3.101562 2.914062 -3.171875 2.75 -3.234375 C 2.582031 -3.296875 2.410156 -3.359375 2.234375 -3.421875 C 2.054688 -3.484375 1.878906 -3.554688 1.703125 -3.640625 C 1.535156 -3.734375 1.382812 -3.847656 1.25 -3.984375 C 1.113281 -4.117188 1.003906 -4.285156 0.921875 -4.484375 C 0.847656 -4.679688 0.8125 -4.921875 0.8125 -5.203125 C 0.8125 -5.535156 0.867188 -5.851562 0.984375 -6.15625 C 1.109375 -6.457031 1.285156 -6.722656 1.515625 -6.953125 C 1.742188 -7.179688 2.015625 -7.363281 2.328125 -7.5 C 2.648438 -7.644531 3.015625 -7.71875 3.421875 -7.71875 C 3.628906 -7.71875 3.828125 -7.695312 4.015625 -7.65625 C 4.210938 -7.613281 4.394531 -7.550781 4.5625 -7.46875 C 4.726562 -7.394531 4.878906 -7.300781 5.015625 -7.1875 C 5.160156 -7.082031 5.28125 -6.96875 5.375 -6.84375 Z M 4.96875 -6.265625 "/></g></g></g><g fill="#000000" fill-opacity="1"><g transform="translate(7.034736, 10.915112)"><g><path d="M 2.59375 -6.546875 L 2.328125 -4.375 L 4.734375 -4.375 L 4.609375 -3.328125 L 2.1875 -3.328125 L 1.921875 -1.09375 L 5 -1.09375 L 4.859375 0 L 0.40625 0 L 1.34375 -7.640625 L 5.796875 -7.640625 L 5.65625 -6.546875 Z M 2.59375 -6.546875 "/></g></g></g><g fill="#000000" fill-opacity="1"><g transform="translate(13.155234, 10.915112)"><g><path d="M 6.109375 -6.515625 L 4.03125 -6.515625 L 3.234375 0 L 1.859375 0 L 2.65625 -6.515625 L 0.5625 -6.515625 L 0.703125 -7.640625 L 6.265625 -7.640625 Z M 6.109375 -6.515625 "/></g></g></g><g fill="#000000" fill-opacity="1"><g transform="translate(19.492237, 10.915112)"><g><path d="M 3.390625 -1.09375 C 3.640625 -1.09375 3.863281 -1.140625 4.0625 -1.234375 C 4.269531 -1.328125 4.453125 -1.457031 4.609375 -1.625 C 4.765625 -1.800781 4.890625 -2.007812 4.984375 -2.25 C 5.085938 -2.488281 5.160156 -2.753906 5.203125 -3.046875 L 5.75 -7.640625 L 7.125 -7.640625 L 6.5625 -3.046875 C 6.507812 -2.597656 6.390625 -2.179688 6.203125 -1.796875 C 6.023438 -1.410156 5.789062 -1.078125 5.5 -0.796875 C 5.207031 -0.523438 4.867188 -0.3125 4.484375 -0.15625 C 4.109375 0 3.695312 0.078125 3.25 0.078125 C 2.789062 0.078125 2.390625 0 2.046875 -0.15625 C 1.703125 -0.3125 1.421875 -0.523438 1.203125 -0.796875 C 0.984375 -1.078125 0.828125 -1.410156 0.734375 -1.796875 C 0.648438 -2.179688 0.640625 -2.597656 0.703125 -3.046875 L 1.25 -7.640625 L 2.625 -7.640625 L 2.0625 -3.046875 C 2.019531 -2.753906 2.019531 -2.488281 2.0625 -2.25 C 2.101562 -2.007812 2.179688 -1.800781 2.296875 -1.625 C 2.410156 -1.457031 2.554688 -1.328125 2.734375 -1.234375 C 2.921875 -1.140625 3.140625 -1.09375 3.390625 -1.09375 Z M 3.390625 -1.09375 "/></g></g></g><g fill="#000000" fill-opacity="1"><g transform="translate(27.249681, 10.915112)"><g><path d="M 3.1875 -3.765625 C 3.457031 -3.765625 3.691406 -3.804688 3.890625 -3.890625 C 4.085938 -3.972656 4.25 -4.085938 4.375 -4.234375 C 4.507812 -4.378906 4.609375 -4.550781 4.671875 -4.75 C 4.734375 -4.945312 4.765625 -5.171875 4.765625 -5.421875 C 4.765625 -5.585938 4.738281 -5.742188 4.6875 -5.890625 C 4.632812 -6.035156 4.554688 -6.15625 4.453125 -6.25 C 4.347656 -6.351562 4.21875 -6.429688 4.0625 -6.484375 C 3.914062 -6.546875 3.738281 -6.578125 3.53125 -6.578125 L 2.578125 -6.578125 L 2.234375 -3.765625 Z M 3.65625 -7.640625 C 4.09375 -7.640625 4.46875 -7.585938 4.78125 -7.484375 C 5.09375 -7.378906 5.347656 -7.234375 5.546875 -7.046875 C 5.742188 -6.859375 5.890625 -6.632812 5.984375 -6.375 C 6.085938 -6.125 6.140625 -5.847656 6.140625 -5.546875 C 6.140625 -5.128906 6.070312 -4.75 5.9375 -4.40625 C 5.8125 -4.0625 5.617188 -3.757812 5.359375 -3.5 C 5.109375 -3.25 4.789062 -3.050781 4.40625 -2.90625 C 4.019531 -2.769531 3.566406 -2.703125 3.046875 -2.703125 L 2.109375 -2.703125 L 1.765625 0 L 0.40625 0 L 1.34375 -7.640625 Z M 3.65625 -7.640625 "/></g></g></g><g fill="#000000" fill-opacity="1"><g transform="translate(1.459312, 22.122685)"><g><path d="M 3.046875 -3.984375 C 3.316406 -3.984375 3.550781 -4.019531 3.75 -4.09375 C 3.957031 -4.175781 4.125 -4.285156 4.25 -4.421875 C 4.382812 -4.566406 4.484375 -4.734375 4.546875 -4.921875 C 4.609375 -5.109375 4.640625 -5.3125 4.640625 -5.53125 C 4.640625 -5.851562 4.535156 -6.109375 4.328125 -6.296875 C 4.117188 -6.484375 3.800781 -6.578125 3.375 -6.578125 L 2.578125 -6.578125 L 2.265625 -3.984375 Z M 3.5 -7.640625 C 3.945312 -7.640625 4.328125 -7.59375 4.640625 -7.5 C 4.953125 -7.40625 5.207031 -7.273438 5.40625 -7.109375 C 5.613281 -6.941406 5.765625 -6.738281 5.859375 -6.5 C 5.953125 -6.269531 6 -6.015625 6 -5.734375 C 6 -5.441406 5.957031 -5.164062 5.875 -4.90625 C 5.789062 -4.644531 5.671875 -4.410156 5.515625 -4.203125 C 5.359375 -3.992188 5.164062 -3.804688 4.9375 -3.640625 C 4.71875 -3.484375 4.46875 -3.363281 4.1875 -3.28125 C 4.257812 -3.226562 4.328125 -3.164062 4.390625 -3.09375 C 4.460938 -3.03125 4.523438 -2.945312 4.578125 -2.84375 L 5.9375 0 L 4.703125 0 C 4.472656 0 4.316406 -0.09375 4.234375 -0.28125 L 3.109375 -2.75 C 3.066406 -2.84375 3.015625 -2.910156 2.953125 -2.953125 C 2.898438 -2.992188 2.804688 -3.015625 2.671875 -3.015625 L 2.140625 -3.015625 L 1.765625 0 L 0.40625 0 L 1.34375 -7.640625 Z M 3.5 -7.640625 "/></g></g></g><g fill="#000000" fill-opacity="1"><g transform="translate(8.245147, 22.122685)"><g><path d="M 4.5 -2.875 L 3.984375 -5.484375 C 3.960938 -5.609375 3.9375 -5.75 3.90625 -5.90625 C 3.875 -6.0625 3.847656 -6.234375 3.828125 -6.421875 C 3.753906 -6.234375 3.679688 -6.0625 3.609375 -5.90625 C 3.546875 -5.75 3.488281 -5.609375 3.4375 -5.484375 L 2.28125 -2.875 Z M 6.484375 0 L 5.421875 0 C 5.304688 0 5.210938 -0.0234375 5.140625 -0.078125 C 5.078125 -0.140625 5.035156 -0.21875 5.015625 -0.3125 L 4.6875 -1.90625 L 1.84375 -1.90625 L 1.140625 -0.3125 C 1.097656 -0.226562 1.035156 -0.15625 0.953125 -0.09375 C 0.867188 -0.03125 0.769531 0 0.65625 0 L -0.421875 0 L 3.265625 -7.640625 L 4.671875 -7.640625 Z M 6.484375 0 "/></g></g></g><g fill="#000000" fill-opacity="1"><g transform="translate(15.564309, 22.122685)"><g><path d="M 3.1875 -3.765625 C 3.457031 -3.765625 3.691406 -3.804688 3.890625 -3.890625 C 4.085938 -3.972656 4.25 -4.085938 4.375 -4.234375 C 4.507812 -4.378906 4.609375 -4.550781 4.671875 -4.75 C 4.734375 -4.945312 4.765625 -5.171875 4.765625 -5.421875 C 4.765625 -5.585938 4.738281 -5.742188 4.6875 -5.890625 C 4.632812 -6.035156 4.554688 -6.15625 4.453125 -6.25 C 4.347656 -6.351562 4.21875 -6.429688 4.0625 -6.484375 C 3.914062 -6.546875 3.738281 -6.578125 3.53125 -6.578125 L 2.578125 -6.578125 L 2.234375 -3.765625 Z M 3.65625 -7.640625 C 4.09375 -7.640625 4.46875 -7.585938 4.78125 -7.484375 C 5.09375 -7.378906 5.347656 -7.234375 5.546875 -7.046875 C 5.742188 -6.859375 5.890625 -6.632812 5.984375 -6.375 C 6.085938 -6.125 6.140625 -5.847656 6.140625 -5.546875 C 6.140625 -5.128906 6.070312 -4.75 5.9375 -4.40625 C 5.8125 -4.0625 5.617188 -3.757812 5.359375 -3.5 C 5.109375 -3.25 4.789062 -3.050781 4.40625 -2.90625 C 4.019531 -2.769531 3.566406 -2.703125 3.046875 -2.703125 L 2.109375 -2.703125 L 1.765625 0 L 0.40625 0 L 1.34375 -7.640625 Z M 3.65625 -7.640625 "/></g></g></g><g fill="#000000" fill-opacity="1"><g transform="translate(22.154767, 22.122685)"><g><path d="M 1.78125 0 L 0.40625 0 L 1.34375 -7.640625 L 2.71875 -7.640625 Z M 1.78125 0 "/></g></g></g><g fill="#000000" fill-opacity="1"><g transform="translate(25.587504, 22.122685)"><g><path d="M 7.1875 -4.328125 C 7.1875 -3.691406 7.082031 -3.109375 6.875 -2.578125 C 6.675781 -2.046875 6.394531 -1.585938 6.03125 -1.203125 C 5.664062 -0.828125 5.234375 -0.53125 4.734375 -0.3125 C 4.234375 -0.101562 3.6875 0 3.09375 0 L 0.40625 0 L 1.34375 -7.640625 L 4.046875 -7.640625 C 4.523438 -7.640625 4.957031 -7.554688 5.34375 -7.390625 C 5.738281 -7.222656 6.070312 -6.992188 6.34375 -6.703125 C 6.613281 -6.410156 6.820312 -6.0625 6.96875 -5.65625 C 7.113281 -5.25 7.1875 -4.804688 7.1875 -4.328125 Z M 5.78125 -4.296875 C 5.78125 -4.640625 5.738281 -4.945312 5.65625 -5.21875 C 5.570312 -5.5 5.445312 -5.738281 5.28125 -5.9375 C 5.125 -6.132812 4.929688 -6.285156 4.703125 -6.390625 C 4.472656 -6.492188 4.207031 -6.546875 3.90625 -6.546875 L 2.59375 -6.546875 L 1.921875 -1.09375 L 3.234375 -1.09375 C 3.617188 -1.09375 3.96875 -1.164062 4.28125 -1.3125 C 4.59375 -1.457031 4.859375 -1.664062 5.078125 -1.9375 C 5.304688 -2.21875 5.476562 -2.554688 5.59375 -2.953125 C 5.71875 -3.347656 5.78125 -3.796875 5.78125 -4.296875 Z M 5.78125 -4.296875 "/></g></g></g></g></g></g></svg>