<svg xmlns="http://www.w3.org/2000/svg" xmlns:xlink="http://www.w3.org/1999/xlink" width="178" zoomAndPan="magnify" viewBox="0 0 133.5 30.000001" height="40" preserveAspectRatio="xMidYMid meet" version="1.0"><defs><g/><clipPath id="96c7c0dcfa"><path d="M 1.910156 0 L 131.105469 0 L 131.105469 29.03125 L 1.910156 29.03125 Z M 1.910156 0 " clip-rule="nonzero"/></clipPath><clipPath id="aa3f1b32d0"><rect x="0" width="110" y="0" height="17"/></clipPath></defs><g clip-path="url(#96c7c0dcfa)"><path fill="#ffffff" d="M 1.910156 0 L 131.105469 0 L 131.105469 29.03125 L 1.910156 29.03125 Z M 1.910156 0 " fill-opacity="1" fill-rule="nonzero"/><path fill="#09090b" d="M 1.910156 0 L 131.105469 0 L 131.105469 29.03125 L 1.910156 29.03125 Z M 1.910156 0 " fill-opacity="1" fill-rule="nonzero"/></g><g transform="matrix(1, 0, 0, 1, 12, 6)"><g clip-path="url(#aa3f1b32d0)"><g fill="#ffffff" fill-opacity="1"><g transform="translate(0.681836, 13.433723)"><g><path d="M 8.859375 -5.34375 C 8.859375 -4.5625 8.734375 -3.84375 8.484375 -3.1875 C 8.234375 -2.53125 7.878906 -1.960938 7.421875 -1.484375 C 6.972656 -1.015625 6.441406 -0.648438 5.828125 -0.390625 C 5.210938 -0.128906 4.539062 0 3.8125 0 L 0.5 0 L 1.65625 -9.40625 L 4.984375 -9.40625 C 5.578125 -9.40625 6.113281 -9.300781 6.59375 -9.09375 C 7.070312 -8.894531 7.476562 -8.613281 7.8125 -8.25 C 8.144531 -7.894531 8.398438 -7.46875 8.578125 -6.96875 C 8.765625 -6.46875 8.859375 -5.925781 8.859375 -5.34375 Z M 7.125 -5.296875 C 7.125 -5.710938 7.070312 -6.09375 6.96875 -6.4375 C 6.863281 -6.78125 6.710938 -7.070312 6.515625 -7.3125 C 6.316406 -7.550781 6.070312 -7.734375 5.78125 -7.859375 C 5.5 -7.992188 5.175781 -8.0625 4.8125 -8.0625 L 3.203125 -8.0625 L 2.359375 -1.34375 L 3.984375 -1.34375 C 4.453125 -1.34375 4.878906 -1.429688 5.265625 -1.609375 C 5.648438 -1.796875 5.976562 -2.0625 6.25 -2.40625 C 6.53125 -2.75 6.742188 -3.160156 6.890625 -3.640625 C 7.046875 -4.128906 7.125 -4.679688 7.125 -5.296875 Z M 7.125 -5.296875 "/></g></g></g><g fill="#ffffff" fill-opacity="1"><g transform="translate(10.455008, 13.433723)"><g><path d="M 2.203125 0 L 0.5 0 L 1.640625 -9.40625 L 3.34375 -9.40625 Z M 2.203125 0 "/></g></g></g><g fill="#ffffff" fill-opacity="1"><g transform="translate(14.684456, 13.433723)"><g><path d="M 6.125 -7.71875 C 6.0625 -7.632812 6 -7.570312 5.9375 -7.53125 C 5.882812 -7.488281 5.816406 -7.46875 5.734375 -7.46875 C 5.640625 -7.46875 5.546875 -7.5 5.453125 -7.5625 C 5.367188 -7.632812 5.265625 -7.710938 5.140625 -7.796875 C 5.015625 -7.878906 4.863281 -7.957031 4.6875 -8.03125 C 4.507812 -8.101562 4.300781 -8.140625 4.0625 -8.140625 C 3.820312 -8.140625 3.609375 -8.101562 3.421875 -8.03125 C 3.242188 -7.957031 3.09375 -7.859375 2.96875 -7.734375 C 2.851562 -7.617188 2.765625 -7.476562 2.703125 -7.3125 C 2.640625 -7.144531 2.609375 -6.96875 2.609375 -6.78125 C 2.609375 -6.582031 2.65625 -6.414062 2.75 -6.28125 C 2.851562 -6.144531 2.988281 -6.023438 3.15625 -5.921875 C 3.320312 -5.828125 3.507812 -5.738281 3.71875 -5.65625 C 3.9375 -5.582031 4.15625 -5.503906 4.375 -5.421875 C 4.59375 -5.335938 4.804688 -5.238281 5.015625 -5.125 C 5.234375 -5.007812 5.421875 -4.867188 5.578125 -4.703125 C 5.742188 -4.535156 5.878906 -4.335938 5.984375 -4.109375 C 6.085938 -3.878906 6.140625 -3.597656 6.140625 -3.265625 C 6.140625 -2.804688 6.054688 -2.375 5.890625 -1.96875 C 5.734375 -1.5625 5.503906 -1.203125 5.203125 -0.890625 C 4.910156 -0.585938 4.550781 -0.34375 4.125 -0.15625 C 3.707031 0.0195312 3.234375 0.109375 2.703125 0.109375 C 2.429688 0.109375 2.160156 0.078125 1.890625 0.015625 C 1.628906 -0.046875 1.378906 -0.128906 1.140625 -0.234375 C 0.910156 -0.335938 0.695312 -0.46875 0.5 -0.625 C 0.300781 -0.78125 0.128906 -0.945312 -0.015625 -1.125 L 0.578125 -1.9375 C 0.628906 -2 0.691406 -2.046875 0.765625 -2.078125 C 0.835938 -2.117188 0.910156 -2.140625 0.984375 -2.140625 C 1.054688 -2.140625 1.125 -2.117188 1.1875 -2.078125 C 1.25 -2.035156 1.320312 -1.984375 1.40625 -1.921875 C 1.488281 -1.859375 1.578125 -1.785156 1.671875 -1.703125 C 1.765625 -1.628906 1.867188 -1.5625 1.984375 -1.5 C 2.109375 -1.4375 2.242188 -1.382812 2.390625 -1.34375 C 2.546875 -1.300781 2.722656 -1.28125 2.921875 -1.28125 C 3.410156 -1.28125 3.796875 -1.414062 4.078125 -1.6875 C 4.359375 -1.96875 4.5 -2.351562 4.5 -2.84375 C 4.5 -3.0625 4.445312 -3.238281 4.34375 -3.375 C 4.25 -3.519531 4.117188 -3.640625 3.953125 -3.734375 C 3.785156 -3.828125 3.597656 -3.910156 3.390625 -3.984375 C 3.179688 -4.054688 2.96875 -4.128906 2.75 -4.203125 C 2.53125 -4.285156 2.316406 -4.378906 2.109375 -4.484375 C 1.898438 -4.597656 1.710938 -4.738281 1.546875 -4.90625 C 1.378906 -5.070312 1.242188 -5.273438 1.140625 -5.515625 C 1.046875 -5.765625 1 -6.066406 1 -6.421875 C 1 -6.816406 1.070312 -7.203125 1.21875 -7.578125 C 1.363281 -7.953125 1.578125 -8.28125 1.859375 -8.5625 C 2.140625 -8.851562 2.476562 -9.082031 2.875 -9.25 C 3.269531 -9.425781 3.71875 -9.515625 4.21875 -9.515625 C 4.476562 -9.515625 4.722656 -9.488281 4.953125 -9.4375 C 5.191406 -9.382812 5.410156 -9.304688 5.609375 -9.203125 C 5.816406 -9.109375 6.003906 -8.992188 6.171875 -8.859375 C 6.347656 -8.734375 6.5 -8.585938 6.625 -8.421875 Z M 6.125 -7.71875 "/></g></g></g><g fill="#ffffff" fill-opacity="1"><g transform="translate(21.952541, 13.433723)"><g><path d="M 3.9375 -4.640625 C 4.269531 -4.640625 4.554688 -4.691406 4.796875 -4.796875 C 5.035156 -4.898438 5.234375 -5.039062 5.390625 -5.21875 C 5.554688 -5.394531 5.675781 -5.609375 5.75 -5.859375 C 5.820312 -6.109375 5.859375 -6.378906 5.859375 -6.671875 C 5.859375 -6.890625 5.828125 -7.085938 5.765625 -7.265625 C 5.710938 -7.441406 5.617188 -7.59375 5.484375 -7.71875 C 5.359375 -7.84375 5.203125 -7.9375 5.015625 -8 C 4.828125 -8.070312 4.601562 -8.109375 4.34375 -8.109375 L 3.171875 -8.109375 L 2.75 -4.640625 Z M 4.515625 -9.40625 C 5.046875 -9.40625 5.503906 -9.34375 5.890625 -9.21875 C 6.273438 -9.09375 6.585938 -8.914062 6.828125 -8.6875 C 7.078125 -8.457031 7.257812 -8.179688 7.375 -7.859375 C 7.5 -7.546875 7.5625 -7.203125 7.5625 -6.828125 C 7.5625 -6.328125 7.484375 -5.863281 7.328125 -5.4375 C 7.171875 -5.007812 6.929688 -4.640625 6.609375 -4.328125 C 6.296875 -4.015625 5.898438 -3.769531 5.421875 -3.59375 C 4.953125 -3.414062 4.398438 -3.328125 3.765625 -3.328125 L 2.59375 -3.328125 L 2.1875 0 L 0.5 0 L 1.640625 -9.40625 Z M 4.515625 -9.40625 "/></g></g></g><g fill="#ffffff" fill-opacity="1"><g transform="translate(30.073007, 13.433723)"><g><path d="M 9.453125 -5.34375 C 9.453125 -4.820312 9.394531 -4.320312 9.28125 -3.84375 C 9.164062 -3.375 9 -2.9375 8.78125 -2.53125 C 8.570312 -2.132812 8.316406 -1.769531 8.015625 -1.4375 C 7.710938 -1.113281 7.375 -0.835938 7 -0.609375 C 6.625 -0.378906 6.21875 -0.203125 5.78125 -0.078125 C 5.34375 0.046875 4.882812 0.109375 4.40625 0.109375 C 3.800781 0.109375 3.257812 0.00390625 2.78125 -0.203125 C 2.300781 -0.421875 1.894531 -0.71875 1.5625 -1.09375 C 1.226562 -1.46875 0.972656 -1.90625 0.796875 -2.40625 C 0.617188 -2.914062 0.53125 -3.46875 0.53125 -4.0625 C 0.53125 -4.582031 0.585938 -5.078125 0.703125 -5.546875 C 0.816406 -6.023438 0.976562 -6.460938 1.1875 -6.859375 C 1.40625 -7.265625 1.664062 -7.628906 1.96875 -7.953125 C 2.269531 -8.285156 2.609375 -8.566406 2.984375 -8.796875 C 3.359375 -9.023438 3.765625 -9.203125 4.203125 -9.328125 C 4.640625 -9.453125 5.101562 -9.515625 5.59375 -9.515625 C 6.1875 -9.515625 6.722656 -9.40625 7.203125 -9.1875 C 7.679688 -8.976562 8.085938 -8.6875 8.421875 -8.3125 C 8.753906 -7.9375 9.007812 -7.492188 9.1875 -6.984375 C 9.363281 -6.484375 9.453125 -5.9375 9.453125 -5.34375 Z M 7.71875 -5.296875 C 7.71875 -5.722656 7.664062 -6.109375 7.5625 -6.453125 C 7.457031 -6.796875 7.300781 -7.09375 7.09375 -7.34375 C 6.894531 -7.59375 6.648438 -7.785156 6.359375 -7.921875 C 6.066406 -8.054688 5.738281 -8.125 5.375 -8.125 C 4.90625 -8.125 4.476562 -8.023438 4.09375 -7.828125 C 3.71875 -7.640625 3.390625 -7.367188 3.109375 -7.015625 C 2.835938 -6.671875 2.628906 -6.25 2.484375 -5.75 C 2.335938 -5.257812 2.265625 -4.710938 2.265625 -4.109375 C 2.265625 -3.679688 2.316406 -3.289062 2.421875 -2.9375 C 2.523438 -2.59375 2.675781 -2.296875 2.875 -2.046875 C 3.070312 -1.804688 3.3125 -1.617188 3.59375 -1.484375 C 3.882812 -1.359375 4.21875 -1.296875 4.59375 -1.296875 C 5.0625 -1.296875 5.488281 -1.390625 5.875 -1.578125 C 6.257812 -1.773438 6.585938 -2.046875 6.859375 -2.390625 C 7.140625 -2.734375 7.351562 -3.148438 7.5 -3.640625 C 7.644531 -4.140625 7.71875 -4.691406 7.71875 -5.296875 Z M 7.71875 -5.296875 "/></g></g></g><g fill="#ffffff" fill-opacity="1"><g transform="translate(40.43178, 13.433723)"><g><path d="M 9.015625 -9.40625 L 7.859375 0 L 6.984375 0 C 6.859375 0 6.753906 -0.0195312 6.671875 -0.0625 C 6.585938 -0.113281 6.507812 -0.191406 6.4375 -0.296875 L 2.78125 -6.71875 C 2.769531 -6.613281 2.757812 -6.507812 2.75 -6.40625 C 2.75 -6.3125 2.742188 -6.222656 2.734375 -6.140625 L 1.984375 0 L 0.5 0 L 1.65625 -9.40625 L 2.546875 -9.40625 C 2.617188 -9.40625 2.679688 -9.398438 2.734375 -9.390625 C 2.785156 -9.390625 2.828125 -9.378906 2.859375 -9.359375 C 2.898438 -9.335938 2.9375 -9.3125 2.96875 -9.28125 C 3 -9.25 3.03125 -9.203125 3.0625 -9.140625 L 6.734375 -2.71875 C 6.734375 -2.84375 6.738281 -2.960938 6.75 -3.078125 C 6.769531 -3.203125 6.785156 -3.316406 6.796875 -3.421875 L 7.53125 -9.40625 Z M 9.015625 -9.40625 "/></g></g></g><g fill="#ffffff" fill-opacity="1"><g transform="translate(50.32858, 13.433723)"><g><path d="M 2.203125 0 L 0.5 0 L 1.640625 -9.40625 L 3.34375 -9.40625 Z M 2.203125 0 "/></g></g></g><g fill="#ffffff" fill-opacity="1"><g transform="translate(54.558028, 13.433723)"><g><path d="M 3.953125 -1.3125 C 4.253906 -1.3125 4.515625 -1.351562 4.734375 -1.4375 C 4.953125 -1.519531 5.128906 -1.632812 5.265625 -1.78125 C 5.398438 -1.9375 5.5 -2.117188 5.5625 -2.328125 C 5.632812 -2.535156 5.671875 -2.765625 5.671875 -3.015625 C 5.671875 -3.359375 5.5625 -3.628906 5.34375 -3.828125 C 5.132812 -4.035156 4.78125 -4.140625 4.28125 -4.140625 L 2.6875 -4.140625 L 2.34375 -1.3125 Z M 3.1875 -8.109375 L 2.84375 -5.3125 L 4.09375 -5.3125 C 4.664062 -5.3125 5.109375 -5.445312 5.421875 -5.71875 C 5.742188 -5.988281 5.90625 -6.40625 5.90625 -6.96875 C 5.90625 -7.363281 5.789062 -7.648438 5.5625 -7.828125 C 5.34375 -8.015625 4.992188 -8.109375 4.515625 -8.109375 Z M 4.671875 -9.40625 C 5.191406 -9.40625 5.640625 -9.351562 6.015625 -9.25 C 6.390625 -9.15625 6.691406 -9.015625 6.921875 -8.828125 C 7.160156 -8.640625 7.335938 -8.410156 7.453125 -8.140625 C 7.566406 -7.878906 7.625 -7.585938 7.625 -7.265625 C 7.625 -6.992188 7.585938 -6.734375 7.515625 -6.484375 C 7.441406 -6.242188 7.328125 -6.019531 7.171875 -5.8125 C 7.023438 -5.601562 6.832031 -5.414062 6.59375 -5.25 C 6.363281 -5.082031 6.085938 -4.945312 5.765625 -4.84375 C 6.296875 -4.707031 6.691406 -4.488281 6.953125 -4.1875 C 7.210938 -3.882812 7.34375 -3.503906 7.34375 -3.046875 C 7.34375 -2.609375 7.257812 -2.203125 7.09375 -1.828125 C 6.9375 -1.460938 6.707031 -1.144531 6.40625 -0.875 C 6.101562 -0.601562 5.734375 -0.390625 5.296875 -0.234375 C 4.859375 -0.078125 4.363281 0 3.8125 0 L 0.5 0 L 1.65625 -9.40625 Z M 4.671875 -9.40625 "/></g></g></g><g fill="#ffffff" fill-opacity="1"><g transform="translate(63.107937, 13.433723)"><g><path d="M 2.203125 0 L 0.5 0 L 1.640625 -9.40625 L 3.34375 -9.40625 Z M 2.203125 0 "/></g></g></g><g fill="#ffffff" fill-opacity="1"><g transform="translate(67.337385, 13.433723)"><g><path d="M 5.78125 -1.40625 L 5.609375 0 L 0.5 0 L 1.65625 -9.40625 L 3.34375 -9.40625 L 2.359375 -1.40625 Z M 5.78125 -1.40625 "/></g></g></g><g fill="#ffffff" fill-opacity="1"><g transform="translate(74.182533, 13.433723)"><g><path d="M 2.203125 0 L 0.5 0 L 1.640625 -9.40625 L 3.34375 -9.40625 Z M 2.203125 0 "/></g></g></g><g fill="#ffffff" fill-opacity="1"><g transform="translate(78.411981, 13.433723)"><g><path d="M 7.53125 -8.03125 L 4.96875 -8.03125 L 3.96875 0 L 2.296875 0 L 3.28125 -8.03125 L 0.6875 -8.03125 L 0.859375 -9.40625 L 7.71875 -9.40625 Z M 7.53125 -8.03125 "/></g></g></g><g fill="#ffffff" fill-opacity="1"><g transform="translate(85.406675, 13.433723)"><g><path d="M 5.546875 -3.546875 L 4.90625 -6.765625 C 4.882812 -6.910156 4.851562 -7.078125 4.8125 -7.265625 C 4.78125 -7.460938 4.75 -7.675781 4.71875 -7.90625 C 4.625 -7.675781 4.535156 -7.460938 4.453125 -7.265625 C 4.367188 -7.078125 4.296875 -6.90625 4.234375 -6.75 L 2.8125 -3.546875 Z M 8 0 L 6.6875 0 C 6.539062 0 6.425781 -0.0351562 6.34375 -0.109375 C 6.269531 -0.179688 6.210938 -0.273438 6.171875 -0.390625 L 5.78125 -2.34375 L 2.28125 -2.34375 L 1.40625 -0.390625 C 1.351562 -0.285156 1.273438 -0.191406 1.171875 -0.109375 C 1.066406 -0.0351562 0.945312 0 0.8125 0 L -0.515625 0 L 4.03125 -9.40625 L 5.75 -9.40625 Z M 8 0 "/></g></g></g><g fill="#ffffff" fill-opacity="1"><g transform="translate(93.540031, 13.433723)"><g><path d="M 7.53125 -8.03125 L 4.96875 -8.03125 L 3.96875 0 L 2.296875 0 L 3.28125 -8.03125 L 0.6875 -8.03125 L 0.859375 -9.40625 L 7.71875 -9.40625 Z M 7.53125 -8.03125 "/></g></g></g><g fill="#ffffff" fill-opacity="1"><g transform="translate(101.348174, 13.433723)"><g><path d="M 3.203125 -8.0625 L 2.859375 -5.390625 L 5.84375 -5.390625 L 5.671875 -4.09375 L 2.703125 -4.09375 L 2.359375 -1.34375 L 6.15625 -1.34375 L 6 0 L 0.5 0 L 1.65625 -9.40625 L 7.140625 -9.40625 L 6.96875 -8.0625 Z M 3.203125 -8.0625 "/></g></g></g></g></g></svg>