<svg xmlns="http://www.w3.org/2000/svg" xmlns:xlink="http://www.w3.org/1999/xlink" width="171" zoomAndPan="magnify" viewBox="0 0 128.25 30.000001" height="40" preserveAspectRatio="xMidYMid meet" version="1.0"><defs><g/><clipPath id="b81b438257"><path d="M 1.707031 0 L 125.820312 0 L 125.820312 29.03125 L 1.707031 29.03125 Z M 1.707031 0 " clip-rule="nonzero"/></clipPath><clipPath id="1d4c544cc7"><path d="M 0.390625 3 L 8 3 L 8 10 L 0.390625 10 Z M 0.390625 3 " clip-rule="nonzero"/></clipPath><clipPath id="00bd48114c"><rect x="0" width="104" y="0" height="21"/></clipPath></defs><g clip-path="url(#b81b438257)"><path fill="#ffffff" d="M 1.707031 0 L 125.820312 0 L 125.820312 29.03125 L 1.707031 29.03125 Z M 1.707031 0 " fill-opacity="1" fill-rule="nonzero"/><path fill="#edecec" d="M 1.707031 0 L 125.820312 0 L 125.820312 29.03125 L 1.707031 29.03125 Z M 1.707031 0 " fill-opacity="1" fill-rule="nonzero"/></g><g transform="matrix(1, 0, 0, 1, 12, 4)"><g clip-path="url(#00bd48114c)"><g clip-path="url(#1d4c544cc7)"><g fill="#000000" fill-opacity="1"><g transform="translate(0.481507, 9.094476)"><g><path d="M 7.078125 -5.984375 L 6.34375 0 L 5.390625 0 L 5.875 -3.90625 C 5.882812 -3.976562 5.894531 -4.050781 5.90625 -4.125 C 5.925781 -4.207031 5.945312 -4.296875 5.96875 -4.390625 L 3.90625 -0.984375 C 3.863281 -0.898438 3.804688 -0.835938 3.734375 -0.796875 C 3.660156 -0.765625 3.582031 -0.75 3.5 -0.75 L 3.359375 -0.75 C 3.273438 -0.75 3.203125 -0.765625 3.140625 -0.796875 C 3.078125 -0.835938 3.03125 -0.898438 3 -0.984375 L 1.765625 -4.390625 C 1.765625 -4.304688 1.757812 -4.222656 1.75 -4.140625 C 1.75 -4.054688 1.742188 -3.984375 1.734375 -3.921875 L 1.265625 0 L 0.3125 0 L 1.0625 -5.984375 L 1.859375 -5.984375 C 1.910156 -5.984375 1.953125 -5.976562 1.984375 -5.96875 C 2.015625 -5.96875 2.039062 -5.960938 2.0625 -5.953125 C 2.09375 -5.941406 2.117188 -5.925781 2.140625 -5.90625 C 2.160156 -5.882812 2.179688 -5.851562 2.203125 -5.8125 L 3.4375 -2.390625 C 3.488281 -2.242188 3.53125 -2.097656 3.5625 -1.953125 C 3.601562 -2.023438 3.640625 -2.097656 3.671875 -2.171875 C 3.710938 -2.242188 3.753906 -2.316406 3.796875 -2.390625 L 5.875 -5.8125 C 5.90625 -5.851562 5.9375 -5.882812 5.96875 -5.90625 C 6 -5.925781 6.023438 -5.941406 6.046875 -5.953125 C 6.078125 -5.960938 6.109375 -5.96875 6.140625 -5.96875 C 6.171875 -5.976562 6.210938 -5.984375 6.265625 -5.984375 Z M 7.078125 -5.984375 "/></g></g></g></g><g fill="#000000" fill-opacity="1"><g transform="translate(8.112661, 9.094476)"><g><path d="M 3.53125 -2.25 L 3.125 -4.296875 C 3.101562 -4.390625 3.082031 -4.5 3.0625 -4.625 C 3.039062 -4.75 3.019531 -4.882812 3 -5.03125 C 2.945312 -4.882812 2.890625 -4.75 2.828125 -4.625 C 2.773438 -4.5 2.734375 -4.390625 2.703125 -4.296875 L 1.78125 -2.25 Z M 5.09375 0 L 4.25 0 C 4.15625 0 4.082031 -0.0195312 4.03125 -0.0625 C 3.988281 -0.113281 3.953125 -0.175781 3.921875 -0.25 L 3.6875 -1.5 L 1.453125 -1.5 L 0.890625 -0.25 C 0.859375 -0.1875 0.804688 -0.128906 0.734375 -0.078125 C 0.671875 -0.0234375 0.597656 0 0.515625 0 L -0.328125 0 L 2.5625 -5.984375 L 3.65625 -5.984375 Z M 5.09375 0 "/></g></g></g><g fill="#000000" fill-opacity="1"><g transform="translate(13.848454, 9.094476)"><g><path d="M 1.40625 0 L 0.3125 0 L 1.046875 -5.984375 L 2.125 -5.984375 Z M 1.40625 0 "/></g></g></g><g fill="#000000" fill-opacity="1"><g transform="translate(16.538428, 9.094476)"><g/></g></g><g fill="#000000" fill-opacity="1"><g transform="translate(18.706971, 9.094476)"><g><path d="M 7.078125 -5.984375 L 6.34375 0 L 5.390625 0 L 5.875 -3.90625 C 5.882812 -3.976562 5.894531 -4.050781 5.90625 -4.125 C 5.925781 -4.207031 5.945312 -4.296875 5.96875 -4.390625 L 3.90625 -0.984375 C 3.863281 -0.898438 3.804688 -0.835938 3.734375 -0.796875 C 3.660156 -0.765625 3.582031 -0.75 3.5 -0.75 L 3.359375 -0.75 C 3.273438 -0.75 3.203125 -0.765625 3.140625 -0.796875 C 3.078125 -0.835938 3.03125 -0.898438 3 -0.984375 L 1.765625 -4.390625 C 1.765625 -4.304688 1.757812 -4.222656 1.75 -4.140625 C 1.75 -4.054688 1.742188 -3.984375 1.734375 -3.921875 L 1.265625 0 L 0.3125 0 L 1.0625 -5.984375 L 1.859375 -5.984375 C 1.910156 -5.984375 1.953125 -5.976562 1.984375 -5.96875 C 2.015625 -5.96875 2.039062 -5.960938 2.0625 -5.953125 C 2.09375 -5.941406 2.117188 -5.925781 2.140625 -5.90625 C 2.160156 -5.882812 2.179688 -5.851562 2.203125 -5.8125 L 3.4375 -2.390625 C 3.488281 -2.242188 3.53125 -2.097656 3.5625 -1.953125 C 3.601562 -2.023438 3.640625 -2.097656 3.671875 -2.171875 C 3.710938 -2.242188 3.753906 -2.316406 3.796875 -2.390625 L 5.875 -5.8125 C 5.90625 -5.851562 5.9375 -5.882812 5.96875 -5.90625 C 6 -5.925781 6.023438 -5.941406 6.046875 -5.953125 C 6.078125 -5.960938 6.109375 -5.96875 6.140625 -5.96875 C 6.171875 -5.976562 6.210938 -5.984375 6.265625 -5.984375 Z M 7.078125 -5.984375 "/></g></g></g><g fill="#000000" fill-opacity="1"><g transform="translate(26.338123, 9.094476)"><g><path d="M 2.65625 -0.859375 C 2.851562 -0.859375 3.03125 -0.894531 3.1875 -0.96875 C 3.351562 -1.039062 3.492188 -1.144531 3.609375 -1.28125 C 3.734375 -1.414062 3.832031 -1.578125 3.90625 -1.765625 C 3.988281 -1.953125 4.046875 -2.160156 4.078125 -2.390625 L 4.515625 -5.984375 L 5.59375 -5.984375 L 5.140625 -2.390625 C 5.097656 -2.035156 5.003906 -1.707031 4.859375 -1.40625 C 4.722656 -1.101562 4.539062 -0.84375 4.3125 -0.625 C 4.082031 -0.40625 3.816406 -0.234375 3.515625 -0.109375 C 3.222656 0.00390625 2.898438 0.0625 2.546875 0.0625 C 2.191406 0.0625 1.878906 0.00390625 1.609375 -0.109375 C 1.335938 -0.234375 1.113281 -0.40625 0.9375 -0.625 C 0.769531 -0.84375 0.648438 -1.101562 0.578125 -1.40625 C 0.515625 -1.707031 0.503906 -2.035156 0.546875 -2.390625 L 0.984375 -5.984375 L 2.046875 -5.984375 L 1.609375 -2.390625 C 1.585938 -2.160156 1.59375 -1.953125 1.625 -1.765625 C 1.65625 -1.578125 1.710938 -1.414062 1.796875 -1.28125 C 1.890625 -1.144531 2.003906 -1.039062 2.140625 -0.96875 C 2.285156 -0.894531 2.457031 -0.859375 2.65625 -0.859375 Z M 2.65625 -0.859375 "/></g></g></g><g fill="#000000" fill-opacity="1"><g transform="translate(32.417399, 9.094476)"><g><path d="M 3.671875 -0.890625 L 3.578125 0 L 0.3125 0 L 1.0625 -5.984375 L 2.125 -5.984375 L 1.5 -0.890625 Z M 3.671875 -0.890625 "/></g></g></g><g fill="#000000" fill-opacity="1"><g transform="translate(36.079789, 9.094476)"><g><path d="M 4.796875 -5.109375 L 3.15625 -5.109375 L 2.53125 0 L 1.46875 0 L 2.078125 -5.109375 L 0.4375 -5.109375 L 0.546875 -5.984375 L 4.90625 -5.984375 Z M 4.796875 -5.109375 "/></g></g></g><g fill="#000000" fill-opacity="1"><g transform="translate(41.045852, 9.094476)"><g><path d="M 2.03125 -5.125 L 1.828125 -3.421875 L 3.71875 -3.421875 L 3.609375 -2.609375 L 1.71875 -2.609375 L 1.5 -0.859375 L 3.921875 -0.859375 L 3.8125 0 L 0.3125 0 L 1.0625 -5.984375 L 4.546875 -5.984375 L 4.4375 -5.125 Z M 2.03125 -5.125 "/></g></g></g><g fill="#000000" fill-opacity="1"><g transform="translate(45.842242, 9.094476)"><g/></g></g><g fill="#000000" fill-opacity="1"><g transform="translate(48.010784, 9.094476)"><g><path d="M 2.5 -2.953125 C 2.707031 -2.953125 2.890625 -2.984375 3.046875 -3.046875 C 3.203125 -3.109375 3.328125 -3.195312 3.421875 -3.3125 C 3.523438 -3.425781 3.601562 -3.5625 3.65625 -3.71875 C 3.707031 -3.882812 3.734375 -4.0625 3.734375 -4.25 C 3.734375 -4.382812 3.710938 -4.507812 3.671875 -4.625 C 3.628906 -4.738281 3.566406 -4.832031 3.484375 -4.90625 C 3.410156 -4.988281 3.3125 -5.050781 3.1875 -5.09375 C 3.070312 -5.132812 2.929688 -5.15625 2.765625 -5.15625 L 2.015625 -5.15625 L 1.75 -2.953125 Z M 2.875 -5.984375 C 3.207031 -5.984375 3.492188 -5.941406 3.734375 -5.859375 C 3.984375 -5.785156 4.1875 -5.671875 4.34375 -5.515625 C 4.5 -5.367188 4.613281 -5.195312 4.6875 -5 C 4.769531 -4.800781 4.8125 -4.582031 4.8125 -4.34375 C 4.8125 -4.019531 4.757812 -3.722656 4.65625 -3.453125 C 4.5625 -3.179688 4.410156 -2.945312 4.203125 -2.75 C 4.003906 -2.550781 3.753906 -2.394531 3.453125 -2.28125 C 3.148438 -2.175781 2.796875 -2.125 2.390625 -2.125 L 1.640625 -2.125 L 1.390625 0 L 0.3125 0 L 1.046875 -5.984375 Z M 2.875 -5.984375 "/></g></g></g><g fill="#000000" fill-opacity="1"><g transform="translate(53.175488, 9.094476)"><g><path d="M 2.390625 -3.125 C 2.609375 -3.125 2.796875 -3.15625 2.953125 -3.21875 C 3.109375 -3.28125 3.234375 -3.363281 3.328125 -3.46875 C 3.429688 -3.582031 3.507812 -3.710938 3.5625 -3.859375 C 3.613281 -4.003906 3.640625 -4.160156 3.640625 -4.328125 C 3.640625 -4.585938 3.554688 -4.789062 3.390625 -4.9375 C 3.234375 -5.082031 2.988281 -5.15625 2.65625 -5.15625 L 2.015625 -5.15625 L 1.765625 -3.125 Z M 2.75 -5.984375 C 3.09375 -5.984375 3.390625 -5.945312 3.640625 -5.875 C 3.890625 -5.800781 4.09375 -5.695312 4.25 -5.5625 C 4.40625 -5.4375 4.519531 -5.28125 4.59375 -5.09375 C 4.664062 -4.914062 4.703125 -4.71875 4.703125 -4.5 C 4.703125 -4.269531 4.671875 -4.050781 4.609375 -3.84375 C 4.546875 -3.644531 4.453125 -3.460938 4.328125 -3.296875 C 4.203125 -3.128906 4.050781 -2.984375 3.875 -2.859375 C 3.695312 -2.734375 3.5 -2.640625 3.28125 -2.578125 C 3.34375 -2.535156 3.398438 -2.484375 3.453125 -2.421875 C 3.503906 -2.367188 3.546875 -2.304688 3.578125 -2.234375 L 4.65625 0 L 3.6875 0 C 3.5 0 3.378906 -0.0703125 3.328125 -0.21875 L 2.4375 -2.15625 C 2.40625 -2.226562 2.363281 -2.28125 2.3125 -2.3125 C 2.269531 -2.34375 2.195312 -2.359375 2.09375 -2.359375 L 1.671875 -2.359375 L 1.390625 0 L 0.3125 0 L 1.046875 -5.984375 Z M 2.75 -5.984375 "/></g></g></g><g fill="#000000" fill-opacity="1"><g transform="translate(58.414671, 9.094476)"><g><path d="M 6.015625 -3.390625 C 6.015625 -3.054688 5.976562 -2.738281 5.90625 -2.4375 C 5.832031 -2.144531 5.726562 -1.867188 5.59375 -1.609375 C 5.457031 -1.359375 5.289062 -1.128906 5.09375 -0.921875 C 4.90625 -0.710938 4.691406 -0.535156 4.453125 -0.390625 C 4.210938 -0.242188 3.953125 -0.128906 3.671875 -0.046875 C 3.398438 0.0234375 3.109375 0.0625 2.796875 0.0625 C 2.421875 0.0625 2.078125 -0.00390625 1.765625 -0.140625 C 1.460938 -0.273438 1.203125 -0.457031 0.984375 -0.6875 C 0.773438 -0.925781 0.613281 -1.207031 0.5 -1.53125 C 0.382812 -1.851562 0.328125 -2.207031 0.328125 -2.59375 C 0.328125 -2.914062 0.363281 -3.226562 0.4375 -3.53125 C 0.519531 -3.832031 0.628906 -4.109375 0.765625 -4.359375 C 0.898438 -4.617188 1.0625 -4.851562 1.25 -5.0625 C 1.445312 -5.269531 1.660156 -5.445312 1.890625 -5.59375 C 2.128906 -5.738281 2.390625 -5.847656 2.671875 -5.921875 C 2.953125 -6.003906 3.25 -6.046875 3.5625 -6.046875 C 3.9375 -6.046875 4.273438 -5.976562 4.578125 -5.84375 C 4.890625 -5.707031 5.148438 -5.519531 5.359375 -5.28125 C 5.566406 -5.050781 5.726562 -4.773438 5.84375 -4.453125 C 5.957031 -4.128906 6.015625 -3.773438 6.015625 -3.390625 Z M 4.921875 -3.375 C 4.921875 -3.644531 4.882812 -3.890625 4.8125 -4.109375 C 4.75 -4.328125 4.648438 -4.515625 4.515625 -4.671875 C 4.390625 -4.828125 4.234375 -4.945312 4.046875 -5.03125 C 3.859375 -5.125 3.648438 -5.171875 3.421875 -5.171875 C 3.128906 -5.171875 2.859375 -5.109375 2.609375 -4.984375 C 2.367188 -4.859375 2.160156 -4.679688 1.984375 -4.453125 C 1.804688 -4.234375 1.671875 -3.96875 1.578125 -3.65625 C 1.484375 -3.34375 1.4375 -2.992188 1.4375 -2.609375 C 1.4375 -2.335938 1.46875 -2.09375 1.53125 -1.875 C 1.601562 -1.65625 1.703125 -1.46875 1.828125 -1.3125 C 1.953125 -1.15625 2.101562 -1.035156 2.28125 -0.953125 C 2.46875 -0.867188 2.679688 -0.828125 2.921875 -0.828125 C 3.222656 -0.828125 3.492188 -0.882812 3.734375 -1 C 3.984375 -1.125 4.191406 -1.296875 4.359375 -1.515625 C 4.535156 -1.734375 4.671875 -2 4.765625 -2.3125 C 4.867188 -2.632812 4.921875 -2.988281 4.921875 -3.375 Z M 4.921875 -3.375 "/></g></g></g><g fill="#000000" fill-opacity="1"><g transform="translate(65.002963, 9.094476)"><g><path d="M 3.390625 -2.984375 L 5.25 -2.984375 L 4.953125 -0.578125 C 4.648438 -0.359375 4.320312 -0.195312 3.96875 -0.09375 C 3.625 0.0078125 3.226562 0.0625 2.78125 0.0625 C 2.40625 0.0625 2.066406 0 1.765625 -0.125 C 1.472656 -0.257812 1.21875 -0.445312 1 -0.6875 C 0.789062 -0.925781 0.625 -1.207031 0.5 -1.53125 C 0.382812 -1.851562 0.328125 -2.207031 0.328125 -2.59375 C 0.328125 -2.925781 0.363281 -3.242188 0.4375 -3.546875 C 0.519531 -3.847656 0.628906 -4.125 0.765625 -4.375 C 0.898438 -4.632812 1.0625 -4.867188 1.25 -5.078125 C 1.445312 -5.285156 1.664062 -5.460938 1.90625 -5.609375 C 2.144531 -5.753906 2.398438 -5.863281 2.671875 -5.9375 C 2.953125 -6.007812 3.242188 -6.046875 3.546875 -6.046875 C 3.785156 -6.046875 4.003906 -6.023438 4.203125 -5.984375 C 4.398438 -5.941406 4.578125 -5.882812 4.734375 -5.8125 C 4.898438 -5.738281 5.046875 -5.648438 5.171875 -5.546875 C 5.296875 -5.453125 5.410156 -5.347656 5.515625 -5.234375 L 5.171875 -4.796875 C 5.109375 -4.710938 5.035156 -4.660156 4.953125 -4.640625 C 4.878906 -4.628906 4.800781 -4.648438 4.71875 -4.703125 C 4.632812 -4.753906 4.550781 -4.804688 4.46875 -4.859375 C 4.394531 -4.910156 4.3125 -4.957031 4.21875 -5 C 4.125 -5.039062 4.015625 -5.070312 3.890625 -5.09375 C 3.765625 -5.125 3.625 -5.140625 3.46875 -5.140625 C 3.164062 -5.140625 2.890625 -5.078125 2.640625 -4.953125 C 2.390625 -4.835938 2.175781 -4.664062 2 -4.4375 C 1.820312 -4.21875 1.679688 -3.953125 1.578125 -3.640625 C 1.484375 -3.335938 1.4375 -3 1.4375 -2.625 C 1.4375 -2.332031 1.472656 -2.070312 1.546875 -1.84375 C 1.617188 -1.625 1.71875 -1.4375 1.84375 -1.28125 C 1.976562 -1.125 2.140625 -1.003906 2.328125 -0.921875 C 2.515625 -0.835938 2.722656 -0.796875 2.953125 -0.796875 C 3.179688 -0.796875 3.378906 -0.816406 3.546875 -0.859375 C 3.722656 -0.898438 3.890625 -0.960938 4.046875 -1.046875 L 4.1875 -2.171875 L 3.515625 -2.171875 C 3.453125 -2.171875 3.398438 -2.191406 3.359375 -2.234375 C 3.328125 -2.273438 3.316406 -2.320312 3.328125 -2.375 Z M 3.390625 -2.984375 "/></g></g></g><g fill="#000000" fill-opacity="1"><g transform="translate(70.966365, 9.094476)"><g><path d="M 2.390625 -3.125 C 2.609375 -3.125 2.796875 -3.15625 2.953125 -3.21875 C 3.109375 -3.28125 3.234375 -3.363281 3.328125 -3.46875 C 3.429688 -3.582031 3.507812 -3.710938 3.5625 -3.859375 C 3.613281 -4.003906 3.640625 -4.160156 3.640625 -4.328125 C 3.640625 -4.585938 3.554688 -4.789062 3.390625 -4.9375 C 3.234375 -5.082031 2.988281 -5.15625 2.65625 -5.15625 L 2.015625 -5.15625 L 1.765625 -3.125 Z M 2.75 -5.984375 C 3.09375 -5.984375 3.390625 -5.945312 3.640625 -5.875 C 3.890625 -5.800781 4.09375 -5.695312 4.25 -5.5625 C 4.40625 -5.4375 4.519531 -5.28125 4.59375 -5.09375 C 4.664062 -4.914062 4.703125 -4.71875 4.703125 -4.5 C 4.703125 -4.269531 4.671875 -4.050781 4.609375 -3.84375 C 4.546875 -3.644531 4.453125 -3.460938 4.328125 -3.296875 C 4.203125 -3.128906 4.050781 -2.984375 3.875 -2.859375 C 3.695312 -2.734375 3.5 -2.640625 3.28125 -2.578125 C 3.34375 -2.535156 3.398438 -2.484375 3.453125 -2.421875 C 3.503906 -2.367188 3.546875 -2.304688 3.578125 -2.234375 L 4.65625 0 L 3.6875 0 C 3.5 0 3.378906 -0.0703125 3.328125 -0.21875 L 2.4375 -2.15625 C 2.40625 -2.226562 2.363281 -2.28125 2.3125 -2.3125 C 2.269531 -2.34375 2.195312 -2.359375 2.09375 -2.359375 L 1.671875 -2.359375 L 1.390625 0 L 0.3125 0 L 1.046875 -5.984375 Z M 2.75 -5.984375 "/></g></g></g><g fill="#000000" fill-opacity="1"><g transform="translate(76.284185, 9.094476)"><g><path d="M 3.53125 -2.25 L 3.125 -4.296875 C 3.101562 -4.390625 3.082031 -4.5 3.0625 -4.625 C 3.039062 -4.75 3.019531 -4.882812 3 -5.03125 C 2.945312 -4.882812 2.890625 -4.75 2.828125 -4.625 C 2.773438 -4.5 2.734375 -4.390625 2.703125 -4.296875 L 1.78125 -2.25 Z M 5.09375 0 L 4.25 0 C 4.15625 0 4.082031 -0.0195312 4.03125 -0.0625 C 3.988281 -0.113281 3.953125 -0.175781 3.921875 -0.25 L 3.6875 -1.5 L 1.453125 -1.5 L 0.890625 -0.25 C 0.859375 -0.1875 0.804688 -0.128906 0.734375 -0.078125 C 0.671875 -0.0234375 0.597656 0 0.515625 0 L -0.328125 0 L 2.5625 -5.984375 L 3.65625 -5.984375 Z M 5.09375 0 "/></g></g></g><g fill="#000000" fill-opacity="1"><g transform="translate(82.019975, 9.094476)"><g><path d="M 7.078125 -5.984375 L 6.34375 0 L 5.390625 0 L 5.875 -3.90625 C 5.882812 -3.976562 5.894531 -4.050781 5.90625 -4.125 C 5.925781 -4.207031 5.945312 -4.296875 5.96875 -4.390625 L 3.90625 -0.984375 C 3.863281 -0.898438 3.804688 -0.835938 3.734375 -0.796875 C 3.660156 -0.765625 3.582031 -0.75 3.5 -0.75 L 3.359375 -0.75 C 3.273438 -0.75 3.203125 -0.765625 3.140625 -0.796875 C 3.078125 -0.835938 3.03125 -0.898438 3 -0.984375 L 1.765625 -4.390625 C 1.765625 -4.304688 1.757812 -4.222656 1.75 -4.140625 C 1.75 -4.054688 1.742188 -3.984375 1.734375 -3.921875 L 1.265625 0 L 0.3125 0 L 1.0625 -5.984375 L 1.859375 -5.984375 C 1.910156 -5.984375 1.953125 -5.976562 1.984375 -5.96875 C 2.015625 -5.96875 2.039062 -5.960938 2.0625 -5.953125 C 2.09375 -5.941406 2.117188 -5.925781 2.140625 -5.90625 C 2.160156 -5.882812 2.179688 -5.851562 2.203125 -5.8125 L 3.4375 -2.390625 C 3.488281 -2.242188 3.53125 -2.097656 3.5625 -1.953125 C 3.601562 -2.023438 3.640625 -2.097656 3.671875 -2.171875 C 3.710938 -2.242188 3.753906 -2.316406 3.796875 -2.390625 L 5.875 -5.8125 C 5.90625 -5.851562 5.9375 -5.882812 5.96875 -5.90625 C 6 -5.925781 6.023438 -5.941406 6.046875 -5.953125 C 6.078125 -5.960938 6.109375 -5.96875 6.140625 -5.96875 C 6.171875 -5.976562 6.210938 -5.984375 6.265625 -5.984375 Z M 7.078125 -5.984375 "/></g></g></g><g fill="#000000" fill-opacity="1"><g transform="translate(89.651132, 9.094476)"><g><path d="M 3.53125 -2.25 L 3.125 -4.296875 C 3.101562 -4.390625 3.082031 -4.5 3.0625 -4.625 C 3.039062 -4.75 3.019531 -4.882812 3 -5.03125 C 2.945312 -4.882812 2.890625 -4.75 2.828125 -4.625 C 2.773438 -4.5 2.734375 -4.390625 2.703125 -4.296875 L 1.78125 -2.25 Z M 5.09375 0 L 4.25 0 C 4.15625 0 4.082031 -0.0195312 4.03125 -0.0625 C 3.988281 -0.113281 3.953125 -0.175781 3.921875 -0.25 L 3.6875 -1.5 L 1.453125 -1.5 L 0.890625 -0.25 C 0.859375 -0.1875 0.804688 -0.128906 0.734375 -0.078125 C 0.671875 -0.0234375 0.597656 0 0.515625 0 L -0.328125 0 L 2.5625 -5.984375 L 3.65625 -5.984375 Z M 3.171875 -6.40625 C 2.972656 -6.40625 2.800781 -6.425781 2.65625 -6.46875 C 2.507812 -6.507812 2.382812 -6.578125 2.28125 -6.671875 C 2.1875 -6.765625 2.113281 -6.878906 2.0625 -7.015625 C 2.019531 -7.160156 2.015625 -7.332031 2.046875 -7.53125 L 2.75 -7.53125 C 2.75 -7.445312 2.753906 -7.375 2.765625 -7.3125 C 2.773438 -7.25 2.796875 -7.191406 2.828125 -7.140625 C 2.867188 -7.097656 2.921875 -7.066406 2.984375 -7.046875 C 3.046875 -7.023438 3.128906 -7.015625 3.234375 -7.015625 C 3.429688 -7.015625 3.570312 -7.054688 3.65625 -7.140625 C 3.75 -7.234375 3.804688 -7.363281 3.828125 -7.53125 L 4.546875 -7.53125 C 4.523438 -7.351562 4.476562 -7.191406 4.40625 -7.046875 C 4.332031 -6.910156 4.234375 -6.789062 4.109375 -6.6875 C 3.992188 -6.59375 3.851562 -6.519531 3.6875 -6.46875 C 3.53125 -6.425781 3.359375 -6.40625 3.171875 -6.40625 Z M 3.171875 -6.40625 "/></g></g></g><g fill="#000000" fill-opacity="1"><g transform="translate(95.386922, 9.094476)"><g><path d="M 2.390625 -3.125 C 2.609375 -3.125 2.796875 -3.15625 2.953125 -3.21875 C 3.109375 -3.28125 3.234375 -3.363281 3.328125 -3.46875 C 3.429688 -3.582031 3.507812 -3.710938 3.5625 -3.859375 C 3.613281 -4.003906 3.640625 -4.160156 3.640625 -4.328125 C 3.640625 -4.585938 3.554688 -4.789062 3.390625 -4.9375 C 3.234375 -5.082031 2.988281 -5.15625 2.65625 -5.15625 L 2.015625 -5.15625 L 1.765625 -3.125 Z M 2.75 -5.984375 C 3.09375 -5.984375 3.390625 -5.945312 3.640625 -5.875 C 3.890625 -5.800781 4.09375 -5.695312 4.25 -5.5625 C 4.40625 -5.4375 4.519531 -5.28125 4.59375 -5.09375 C 4.664062 -4.914062 4.703125 -4.71875 4.703125 -4.5 C 4.703125 -4.269531 4.671875 -4.050781 4.609375 -3.84375 C 4.546875 -3.644531 4.453125 -3.460938 4.328125 -3.296875 C 4.203125 -3.128906 4.050781 -2.984375 3.875 -2.859375 C 3.695312 -2.734375 3.5 -2.640625 3.28125 -2.578125 C 3.34375 -2.535156 3.398438 -2.484375 3.453125 -2.421875 C 3.503906 -2.367188 3.546875 -2.304688 3.578125 -2.234375 L 4.65625 0 L 3.6875 0 C 3.5 0 3.378906 -0.0703125 3.328125 -0.21875 L 2.4375 -2.15625 C 2.40625 -2.226562 2.363281 -2.28125 2.3125 -2.3125 C 2.269531 -2.34375 2.195312 -2.359375 2.09375 -2.359375 L 1.671875 -2.359375 L 1.390625 0 L 0.3125 0 L 1.046875 -5.984375 Z M 2.75 -5.984375 "/></g></g></g><g fill="#000000" fill-opacity="1"><g transform="translate(100.704748, 9.094476)"><g><path d="M 1.40625 0 L 0.3125 0 L 1.046875 -5.984375 L 2.125 -5.984375 Z M 1.40625 0 "/></g></g></g><g fill="#000000" fill-opacity="1"><g transform="translate(25.154626, 18.193068)"><g><path d="M 2.84375 -0.84375 C 3.007812 -0.84375 3.15625 -0.851562 3.28125 -0.875 C 3.40625 -0.90625 3.515625 -0.941406 3.609375 -0.984375 C 3.703125 -1.023438 3.78125 -1.066406 3.84375 -1.109375 C 3.90625 -1.160156 3.960938 -1.207031 4.015625 -1.25 C 4.066406 -1.289062 4.109375 -1.320312 4.140625 -1.34375 C 4.179688 -1.375 4.222656 -1.390625 4.265625 -1.390625 C 4.296875 -1.390625 4.320312 -1.378906 4.34375 -1.359375 C 4.363281 -1.347656 4.382812 -1.335938 4.40625 -1.328125 L 4.78125 -0.859375 C 4.519531 -0.554688 4.210938 -0.328125 3.859375 -0.171875 C 3.515625 -0.015625 3.113281 0.0625 2.65625 0.0625 C 2.28125 0.0625 1.945312 0 1.65625 -0.125 C 1.375 -0.257812 1.132812 -0.441406 0.9375 -0.671875 C 0.738281 -0.898438 0.585938 -1.171875 0.484375 -1.484375 C 0.378906 -1.804688 0.328125 -2.15625 0.328125 -2.53125 C 0.328125 -2.882812 0.363281 -3.210938 0.4375 -3.515625 C 0.519531 -3.828125 0.628906 -4.113281 0.765625 -4.375 C 0.898438 -4.632812 1.0625 -4.863281 1.25 -5.0625 C 1.445312 -5.269531 1.660156 -5.445312 1.890625 -5.59375 C 2.128906 -5.75 2.382812 -5.863281 2.65625 -5.9375 C 2.9375 -6.007812 3.222656 -6.046875 3.515625 -6.046875 C 3.734375 -6.046875 3.929688 -6.023438 4.109375 -5.984375 C 4.285156 -5.953125 4.445312 -5.898438 4.59375 -5.828125 C 4.738281 -5.753906 4.867188 -5.664062 4.984375 -5.5625 C 5.109375 -5.46875 5.21875 -5.359375 5.3125 -5.234375 L 4.9375 -4.78125 C 4.90625 -4.75 4.867188 -4.71875 4.828125 -4.6875 C 4.796875 -4.664062 4.753906 -4.65625 4.703125 -4.65625 C 4.640625 -4.65625 4.578125 -4.679688 4.515625 -4.734375 C 4.460938 -4.785156 4.394531 -4.835938 4.3125 -4.890625 C 4.226562 -4.953125 4.117188 -5.007812 3.984375 -5.0625 C 3.847656 -5.113281 3.675781 -5.140625 3.46875 -5.140625 C 3.175781 -5.140625 2.90625 -5.078125 2.65625 -4.953125 C 2.414062 -4.835938 2.203125 -4.671875 2.015625 -4.453125 C 1.835938 -4.234375 1.695312 -3.96875 1.59375 -3.65625 C 1.488281 -3.351562 1.4375 -3.007812 1.4375 -2.625 C 1.4375 -2.351562 1.46875 -2.101562 1.53125 -1.875 C 1.601562 -1.65625 1.703125 -1.46875 1.828125 -1.3125 C 1.953125 -1.164062 2.097656 -1.050781 2.265625 -0.96875 C 2.441406 -0.882812 2.632812 -0.84375 2.84375 -0.84375 Z M 2.84375 -0.84375 "/></g></g></g><g fill="#000000" fill-opacity="1"><g transform="translate(30.513811, 18.193068)"><g><path d="M 6.015625 -3.390625 C 6.015625 -3.054688 5.976562 -2.738281 5.90625 -2.4375 C 5.832031 -2.144531 5.726562 -1.867188 5.59375 -1.609375 C 5.457031 -1.359375 5.289062 -1.128906 5.09375 -0.921875 C 4.90625 -0.710938 4.691406 -0.535156 4.453125 -0.390625 C 4.210938 -0.242188 3.953125 -0.128906 3.671875 -0.046875 C 3.398438 0.0234375 3.109375 0.0625 2.796875 0.0625 C 2.421875 0.0625 2.078125 -0.00390625 1.765625 -0.140625 C 1.460938 -0.273438 1.203125 -0.457031 0.984375 -0.6875 C 0.773438 -0.925781 0.613281 -1.207031 0.5 -1.53125 C 0.382812 -1.851562 0.328125 -2.207031 0.328125 -2.59375 C 0.328125 -2.914062 0.363281 -3.226562 0.4375 -3.53125 C 0.519531 -3.832031 0.628906 -4.109375 0.765625 -4.359375 C 0.898438 -4.617188 1.0625 -4.851562 1.25 -5.0625 C 1.445312 -5.269531 1.660156 -5.445312 1.890625 -5.59375 C 2.128906 -5.738281 2.390625 -5.847656 2.671875 -5.921875 C 2.953125 -6.003906 3.25 -6.046875 3.5625 -6.046875 C 3.9375 -6.046875 4.273438 -5.976562 4.578125 -5.84375 C 4.890625 -5.707031 5.148438 -5.519531 5.359375 -5.28125 C 5.566406 -5.050781 5.726562 -4.773438 5.84375 -4.453125 C 5.957031 -4.128906 6.015625 -3.773438 6.015625 -3.390625 Z M 4.921875 -3.375 C 4.921875 -3.644531 4.882812 -3.890625 4.8125 -4.109375 C 4.75 -4.328125 4.648438 -4.515625 4.515625 -4.671875 C 4.390625 -4.828125 4.234375 -4.945312 4.046875 -5.03125 C 3.859375 -5.125 3.648438 -5.171875 3.421875 -5.171875 C 3.128906 -5.171875 2.859375 -5.109375 2.609375 -4.984375 C 2.367188 -4.859375 2.160156 -4.679688 1.984375 -4.453125 C 1.804688 -4.234375 1.671875 -3.96875 1.578125 -3.65625 C 1.484375 -3.34375 1.4375 -2.992188 1.4375 -2.609375 C 1.4375 -2.335938 1.46875 -2.09375 1.53125 -1.875 C 1.601562 -1.65625 1.703125 -1.46875 1.828125 -1.3125 C 1.953125 -1.15625 2.101562 -1.035156 2.28125 -0.953125 C 2.46875 -0.867188 2.679688 -0.828125 2.921875 -0.828125 C 3.222656 -0.828125 3.492188 -0.882812 3.734375 -1 C 3.984375 -1.125 4.191406 -1.296875 4.359375 -1.515625 C 4.535156 -1.734375 4.671875 -2 4.765625 -2.3125 C 4.867188 -2.632812 4.921875 -2.988281 4.921875 -3.375 Z M 4.921875 -3.375 "/></g></g></g><g fill="#000000" fill-opacity="1"><g transform="translate(37.102103, 18.193068)"><g><path d="M 5.734375 -5.984375 L 5 0 L 4.453125 0 C 4.367188 0 4.296875 -0.015625 4.234375 -0.046875 C 4.179688 -0.078125 4.132812 -0.125 4.09375 -0.1875 L 1.765625 -4.28125 C 1.765625 -4.207031 1.757812 -4.140625 1.75 -4.078125 C 1.75 -4.015625 1.742188 -3.957031 1.734375 -3.90625 L 1.265625 0 L 0.3125 0 L 1.0625 -5.984375 L 1.625 -5.984375 C 1.664062 -5.984375 1.703125 -5.976562 1.734375 -5.96875 C 1.765625 -5.96875 1.789062 -5.960938 1.8125 -5.953125 C 1.84375 -5.941406 1.867188 -5.925781 1.890625 -5.90625 C 1.910156 -5.882812 1.929688 -5.851562 1.953125 -5.8125 L 4.28125 -1.734375 C 4.289062 -1.804688 4.296875 -1.878906 4.296875 -1.953125 C 4.304688 -2.035156 4.316406 -2.109375 4.328125 -2.171875 L 4.796875 -5.984375 Z M 5.734375 -5.984375 "/></g></g></g><g fill="#000000" fill-opacity="1"><g transform="translate(43.396572, 18.193068)"><g><path d="M 2.03125 -5.125 L 1.8125 -3.3125 L 3.84375 -3.3125 L 3.71875 -2.453125 L 1.703125 -2.453125 L 1.40625 0 L 0.3125 0 L 1.0625 -5.984375 L 4.546875 -5.984375 L 4.4375 -5.125 Z M 2.03125 -5.125 "/></g></g></g><g fill="#000000" fill-opacity="1"><g transform="translate(48.14744, 18.193068)"><g><path d="M 1.40625 0 L 0.3125 0 L 1.046875 -5.984375 L 2.125 -5.984375 Z M 1.40625 0 "/></g></g></g><g fill="#000000" fill-opacity="1"><g transform="translate(50.837414, 18.193068)"><g><path d="M 2.390625 -3.125 C 2.609375 -3.125 2.796875 -3.15625 2.953125 -3.21875 C 3.109375 -3.28125 3.234375 -3.363281 3.328125 -3.46875 C 3.429688 -3.582031 3.507812 -3.710938 3.5625 -3.859375 C 3.613281 -4.003906 3.640625 -4.160156 3.640625 -4.328125 C 3.640625 -4.585938 3.554688 -4.789062 3.390625 -4.9375 C 3.234375 -5.082031 2.988281 -5.15625 2.65625 -5.15625 L 2.015625 -5.15625 L 1.765625 -3.125 Z M 2.75 -5.984375 C 3.09375 -5.984375 3.390625 -5.945312 3.640625 -5.875 C 3.890625 -5.800781 4.09375 -5.695312 4.25 -5.5625 C 4.40625 -5.4375 4.519531 -5.28125 4.59375 -5.09375 C 4.664062 -4.914062 4.703125 -4.71875 4.703125 -4.5 C 4.703125 -4.269531 4.671875 -4.050781 4.609375 -3.84375 C 4.546875 -3.644531 4.453125 -3.460938 4.328125 -3.296875 C 4.203125 -3.128906 4.050781 -2.984375 3.875 -2.859375 C 3.695312 -2.734375 3.5 -2.640625 3.28125 -2.578125 C 3.34375 -2.535156 3.398438 -2.484375 3.453125 -2.421875 C 3.503906 -2.367188 3.546875 -2.304688 3.578125 -2.234375 L 4.65625 0 L 3.6875 0 C 3.5 0 3.378906 -0.0703125 3.328125 -0.21875 L 2.4375 -2.15625 C 2.40625 -2.226562 2.363281 -2.28125 2.3125 -2.3125 C 2.269531 -2.34375 2.195312 -2.359375 2.09375 -2.359375 L 1.671875 -2.359375 L 1.390625 0 L 0.3125 0 L 1.046875 -5.984375 Z M 2.75 -5.984375 "/></g></g></g><g fill="#000000" fill-opacity="1"><g transform="translate(56.155234, 18.193068)"><g><path d="M 7.078125 -5.984375 L 6.34375 0 L 5.390625 0 L 5.875 -3.90625 C 5.882812 -3.976562 5.894531 -4.050781 5.90625 -4.125 C 5.925781 -4.207031 5.945312 -4.296875 5.96875 -4.390625 L 3.90625 -0.984375 C 3.863281 -0.898438 3.804688 -0.835938 3.734375 -0.796875 C 3.660156 -0.765625 3.582031 -0.75 3.5 -0.75 L 3.359375 -0.75 C 3.273438 -0.75 3.203125 -0.765625 3.140625 -0.796875 C 3.078125 -0.835938 3.03125 -0.898438 3 -0.984375 L 1.765625 -4.390625 C 1.765625 -4.304688 1.757812 -4.222656 1.75 -4.140625 C 1.75 -4.054688 1.742188 -3.984375 1.734375 -3.921875 L 1.265625 0 L 0.3125 0 L 1.0625 -5.984375 L 1.859375 -5.984375 C 1.910156 -5.984375 1.953125 -5.976562 1.984375 -5.96875 C 2.015625 -5.96875 2.039062 -5.960938 2.0625 -5.953125 C 2.09375 -5.941406 2.117188 -5.925781 2.140625 -5.90625 C 2.160156 -5.882812 2.179688 -5.851562 2.203125 -5.8125 L 3.4375 -2.390625 C 3.488281 -2.242188 3.53125 -2.097656 3.5625 -1.953125 C 3.601562 -2.023438 3.640625 -2.097656 3.671875 -2.171875 C 3.710938 -2.242188 3.753906 -2.316406 3.796875 -2.390625 L 5.875 -5.8125 C 5.90625 -5.851562 5.9375 -5.882812 5.96875 -5.90625 C 6 -5.925781 6.023438 -5.941406 6.046875 -5.953125 C 6.078125 -5.960938 6.109375 -5.96875 6.140625 -5.96875 C 6.171875 -5.976562 6.210938 -5.984375 6.265625 -5.984375 Z M 7.078125 -5.984375 "/></g></g></g><g fill="#000000" fill-opacity="1"><g transform="translate(63.786388, 18.193068)"><g><path d="M 3.53125 -2.25 L 3.125 -4.296875 C 3.101562 -4.390625 3.082031 -4.5 3.0625 -4.625 C 3.039062 -4.75 3.019531 -4.882812 3 -5.03125 C 2.945312 -4.882812 2.890625 -4.75 2.828125 -4.625 C 2.773438 -4.5 2.734375 -4.390625 2.703125 -4.296875 L 1.78125 -2.25 Z M 5.09375 0 L 4.25 0 C 4.15625 0 4.082031 -0.0195312 4.03125 -0.0625 C 3.988281 -0.113281 3.953125 -0.175781 3.921875 -0.25 L 3.6875 -1.5 L 1.453125 -1.5 L 0.890625 -0.25 C 0.859375 -0.1875 0.804688 -0.128906 0.734375 -0.078125 C 0.671875 -0.0234375 0.597656 0 0.515625 0 L -0.328125 0 L 2.5625 -5.984375 L 3.65625 -5.984375 Z M 5.09375 0 "/></g></g></g><g fill="#000000" fill-opacity="1"><g transform="translate(68.959289, 18.193068)"><g><path d="M 4.796875 -5.109375 L 3.15625 -5.109375 L 2.53125 0 L 1.46875 0 L 2.078125 -5.109375 L 0.4375 -5.109375 L 0.546875 -5.984375 L 4.90625 -5.984375 Z M 4.796875 -5.109375 "/></g></g></g><g fill="#000000" fill-opacity="1"><g transform="translate(73.925352, 18.193068)"><g><path d="M 2.03125 -5.125 L 1.828125 -3.421875 L 3.71875 -3.421875 L 3.609375 -2.609375 L 1.71875 -2.609375 L 1.5 -0.859375 L 3.921875 -0.859375 L 3.8125 0 L 0.3125 0 L 1.0625 -5.984375 L 4.546875 -5.984375 L 4.4375 -5.125 Z M 2.03125 -5.125 "/></g></g></g></g></g></svg>