<svg xmlns="http://www.w3.org/2000/svg" xmlns:xlink="http://www.w3.org/1999/xlink" width="80" zoomAndPan="magnify" viewBox="0 0 60 60" height="80" preserveAspectRatio="xMidYMid meet" version="1.0"><defs><clipPath id="411f8f845d"><path d="M 9.117188 7.472656 L 46 7.472656 L 46 52.472656 L 9.117188 52.472656 Z M 9.117188 7.472656 " clip-rule="nonzero"/></clipPath><clipPath id="b94c8ac9a9"><path d="M 26 8 L 51.117188 8 L 51.117188 36 L 26 36 Z M 26 8 " clip-rule="nonzero"/></clipPath><clipPath id="0f8333b86a"><path d="M 10 9 L 44 9 L 44 51 L 10 51 Z M 10 9 " clip-rule="nonzero"/></clipPath><clipPath id="c152f2a247"><path d="M 42.480469 48.085938 C 39.558594 51.003906 35.019531 51.753906 30.8125 49.917969 C 27.660156 48.542969 24.894531 46.558594 22.46875 44.144531 C 19.648438 41.335938 17.265625 38.277344 15.382812 34.9375 C 13.625 31.824219 12.304688 28.46875 11.46875 24.847656 C 11.117188 23.308594 10.957031 21.726562 10.703125 20.167969 C 10.414062 15.476562 13.097656 11.15625 17.433594 9.457031 C 19.886719 8.496094 21.574219 9.125 22.484375 11.582031 C 23.230469 13.585938 23.804688 15.664062 24.3125 17.746094 C 24.738281 19.492188 24.183594 20.542969 22.539062 21.382812 C 21.460938 21.933594 20.320312 22.359375 19.207031 22.847656 C 18.378906 23.210938 18.214844 23.527344 18.503906 24.351562 C 19.652344 27.632812 21.160156 30.6875 23.019531 33.515625 C 24.769531 36.167969 26.820312 38.621094 29.183594 40.875 C 29.863281 41.523438 30.308594 41.441406 30.960938 40.757812 C 31.773438 39.902344 32.578125 39.011719 33.507812 38.292969 C 34.757812 37.320312 36.164062 37.207031 37.464844 38.242188 C 39.226562 39.65625 41.050781 41.019531 42.648438 42.609375 C 44.515625 44.472656 44.359375 46.210938 42.480469 48.085938 Z M 42.480469 48.085938 " clip-rule="nonzero"/></clipPath><linearGradient x1="445.19991" gradientTransform="matrix(0.00958707, 0, 0, 0.00952365, 6.147717, 6.163698)" y1="2500" x2="4001.899942" gradientUnits="userSpaceOnUse" y2="2500" id="9911e85981"><stop stop-opacity="1" stop-color="rgb(99.609375%, 0%, 0%)" offset="0"/><stop stop-opacity="1" stop-color="rgb(99.603271%, 0.134277%, 0.172424%)" offset="0.015625"/><stop stop-opacity="1" stop-color="rgb(99.589539%, 0.402832%, 0.520325%)" offset="0.0234375"/><stop stop-opacity="1" stop-color="rgb(99.577332%, 0.672913%, 0.868225%)" offset="0.03125"/><stop stop-opacity="1" stop-color="rgb(99.565125%, 0.942993%, 1.217651%)" offset="0.0390625"/><stop stop-opacity="1" stop-color="rgb(99.552917%, 1.211548%, 1.565552%)" offset="0.046875"/><stop stop-opacity="1" stop-color="rgb(99.54071%, 1.481628%, 1.913452%)" offset="0.0546875"/><stop stop-opacity="1" stop-color="rgb(99.526978%, 1.751709%, 2.261353%)" offset="0.0625"/><stop stop-opacity="1" stop-color="rgb(99.514771%, 2.02179%, 2.610779%)" offset="0.0703125"/><stop stop-opacity="1" stop-color="rgb(99.502563%, 2.29187%, 2.958679%)" offset="0.078125"/><stop stop-opacity="1" stop-color="rgb(99.490356%, 2.561951%, 3.30658%)" offset="0.0859375"/><stop stop-opacity="1" stop-color="rgb(99.476624%, 2.832031%, 3.656006%)" offset="0.09375"/><stop stop-opacity="1" stop-color="rgb(99.464417%, 3.102112%, 4.003906%)" offset="0.101563"/><stop stop-opacity="1" stop-color="rgb(99.452209%, 3.372192%, 4.351807%)" offset="0.109375"/><stop stop-opacity="1" stop-color="rgb(99.440002%, 3.642273%, 4.701233%)" offset="0.117188"/><stop stop-opacity="1" stop-color="rgb(99.42627%, 3.910828%, 5.049133%)" offset="0.125"/><stop stop-opacity="1" stop-color="rgb(99.414062%, 4.180908%, 5.397034%)" offset="0.132812"/><stop stop-opacity="1" stop-color="rgb(99.401855%, 4.450989%, 5.744934%)" offset="0.140625"/><stop stop-opacity="1" stop-color="rgb(99.389648%, 4.721069%, 6.09436%)" offset="0.148438"/><stop stop-opacity="1" stop-color="rgb(99.375916%, 4.99115%, 6.442261%)" offset="0.15625"/><stop stop-opacity="1" stop-color="rgb(99.363708%, 5.26123%, 6.790161%)" offset="0.164063"/><stop stop-opacity="1" stop-color="rgb(99.351501%, 5.531311%, 7.139587%)" offset="0.171875"/><stop stop-opacity="1" stop-color="rgb(99.339294%, 5.801392%, 7.487488%)" offset="0.179688"/><stop stop-opacity="1" stop-color="rgb(99.327087%, 6.071472%, 7.835388%)" offset="0.1875"/><stop stop-opacity="1" stop-color="rgb(99.313354%, 6.341553%, 8.184814%)" offset="0.195313"/><stop stop-opacity="1" stop-color="rgb(99.301147%, 6.610107%, 8.532715%)" offset="0.203125"/><stop stop-opacity="1" stop-color="rgb(99.28894%, 6.880188%, 8.880615%)" offset="0.210938"/><stop stop-opacity="1" stop-color="rgb(99.276733%, 7.150269%, 9.228516%)" offset="0.21875"/><stop stop-opacity="1" stop-color="rgb(99.263%, 7.420349%, 9.577942%)" offset="0.226563"/><stop stop-opacity="1" stop-color="rgb(99.250793%, 7.69043%, 9.925842%)" offset="0.234375"/><stop stop-opacity="1" stop-color="rgb(99.238586%, 7.96051%, 10.273743%)" offset="0.242188"/><stop stop-opacity="1" stop-color="rgb(99.226379%, 8.230591%, 10.623169%)" offset="0.25"/><stop stop-opacity="1" stop-color="rgb(99.212646%, 8.500671%, 10.971069%)" offset="0.257813"/><stop stop-opacity="1" stop-color="rgb(99.200439%, 8.770752%, 11.31897%)" offset="0.265625"/><stop stop-opacity="1" stop-color="rgb(99.188232%, 9.040833%, 11.66687%)" offset="0.273438"/><stop stop-opacity="1" stop-color="rgb(99.176025%, 9.309387%, 12.016296%)" offset="0.28125"/><stop stop-opacity="1" stop-color="rgb(99.163818%, 9.579468%, 12.364197%)" offset="0.289063"/><stop stop-opacity="1" stop-color="rgb(99.150085%, 9.849548%, 12.712097%)" offset="0.296875"/><stop stop-opacity="1" stop-color="rgb(99.137878%, 10.119629%, 13.061523%)" offset="0.304688"/><stop stop-opacity="1" stop-color="rgb(99.125671%, 10.389709%, 13.409424%)" offset="0.3125"/><stop stop-opacity="1" stop-color="rgb(99.113464%, 10.65979%, 13.757324%)" offset="0.320313"/><stop stop-opacity="1" stop-color="rgb(99.099731%, 10.929871%, 14.10675%)" offset="0.328125"/><stop stop-opacity="1" stop-color="rgb(99.087524%, 11.199951%, 14.454651%)" offset="0.335938"/><stop stop-opacity="1" stop-color="rgb(99.075317%, 11.470032%, 14.802551%)" offset="0.34375"/><stop stop-opacity="1" stop-color="rgb(99.06311%, 11.740112%, 15.150452%)" offset="0.351563"/><stop stop-opacity="1" stop-color="rgb(99.049377%, 12.008667%, 15.499878%)" offset="0.359375"/><stop stop-opacity="1" stop-color="rgb(99.03717%, 12.278748%, 15.847778%)" offset="0.367188"/><stop stop-opacity="1" stop-color="rgb(99.024963%, 12.548828%, 16.195679%)" offset="0.375"/><stop stop-opacity="1" stop-color="rgb(99.012756%, 12.818909%, 16.545105%)" offset="0.382813"/><stop stop-opacity="1" stop-color="rgb(98.999023%, 13.088989%, 16.893005%)" offset="0.390625"/><stop stop-opacity="1" stop-color="rgb(98.986816%, 13.35907%, 17.240906%)" offset="0.398438"/><stop stop-opacity="1" stop-color="rgb(98.974609%, 13.62915%, 17.588806%)" offset="0.40625"/><stop stop-opacity="1" stop-color="rgb(98.962402%, 13.899231%, 17.938232%)" offset="0.414063"/><stop stop-opacity="1" stop-color="rgb(98.950195%, 14.169312%, 18.286133%)" offset="0.421875"/><stop stop-opacity="1" stop-color="rgb(98.936462%, 14.439392%, 18.634033%)" offset="0.429688"/><stop stop-opacity="1" stop-color="rgb(98.924255%, 14.707947%, 18.983459%)" offset="0.4375"/><stop stop-opacity="1" stop-color="rgb(98.912048%, 14.978027%, 19.33136%)" offset="0.445313"/><stop stop-opacity="1" stop-color="rgb(98.899841%, 15.248108%, 19.67926%)" offset="0.453125"/><stop stop-opacity="1" stop-color="rgb(98.886108%, 15.518188%, 20.028687%)" offset="0.460938"/><stop stop-opacity="1" stop-color="rgb(98.873901%, 15.788269%, 20.376587%)" offset="0.46875"/><stop stop-opacity="1" stop-color="rgb(98.861694%, 16.05835%, 20.724487%)" offset="0.476563"/><stop stop-opacity="1" stop-color="rgb(98.849487%, 16.32843%, 21.072388%)" offset="0.484375"/><stop stop-opacity="1" stop-color="rgb(98.835754%, 16.598511%, 21.421814%)" offset="0.492188"/><stop stop-opacity="1" stop-color="rgb(98.823547%, 16.868591%, 21.769714%)" offset="0.5"/><stop stop-opacity="1" stop-color="rgb(98.81134%, 17.137146%, 22.117615%)" offset="0.507813"/><stop stop-opacity="1" stop-color="rgb(98.799133%, 17.407227%, 22.467041%)" offset="0.515625"/><stop stop-opacity="1" stop-color="rgb(98.7854%, 17.677307%, 22.814941%)" offset="0.523438"/><stop stop-opacity="1" stop-color="rgb(98.773193%, 17.947388%, 23.162842%)" offset="0.53125"/><stop stop-opacity="1" stop-color="rgb(98.760986%, 18.217468%, 23.510742%)" offset="0.539062"/><stop stop-opacity="1" stop-color="rgb(98.748779%, 18.487549%, 23.860168%)" offset="0.546875"/><stop stop-opacity="1" stop-color="rgb(98.736572%, 18.757629%, 24.208069%)" offset="0.554688"/><stop stop-opacity="1" stop-color="rgb(98.722839%, 19.02771%, 24.555969%)" offset="0.5625"/><stop stop-opacity="1" stop-color="rgb(98.710632%, 19.297791%, 24.905396%)" offset="0.570313"/><stop stop-opacity="1" stop-color="rgb(98.698425%, 19.567871%, 25.253296%)" offset="0.578125"/><stop stop-opacity="1" stop-color="rgb(98.686218%, 19.836426%, 25.601196%)" offset="0.585938"/><stop stop-opacity="1" stop-color="rgb(98.672485%, 20.106506%, 25.950623%)" offset="0.59375"/><stop stop-opacity="1" stop-color="rgb(98.660278%, 20.376587%, 26.298523%)" offset="0.601563"/><stop stop-opacity="1" stop-color="rgb(98.648071%, 20.646667%, 26.646423%)" offset="0.609375"/><stop stop-opacity="1" stop-color="rgb(98.635864%, 20.916748%, 26.994324%)" offset="0.617188"/><stop stop-opacity="1" stop-color="rgb(98.622131%, 21.186829%, 27.34375%)" offset="0.625"/><stop stop-opacity="1" stop-color="rgb(98.609924%, 21.456909%, 27.69165%)" offset="0.632813"/><stop stop-opacity="1" stop-color="rgb(98.597717%, 21.72699%, 28.039551%)" offset="0.640625"/><stop stop-opacity="1" stop-color="rgb(98.58551%, 21.99707%, 28.388977%)" offset="0.648438"/><stop stop-opacity="1" stop-color="rgb(98.573303%, 22.267151%, 28.736877%)" offset="0.65625"/><stop stop-opacity="1" stop-color="rgb(98.55957%, 22.535706%, 29.084778%)" offset="0.664062"/><stop stop-opacity="1" stop-color="rgb(98.547363%, 22.805786%, 29.432678%)" offset="0.671875"/><stop stop-opacity="1" stop-color="rgb(98.535156%, 23.075867%, 29.782104%)" offset="0.679688"/><stop stop-opacity="1" stop-color="rgb(98.522949%, 23.345947%, 30.130005%)" offset="0.6875"/><stop stop-opacity="1" stop-color="rgb(98.509216%, 23.616028%, 30.477905%)" offset="0.695313"/><stop stop-opacity="1" stop-color="rgb(98.497009%, 23.886108%, 30.827332%)" offset="0.703125"/><stop stop-opacity="1" stop-color="rgb(98.484802%, 24.156189%, 31.175232%)" offset="0.710938"/><stop stop-opacity="1" stop-color="rgb(98.472595%, 24.42627%, 31.523132%)" offset="0.71875"/><stop stop-opacity="1" stop-color="rgb(98.458862%, 24.69635%, 31.872559%)" offset="0.726563"/><stop stop-opacity="1" stop-color="rgb(98.446655%, 24.966431%, 32.220459%)" offset="0.734375"/><stop stop-opacity="1" stop-color="rgb(98.434448%, 25.234985%, 32.568359%)" offset="0.742188"/><stop stop-opacity="1" stop-color="rgb(98.422241%, 25.505066%, 32.91626%)" offset="0.75"/><stop stop-opacity="1" stop-color="rgb(98.408508%, 25.775146%, 33.265686%)" offset="0.757813"/><stop stop-opacity="1" stop-color="rgb(98.396301%, 26.045227%, 33.613586%)" offset="0.765625"/><stop stop-opacity="1" stop-color="rgb(98.384094%, 26.315308%, 33.961487%)" offset="0.773438"/><stop stop-opacity="1" stop-color="rgb(98.371887%, 26.585388%, 34.310913%)" offset="0.78125"/><stop stop-opacity="1" stop-color="rgb(98.35968%, 26.855469%, 34.658813%)" offset="0.789062"/><stop stop-opacity="1" stop-color="rgb(98.345947%, 27.125549%, 35.006714%)" offset="0.796875"/><stop stop-opacity="1" stop-color="rgb(98.33374%, 27.39563%, 35.35614%)" offset="0.804688"/><stop stop-opacity="1" stop-color="rgb(98.321533%, 27.66571%, 35.704041%)" offset="0.8125"/><stop stop-opacity="1" stop-color="rgb(98.309326%, 27.934265%, 36.051941%)" offset="0.820313"/><stop stop-opacity="1" stop-color="rgb(98.295593%, 28.204346%, 36.399841%)" offset="0.828125"/><stop stop-opacity="1" stop-color="rgb(98.283386%, 28.474426%, 36.749268%)" offset="0.835938"/><stop stop-opacity="1" stop-color="rgb(98.271179%, 28.744507%, 37.097168%)" offset="0.84375"/><stop stop-opacity="1" stop-color="rgb(98.258972%, 29.014587%, 37.445068%)" offset="0.851563"/><stop stop-opacity="1" stop-color="rgb(98.245239%, 29.284668%, 37.794495%)" offset="0.859375"/><stop stop-opacity="1" stop-color="rgb(98.233032%, 29.554749%, 38.142395%)" offset="0.867188"/><stop stop-opacity="1" stop-color="rgb(98.220825%, 29.824829%, 38.490295%)" offset="0.875"/><stop stop-opacity="1" stop-color="rgb(98.208618%, 30.09491%, 38.838196%)" offset="0.882813"/><stop stop-opacity="1" stop-color="rgb(98.196411%, 30.36499%, 39.187622%)" offset="0.890625"/><stop stop-opacity="1" stop-color="rgb(98.182678%, 30.633545%, 39.535522%)" offset="0.898438"/><stop stop-opacity="1" stop-color="rgb(98.170471%, 30.903625%, 39.883423%)" offset="0.90625"/><stop stop-opacity="1" stop-color="rgb(98.158264%, 31.173706%, 40.232849%)" offset="0.914062"/><stop stop-opacity="1" stop-color="rgb(98.146057%, 31.443787%, 40.58075%)" offset="0.921875"/><stop stop-opacity="1" stop-color="rgb(98.132324%, 31.713867%, 40.92865%)" offset="0.929688"/><stop stop-opacity="1" stop-color="rgb(98.120117%, 31.983948%, 41.278076%)" offset="0.9375"/><stop stop-opacity="1" stop-color="rgb(98.10791%, 32.254028%, 41.625977%)" offset="0.945313"/><stop stop-opacity="1" stop-color="rgb(98.095703%, 32.524109%, 41.973877%)" offset="0.953125"/><stop stop-opacity="1" stop-color="rgb(98.08197%, 32.794189%, 42.321777%)" offset="0.960938"/><stop stop-opacity="1" stop-color="rgb(98.069763%, 33.062744%, 42.671204%)" offset="0.96875"/><stop stop-opacity="1" stop-color="rgb(98.057556%, 33.332825%, 43.019104%)" offset="0.976562"/><stop stop-opacity="1" stop-color="rgb(98.045349%, 33.598328%, 43.360901%)" offset="0.984375"/><stop stop-opacity="1" stop-color="rgb(98.039246%, 33.729553%, 43.528748%)" offset="1"/></linearGradient><clipPath id="073cb25a84"><path d="M 32 9 L 50 9 L 50 34 L 32 34 Z M 32 9 " clip-rule="nonzero"/></clipPath><clipPath id="aaee3b36a7"><path d="M 49.546875 28.613281 C 49.402344 29.722656 49.289062 30.980469 49.058594 32.21875 C 48.847656 33.339844 47.925781 33.90625 46.84375 33.695312 C 45.894531 33.515625 45.261719 32.636719 45.453125 31.578125 C 46.03125 28.339844 45.789062 25.199219 44.394531 22.203125 C 43.203125 19.644531 41.570312 17.605469 39.496094 16.097656 C 37.863281 14.90625 35.953125 14.046875 33.769531 13.523438 C 32.710938 13.269531 32.097656 12.671875 32.015625 11.785156 C 31.949219 11.046875 32.378906 10.234375 33.113281 9.984375 C 33.550781 9.835938 34.082031 9.792969 34.53125 9.890625 C 36.589844 10.332031 38.523438 11.113281 40.273438 12.171875 C 45.011719 15.035156 48.378906 19.914062 49.230469 25.578125 C 49.375 26.53125 49.433594 27.496094 49.546875 28.613281 Z M 49.546875 28.613281 " clip-rule="nonzero"/></clipPath><linearGradient x1="4557.70497" gradientTransform="matrix(0.00958707, 0, 0, 0.00952365, 6.147717, 6.163698)" y1="1664.24118" x2="2660.796374" gradientUnits="userSpaceOnUse" y2="1617.595599" id="429c8cbc39"><stop stop-opacity="1" stop-color="rgb(99.255371%, 7.615662%, 9.828186%)" offset="0"/><stop stop-opacity="1" stop-color="rgb(99.249268%, 7.740784%, 9.989929%)" offset="0.015625"/><stop stop-opacity="1" stop-color="rgb(99.237061%, 7.991028%, 10.313416%)" offset="0.03125"/><stop stop-opacity="1" stop-color="rgb(99.224854%, 8.242798%, 10.636902%)" offset="0.0327995"/><stop stop-opacity="1" stop-color="rgb(99.220276%, 8.36792%, 10.798645%)" offset="0.046875"/><stop stop-opacity="1" stop-color="rgb(99.214172%, 8.493042%, 10.960388%)" offset="0.0625"/><stop stop-opacity="1" stop-color="rgb(99.201965%, 8.743286%, 11.2854%)" offset="0.078125"/><stop stop-opacity="1" stop-color="rgb(99.189758%, 8.995056%, 11.608887%)" offset="0.09375"/><stop stop-opacity="1" stop-color="rgb(99.179077%, 9.2453%, 11.932373%)" offset="0.109375"/><stop stop-opacity="1" stop-color="rgb(99.16687%, 9.495544%, 12.255859%)" offset="0.125"/><stop stop-opacity="1" stop-color="rgb(99.154663%, 9.747314%, 12.579346%)" offset="0.140625"/><stop stop-opacity="1" stop-color="rgb(99.143982%, 9.997559%, 12.902832%)" offset="0.15625"/><stop stop-opacity="1" stop-color="rgb(99.131775%, 10.249329%, 13.226318%)" offset="0.171875"/><stop stop-opacity="1" stop-color="rgb(99.119568%, 10.499573%, 13.549805%)" offset="0.1875"/><stop stop-opacity="1" stop-color="rgb(99.108887%, 10.749817%, 13.874817%)" offset="0.203125"/><stop stop-opacity="1" stop-color="rgb(99.09668%, 11.001587%, 14.198303%)" offset="0.21875"/><stop stop-opacity="1" stop-color="rgb(99.084473%, 11.251831%, 14.52179%)" offset="0.234375"/><stop stop-opacity="1" stop-color="rgb(99.073792%, 11.502075%, 14.845276%)" offset="0.25"/><stop stop-opacity="1" stop-color="rgb(99.061584%, 11.753845%, 15.168762%)" offset="0.265625"/><stop stop-opacity="1" stop-color="rgb(99.050903%, 12.004089%, 15.492249%)" offset="0.28125"/><stop stop-opacity="1" stop-color="rgb(99.038696%, 12.254333%, 15.815735%)" offset="0.296875"/><stop stop-opacity="1" stop-color="rgb(99.026489%, 12.506104%, 16.139221%)" offset="0.3125"/><stop stop-opacity="1" stop-color="rgb(99.015808%, 12.756348%, 16.462708%)" offset="0.328125"/><stop stop-opacity="1" stop-color="rgb(99.003601%, 13.008118%, 16.78772%)" offset="0.34375"/><stop stop-opacity="1" stop-color="rgb(98.991394%, 13.258362%, 17.111206%)" offset="0.359375"/><stop stop-opacity="1" stop-color="rgb(98.980713%, 13.508606%, 17.434692%)" offset="0.375"/><stop stop-opacity="1" stop-color="rgb(98.968506%, 13.760376%, 17.758179%)" offset="0.390625"/><stop stop-opacity="1" stop-color="rgb(98.956299%, 14.01062%, 18.081665%)" offset="0.40625"/><stop stop-opacity="1" stop-color="rgb(98.945618%, 14.260864%, 18.405151%)" offset="0.421875"/><stop stop-opacity="1" stop-color="rgb(98.933411%, 14.512634%, 18.728638%)" offset="0.4375"/><stop stop-opacity="1" stop-color="rgb(98.921204%, 14.762878%, 19.052124%)" offset="0.453125"/><stop stop-opacity="1" stop-color="rgb(98.910522%, 15.013123%, 19.37561%)" offset="0.46875"/><stop stop-opacity="1" stop-color="rgb(98.898315%, 15.264893%, 19.700623%)" offset="0.484375"/><stop stop-opacity="1" stop-color="rgb(98.886108%, 15.515137%, 20.024109%)" offset="0.5"/><stop stop-opacity="1" stop-color="rgb(98.875427%, 15.765381%, 20.347595%)" offset="0.515625"/><stop stop-opacity="1" stop-color="rgb(98.86322%, 16.017151%, 20.671082%)" offset="0.53125"/><stop stop-opacity="1" stop-color="rgb(98.851013%, 16.267395%, 20.994568%)" offset="0.546875"/><stop stop-opacity="1" stop-color="rgb(98.840332%, 16.519165%, 21.318054%)" offset="0.5625"/><stop stop-opacity="1" stop-color="rgb(98.828125%, 16.769409%, 21.641541%)" offset="0.578125"/><stop stop-opacity="1" stop-color="rgb(98.817444%, 17.019653%, 21.965027%)" offset="0.59375"/><stop stop-opacity="1" stop-color="rgb(98.805237%, 17.271423%, 22.290039%)" offset="0.609375"/><stop stop-opacity="1" stop-color="rgb(98.79303%, 17.521667%, 22.613525%)" offset="0.625"/><stop stop-opacity="1" stop-color="rgb(98.782349%, 17.771912%, 22.937012%)" offset="0.640625"/><stop stop-opacity="1" stop-color="rgb(98.770142%, 18.023682%, 23.260498%)" offset="0.65625"/><stop stop-opacity="1" stop-color="rgb(98.757935%, 18.273926%, 23.583984%)" offset="0.671875"/><stop stop-opacity="1" stop-color="rgb(98.747253%, 18.52417%, 23.907471%)" offset="0.6875"/><stop stop-opacity="1" stop-color="rgb(98.735046%, 18.77594%, 24.230957%)" offset="0.703125"/><stop stop-opacity="1" stop-color="rgb(98.722839%, 19.026184%, 24.554443%)" offset="0.71875"/><stop stop-opacity="1" stop-color="rgb(98.712158%, 19.277954%, 24.87793%)" offset="0.734375"/><stop stop-opacity="1" stop-color="rgb(98.699951%, 19.528198%, 25.202942%)" offset="0.75"/><stop stop-opacity="1" stop-color="rgb(98.687744%, 19.778442%, 25.526428%)" offset="0.765625"/><stop stop-opacity="1" stop-color="rgb(98.677063%, 20.030212%, 25.849915%)" offset="0.78125"/><stop stop-opacity="1" stop-color="rgb(98.664856%, 20.280457%, 26.173401%)" offset="0.796875"/><stop stop-opacity="1" stop-color="rgb(98.652649%, 20.530701%, 26.496887%)" offset="0.8125"/><stop stop-opacity="1" stop-color="rgb(98.641968%, 20.782471%, 26.820374%)" offset="0.828125"/><stop stop-opacity="1" stop-color="rgb(98.629761%, 21.032715%, 27.14386%)" offset="0.84375"/><stop stop-opacity="1" stop-color="rgb(98.617554%, 21.282959%, 27.467346%)" offset="0.859375"/><stop stop-opacity="1" stop-color="rgb(98.606873%, 21.534729%, 27.790833%)" offset="0.875"/><stop stop-opacity="1" stop-color="rgb(98.594666%, 21.784973%, 28.115845%)" offset="0.890625"/><stop stop-opacity="1" stop-color="rgb(98.583984%, 22.036743%, 28.439331%)" offset="0.90625"/><stop stop-opacity="1" stop-color="rgb(98.571777%, 22.286987%, 28.762817%)" offset="0.921875"/><stop stop-opacity="1" stop-color="rgb(98.55957%, 22.537231%, 29.086304%)" offset="0.9375"/><stop stop-opacity="1" stop-color="rgb(98.548889%, 22.789001%, 29.40979%)" offset="0.953125"/><stop stop-opacity="1" stop-color="rgb(98.536682%, 23.039246%, 29.733276%)" offset="0.9672"/><stop stop-opacity="1" stop-color="rgb(98.530579%, 23.164368%, 29.89502%)" offset="0.96875"/><stop stop-opacity="1" stop-color="rgb(98.524475%, 23.28949%, 30.056763%)" offset="0.984375"/><stop stop-opacity="1" stop-color="rgb(98.513794%, 23.54126%, 30.380249%)" offset="1"/></linearGradient><clipPath id="65d0bcb4f8"><path d="M 30 15 L 44 15 L 44 34 L 30 34 Z M 30 15 " clip-rule="nonzero"/></clipPath><clipPath id="3ea07dcc32"><path d="M 43.230469 29.167969 C 43.125 29.9375 43.042969 30.847656 42.867188 31.742188 C 42.664062 32.78125 41.703125 33.386719 40.683594 33.195312 C 39.707031 33.011719 39.0625 32.046875 39.230469 31.019531 C 39.796875 27.558594 38.890625 24.5 36.808594 22.3125 C 35.515625 20.957031 33.769531 19.933594 31.644531 19.359375 C 30.476562 19.042969 29.835938 18.113281 30.089844 17.105469 C 30.355469 16.050781 31.308594 15.519531 32.484375 15.761719 C 34.761719 16.234375 36.84375 17.324219 38.554688 18.835938 C 41.039062 21.035156 42.730469 24.128906 43.066406 27.5 C 43.117188 28.007812 43.164062 28.515625 43.230469 29.167969 Z M 43.230469 29.167969 " clip-rule="nonzero"/></clipPath><linearGradient x1="3890.488169" gradientTransform="matrix(0.00958707, 0, 0, 0.00952365, 6.147717, 6.163698)" y1="1939.712283" x2="2448.331594" gradientUnits="userSpaceOnUse" y2="1904.249411" id="448b6d55da"><stop stop-opacity="1" stop-color="rgb(98.994446%, 13.201904%, 17.037964%)" offset="0"/><stop stop-opacity="1" stop-color="rgb(98.989868%, 13.296509%, 17.160034%)" offset="0.015625"/><stop stop-opacity="1" stop-color="rgb(98.980713%, 13.487244%, 17.405701%)" offset="0.03125"/><stop stop-opacity="1" stop-color="rgb(98.973083%, 13.677979%, 17.652893%)" offset="0.0319666"/><stop stop-opacity="1" stop-color="rgb(98.968506%, 13.774109%, 17.776489%)" offset="0.046875"/><stop stop-opacity="1" stop-color="rgb(98.963928%, 13.868713%, 17.89856%)" offset="0.0625"/><stop stop-opacity="1" stop-color="rgb(98.954773%, 14.059448%, 18.144226%)" offset="0.078125"/><stop stop-opacity="1" stop-color="rgb(98.945618%, 14.250183%, 18.389893%)" offset="0.09375"/><stop stop-opacity="1" stop-color="rgb(98.936462%, 14.440918%, 18.637085%)" offset="0.109375"/><stop stop-opacity="1" stop-color="rgb(98.927307%, 14.631653%, 18.882751%)" offset="0.125"/><stop stop-opacity="1" stop-color="rgb(98.919678%, 14.822388%, 19.128418%)" offset="0.140625"/><stop stop-opacity="1" stop-color="rgb(98.910522%, 15.013123%, 19.374084%)" offset="0.15625"/><stop stop-opacity="1" stop-color="rgb(98.901367%, 15.202332%, 19.621277%)" offset="0.171875"/><stop stop-opacity="1" stop-color="rgb(98.892212%, 15.393066%, 19.866943%)" offset="0.1875"/><stop stop-opacity="1" stop-color="rgb(98.883057%, 15.583801%, 20.11261%)" offset="0.203125"/><stop stop-opacity="1" stop-color="rgb(98.875427%, 15.774536%, 20.359802%)" offset="0.21875"/><stop stop-opacity="1" stop-color="rgb(98.866272%, 15.965271%, 20.605469%)" offset="0.234375"/><stop stop-opacity="1" stop-color="rgb(98.857117%, 16.156006%, 20.851135%)" offset="0.25"/><stop stop-opacity="1" stop-color="rgb(98.847961%, 16.346741%, 21.096802%)" offset="0.265625"/><stop stop-opacity="1" stop-color="rgb(98.838806%, 16.537476%, 21.343994%)" offset="0.28125"/><stop stop-opacity="1" stop-color="rgb(98.829651%, 16.72821%, 21.589661%)" offset="0.296875"/><stop stop-opacity="1" stop-color="rgb(98.822021%, 16.918945%, 21.835327%)" offset="0.3125"/><stop stop-opacity="1" stop-color="rgb(98.812866%, 17.10968%, 22.080994%)" offset="0.328125"/><stop stop-opacity="1" stop-color="rgb(98.803711%, 17.300415%, 22.328186%)" offset="0.34375"/><stop stop-opacity="1" stop-color="rgb(98.794556%, 17.49115%, 22.573853%)" offset="0.359375"/><stop stop-opacity="1" stop-color="rgb(98.7854%, 17.681885%, 22.819519%)" offset="0.375"/><stop stop-opacity="1" stop-color="rgb(98.777771%, 17.87262%, 23.066711%)" offset="0.390625"/><stop stop-opacity="1" stop-color="rgb(98.768616%, 18.063354%, 23.312378%)" offset="0.40625"/><stop stop-opacity="1" stop-color="rgb(98.75946%, 18.254089%, 23.558044%)" offset="0.421875"/><stop stop-opacity="1" stop-color="rgb(98.750305%, 18.444824%, 23.803711%)" offset="0.4375"/><stop stop-opacity="1" stop-color="rgb(98.74115%, 18.635559%, 24.050903%)" offset="0.453125"/><stop stop-opacity="1" stop-color="rgb(98.731995%, 18.826294%, 24.29657%)" offset="0.46875"/><stop stop-opacity="1" stop-color="rgb(98.724365%, 19.017029%, 24.542236%)" offset="0.484375"/><stop stop-opacity="1" stop-color="rgb(98.71521%, 19.207764%, 24.787903%)" offset="0.5"/><stop stop-opacity="1" stop-color="rgb(98.706055%, 19.398499%, 25.035095%)" offset="0.515625"/><stop stop-opacity="1" stop-color="rgb(98.696899%, 19.589233%, 25.280762%)" offset="0.53125"/><stop stop-opacity="1" stop-color="rgb(98.687744%, 19.779968%, 25.526428%)" offset="0.546875"/><stop stop-opacity="1" stop-color="rgb(98.680115%, 19.970703%, 25.772095%)" offset="0.5625"/><stop stop-opacity="1" stop-color="rgb(98.670959%, 20.161438%, 26.019287%)" offset="0.578125"/><stop stop-opacity="1" stop-color="rgb(98.661804%, 20.352173%, 26.264954%)" offset="0.59375"/><stop stop-opacity="1" stop-color="rgb(98.652649%, 20.541382%, 26.51062%)" offset="0.609375"/><stop stop-opacity="1" stop-color="rgb(98.643494%, 20.732117%, 26.757812%)" offset="0.625"/><stop stop-opacity="1" stop-color="rgb(98.635864%, 20.922852%, 27.003479%)" offset="0.640625"/><stop stop-opacity="1" stop-color="rgb(98.626709%, 21.113586%, 27.249146%)" offset="0.65625"/><stop stop-opacity="1" stop-color="rgb(98.617554%, 21.304321%, 27.494812%)" offset="0.671875"/><stop stop-opacity="1" stop-color="rgb(98.608398%, 21.495056%, 27.742004%)" offset="0.6875"/><stop stop-opacity="1" stop-color="rgb(98.599243%, 21.685791%, 27.987671%)" offset="0.703125"/><stop stop-opacity="1" stop-color="rgb(98.590088%, 21.876526%, 28.233337%)" offset="0.71875"/><stop stop-opacity="1" stop-color="rgb(98.582458%, 22.067261%, 28.479004%)" offset="0.734375"/><stop stop-opacity="1" stop-color="rgb(98.573303%, 22.257996%, 28.726196%)" offset="0.75"/><stop stop-opacity="1" stop-color="rgb(98.564148%, 22.44873%, 28.971863%)" offset="0.765625"/><stop stop-opacity="1" stop-color="rgb(98.554993%, 22.639465%, 29.217529%)" offset="0.78125"/><stop stop-opacity="1" stop-color="rgb(98.545837%, 22.8302%, 29.464722%)" offset="0.796875"/><stop stop-opacity="1" stop-color="rgb(98.538208%, 23.020935%, 29.710388%)" offset="0.8125"/><stop stop-opacity="1" stop-color="rgb(98.529053%, 23.21167%, 29.956055%)" offset="0.828125"/><stop stop-opacity="1" stop-color="rgb(98.519897%, 23.402405%, 30.201721%)" offset="0.84375"/><stop stop-opacity="1" stop-color="rgb(98.510742%, 23.59314%, 30.448914%)" offset="0.859375"/><stop stop-opacity="1" stop-color="rgb(98.501587%, 23.783875%, 30.69458%)" offset="0.875"/><stop stop-opacity="1" stop-color="rgb(98.492432%, 23.974609%, 30.940247%)" offset="0.890625"/><stop stop-opacity="1" stop-color="rgb(98.484802%, 24.165344%, 31.185913%)" offset="0.90625"/><stop stop-opacity="1" stop-color="rgb(98.475647%, 24.356079%, 31.433105%)" offset="0.921875"/><stop stop-opacity="1" stop-color="rgb(98.466492%, 24.546814%, 31.678772%)" offset="0.9375"/><stop stop-opacity="1" stop-color="rgb(98.457336%, 24.737549%, 31.924438%)" offset="0.953125"/><stop stop-opacity="1" stop-color="rgb(98.448181%, 24.928284%, 32.171631%)" offset="0.968033"/><stop stop-opacity="1" stop-color="rgb(98.445129%, 25.024414%, 32.295227%)" offset="0.96875"/><stop stop-opacity="1" stop-color="rgb(98.440552%, 25.119019%, 32.417297%)" offset="0.984375"/><stop stop-opacity="1" stop-color="rgb(98.431396%, 25.309753%, 32.662964%)" offset="1"/></linearGradient><clipPath id="a801297dd4"><path d="M 28 21 L 37 21 L 37 33 L 28 33 Z M 28 21 " clip-rule="nonzero"/></clipPath><clipPath id="b0138b7359"><path d="M 36.816406 29.820312 C 36.769531 30.140625 36.742188 30.738281 36.59375 31.304688 C 36.351562 32.234375 35.441406 32.832031 34.589844 32.699219 C 33.589844 32.546875 32.925781 31.738281 32.972656 30.707031 C 32.992188 30.199219 33.117188 29.683594 33.054688 29.191406 C 32.976562 28.605469 32.832031 28.078125 32.605469 27.613281 C 32.058594 26.453125 31.058594 25.671875 29.609375 25.289062 C 28.65625 25.039062 28.125 24.40625 28.089844 23.542969 C 28.058594 22.675781 28.527344 21.960938 29.371094 21.710938 C 29.691406 21.617188 30.074219 21.59375 30.398438 21.664062 C 32.351562 22.078125 34.015625 23.195312 35.15625 24.75 C 36.191406 26.144531 36.796875 27.898438 36.816406 29.820312 Z M 36.816406 29.820312 " clip-rule="nonzero"/></clipPath><linearGradient x1="3213.329253" gradientTransform="matrix(0.00958707, 0, 0, 0.00952365, 6.147717, 6.163698)" y1="2217.381096" x2="2271.384745" gradientUnits="userSpaceOnUse" y2="2194.218415" id="1ff9446014"><stop stop-opacity="1" stop-color="rgb(98.730469%, 18.869019%, 24.353027%)" offset="0"/><stop stop-opacity="1" stop-color="rgb(98.724365%, 18.994141%, 24.513245%)" offset="0.0307837"/><stop stop-opacity="1" stop-color="rgb(98.719788%, 19.119263%, 24.673462%)" offset="0.03125"/><stop stop-opacity="1" stop-color="rgb(98.713684%, 19.242859%, 24.833679%)" offset="0.0625"/><stop stop-opacity="1" stop-color="rgb(98.701477%, 19.491577%, 25.15564%)" offset="0.09375"/><stop stop-opacity="1" stop-color="rgb(98.68927%, 19.740295%, 25.4776%)" offset="0.125"/><stop stop-opacity="1" stop-color="rgb(98.678589%, 19.99054%, 25.798035%)" offset="0.15625"/><stop stop-opacity="1" stop-color="rgb(98.666382%, 20.239258%, 26.119995%)" offset="0.1875"/><stop stop-opacity="1" stop-color="rgb(98.655701%, 20.487976%, 26.441956%)" offset="0.21875"/><stop stop-opacity="1" stop-color="rgb(98.643494%, 20.736694%, 26.76239%)" offset="0.25"/><stop stop-opacity="1" stop-color="rgb(98.631287%, 20.986938%, 27.084351%)" offset="0.28125"/><stop stop-opacity="1" stop-color="rgb(98.620605%, 21.235657%, 27.406311%)" offset="0.3125"/><stop stop-opacity="1" stop-color="rgb(98.608398%, 21.484375%, 27.726746%)" offset="0.34375"/><stop stop-opacity="1" stop-color="rgb(98.597717%, 21.733093%, 28.048706%)" offset="0.375"/><stop stop-opacity="1" stop-color="rgb(98.58551%, 21.983337%, 28.370667%)" offset="0.40625"/><stop stop-opacity="1" stop-color="rgb(98.573303%, 22.232056%, 28.691101%)" offset="0.4375"/><stop stop-opacity="1" stop-color="rgb(98.562622%, 22.480774%, 29.013062%)" offset="0.46875"/><stop stop-opacity="1" stop-color="rgb(98.550415%, 22.729492%, 29.335022%)" offset="0.5"/><stop stop-opacity="1" stop-color="rgb(98.539734%, 22.979736%, 29.655457%)" offset="0.53125"/><stop stop-opacity="1" stop-color="rgb(98.527527%, 23.228455%, 29.977417%)" offset="0.5625"/><stop stop-opacity="1" stop-color="rgb(98.516846%, 23.477173%, 30.299377%)" offset="0.59375"/><stop stop-opacity="1" stop-color="rgb(98.504639%, 23.725891%, 30.619812%)" offset="0.625"/><stop stop-opacity="1" stop-color="rgb(98.492432%, 23.976135%, 30.941772%)" offset="0.65625"/><stop stop-opacity="1" stop-color="rgb(98.48175%, 24.224854%, 31.263733%)" offset="0.6875"/><stop stop-opacity="1" stop-color="rgb(98.469543%, 24.473572%, 31.584167%)" offset="0.71875"/><stop stop-opacity="1" stop-color="rgb(98.458862%, 24.72229%, 31.906128%)" offset="0.75"/><stop stop-opacity="1" stop-color="rgb(98.446655%, 24.972534%, 32.228088%)" offset="0.78125"/><stop stop-opacity="1" stop-color="rgb(98.434448%, 25.221252%, 32.548523%)" offset="0.8125"/><stop stop-opacity="1" stop-color="rgb(98.423767%, 25.469971%, 32.870483%)" offset="0.84375"/><stop stop-opacity="1" stop-color="rgb(98.41156%, 25.718689%, 33.192444%)" offset="0.875"/><stop stop-opacity="1" stop-color="rgb(98.400879%, 25.968933%, 33.512878%)" offset="0.90625"/><stop stop-opacity="1" stop-color="rgb(98.388672%, 26.217651%, 33.834839%)" offset="0.9375"/><stop stop-opacity="1" stop-color="rgb(98.376465%, 26.46637%, 34.156799%)" offset="0.96875"/><stop stop-opacity="1" stop-color="rgb(98.365784%, 26.715088%, 34.47876%)" offset="0.969216"/><stop stop-opacity="1" stop-color="rgb(98.35968%, 26.84021%, 34.638977%)" offset="1"/></linearGradient></defs><rect x="-6" width="72" fill="#ffffff" y="-6" height="72" fill-opacity="1"/><rect x="-6" width="72" fill="#ffffff" y="-6" height="72" fill-opacity="1"/><g clip-path="url(#411f8f845d)"><path fill="#ffffff" d="M 44.511719 42.375 C 44.296875 42.085938 44.039062 41.792969 43.753906 41.511719 C 42.394531 40.152344 40.886719 38.960938 39.425781 37.808594 C 39.105469 37.554688 38.769531 37.289062 38.445312 37.03125 C 38.011719 36.683594 37.546875 36.414062 37.066406 36.234375 C 36.574219 36.050781 36.0625 35.957031 35.546875 35.957031 C 35.007812 35.957031 34.46875 36.058594 33.945312 36.261719 C 33.460938 36.449219 32.988281 36.71875 32.539062 37.066406 C 31.632812 37.773438 30.863281 38.585938 30.121094 39.375 C 30.082031 39.414062 30.042969 39.457031 30.003906 39.496094 C 28.929688 38.453125 27.914062 37.359375 26.976562 36.230469 C 25.964844 35.015625 25.019531 33.726562 24.167969 32.410156 C 23.3125 31.089844 22.53125 29.703125 21.835938 28.28125 C 21.191406 26.960938 20.605469 25.574219 20.097656 24.160156 C 20.363281 24.046875 20.636719 23.933594 20.902344 23.824219 C 21.675781 23.5 22.472656 23.167969 23.253906 22.769531 C 23.792969 22.496094 24.238281 22.203125 24.609375 21.875 C 25.039062 21.496094 25.375 21.066406 25.609375 20.597656 C 25.847656 20.113281 25.984375 19.582031 26.011719 19.011719 C 26.039062 18.503906 25.980469 17.96875 25.835938 17.378906 C 25.546875 16.1875 25.269531 15.148438 24.996094 14.203125 C 24.664062 13.058594 24.324219 12.023438 23.957031 11.042969 C 23.757812 10.507812 23.519531 10.023438 23.25 9.609375 C 22.957031 9.15625 22.613281 8.769531 22.234375 8.460938 C 21.835938 8.128906 21.386719 7.878906 20.90625 7.714844 C 20.4375 7.554688 19.9375 7.472656 19.410156 7.472656 L 19.410156 8.253906 L 19.410156 7.472656 C 19.003906 7.472656 18.578125 7.523438 18.136719 7.617188 C 17.730469 7.707031 17.300781 7.839844 16.859375 8.011719 C 15.636719 8.492188 14.507812 9.160156 13.503906 10 C 12.527344 10.816406 11.6875 11.785156 11.003906 12.871094 C 10.328125 13.953125 9.824219 15.128906 9.503906 16.375 C 9.183594 17.640625 9.058594 18.949219 9.140625 20.261719 C 9.144531 20.3125 9.148438 20.363281 9.15625 20.414062 C 9.234375 20.890625 9.304688 21.386719 9.371094 21.867188 C 9.527344 22.953125 9.6875 24.078125 9.941406 25.195312 C 10.167969 26.164062 10.429688 27.132812 10.71875 28.070312 C 11.007812 29.003906 11.339844 29.933594 11.695312 30.839844 C 12.050781 31.734375 12.441406 32.632812 12.863281 33.5 C 13.28125 34.359375 13.734375 35.222656 14.21875 36.054688 C 15.164062 37.699219 16.253906 39.3125 17.457031 40.851562 C 18.628906 42.359375 19.945312 43.835938 21.359375 45.246094 C 22 45.882812 22.667969 46.492188 23.339844 47.058594 C 24.027344 47.640625 24.746094 48.191406 25.464844 48.695312 C 26.207031 49.210938 26.976562 49.695312 27.746094 50.128906 C 28.539062 50.574219 29.359375 50.984375 30.183594 51.34375 C 31.039062 51.71875 31.925781 52.003906 32.816406 52.191406 C 33.695312 52.378906 34.585938 52.472656 35.46875 52.472656 C 36.226562 52.472656 36.984375 52.402344 37.714844 52.261719 C 38.453125 52.125 39.171875 51.914062 39.859375 51.640625 C 40.554688 51.363281 41.21875 51.015625 41.839844 50.609375 C 42.46875 50.195312 43.058594 49.71875 43.59375 49.183594 C 44.179688 48.597656 44.617188 48.03125 44.941406 47.445312 C 45.304688 46.777344 45.503906 46.09375 45.535156 45.410156 C 45.566406 44.699219 45.414062 43.996094 45.085938 43.3125 C 44.933594 43 44.742188 42.683594 44.511719 42.375 Z M 44.511719 42.375 " fill-opacity="1" fill-rule="nonzero"/></g><g clip-path="url(#b94c8ac9a9)"><path fill="#ffffff" d="M 51.105469 28.457031 C 51.070312 28.101562 51.039062 27.757812 51.011719 27.425781 C 50.945312 26.710938 50.886719 26.035156 50.78125 25.347656 C 50.472656 23.28125 49.847656 21.285156 48.925781 19.40625 C 48.027344 17.570312 46.859375 15.878906 45.457031 14.382812 C 44.054688 12.886719 42.445312 11.609375 40.671875 10.597656 C 38.855469 9.558594 36.902344 8.808594 34.863281 8.367188 C 34.59375 8.308594 34.308594 8.28125 34.015625 8.28125 C 33.535156 8.28125 33.046875 8.359375 32.605469 8.511719 C 32.234375 8.636719 31.898438 8.832031 31.597656 9.089844 C 31.328125 9.324219 31.09375 9.601562 30.910156 9.917969 C 30.554688 10.523438 30.394531 11.238281 30.453125 11.921875 C 30.527344 12.726562 30.859375 13.445312 31.421875 13.996094 C 31.480469 14.050781 31.539062 14.105469 31.601562 14.160156 C 30.933594 14.21875 30.316406 14.445312 29.804688 14.828125 C 29.191406 15.289062 28.765625 15.945312 28.570312 16.722656 C 28.453125 17.1875 28.433594 17.652344 28.519531 18.109375 C 28.601562 18.5625 28.777344 18.984375 29.039062 19.367188 C 29.222656 19.628906 29.441406 19.867188 29.691406 20.074219 C 29.429688 20.097656 29.167969 20.144531 28.921875 20.214844 C 28.546875 20.328125 28.203125 20.496094 27.894531 20.714844 C 27.585938 20.933594 27.320312 21.203125 27.105469 21.515625 C 26.695312 22.113281 26.496094 22.832031 26.523438 23.597656 C 26.554688 24.378906 26.828125 25.09375 27.316406 25.65625 C 27.554688 25.9375 27.847656 26.175781 28.179688 26.371094 C 28.488281 26.550781 28.835938 26.691406 29.207031 26.792969 C 30.605469 27.164062 31.3125 27.964844 31.5 29.390625 C 31.515625 29.515625 31.488281 29.75 31.464844 29.976562 C 31.441406 30.175781 31.414062 30.402344 31.402344 30.644531 C 31.386719 31.078125 31.441406 31.503906 31.574219 31.90625 C 31.703125 32.3125 31.90625 32.683594 32.171875 33.011719 C 32.4375 33.339844 32.765625 33.613281 33.136719 33.820312 C 33.507812 34.03125 33.917969 34.167969 34.351562 34.234375 C 34.507812 34.257812 34.664062 34.273438 34.824219 34.273438 C 35.199219 34.273438 35.574219 34.207031 35.933594 34.078125 C 36.277344 33.953125 36.597656 33.777344 36.886719 33.546875 C 37.179688 33.320312 37.433594 33.046875 37.640625 32.742188 C 37.703125 32.644531 37.761719 32.546875 37.816406 32.445312 C 37.914062 32.742188 38.050781 33.019531 38.222656 33.28125 C 38.46875 33.648438 38.777344 33.957031 39.140625 34.203125 C 39.519531 34.460938 39.941406 34.636719 40.394531 34.722656 C 40.613281 34.761719 40.839844 34.785156 41.058594 34.785156 C 41.453125 34.785156 41.835938 34.71875 42.203125 34.589844 C 42.570312 34.464844 42.910156 34.277344 43.210938 34.035156 C 43.515625 33.789062 43.773438 33.492188 43.976562 33.15625 C 43.996094 33.121094 44.015625 33.089844 44.035156 33.054688 C 44.128906 33.328125 44.257812 33.589844 44.417969 33.828125 C 44.664062 34.191406 44.972656 34.496094 45.335938 34.734375 C 45.703125 34.976562 46.109375 35.136719 46.546875 35.222656 C 46.792969 35.269531 47.039062 35.292969 47.277344 35.292969 C 47.675781 35.292969 48.058594 35.230469 48.421875 35.105469 C 48.796875 34.976562 49.140625 34.785156 49.441406 34.53125 C 49.746094 34.28125 50 33.972656 50.199219 33.621094 C 50.390625 33.28125 50.527344 32.902344 50.601562 32.496094 C 50.773438 31.578125 50.878906 30.679688 50.984375 29.8125 C 51.023438 29.460938 51.0625 29.128906 51.105469 28.8125 C 51.117188 28.695312 51.121094 28.574219 51.105469 28.457031 Z M 31.933594 14.414062 L 31.933594 14.925781 Z M 31.933594 14.414062 " fill-opacity="1" fill-rule="nonzero"/></g><g clip-path="url(#0f8333b86a)"><g clip-path="url(#c152f2a247)"><path fill="url(#9911e85981)" d="M 10.414062 8.496094 L 10.414062 51.753906 L 44.515625 51.753906 L 44.515625 8.496094 Z M 10.414062 8.496094 " fill-rule="nonzero"/></g></g><g clip-path="url(#073cb25a84)"><g clip-path="url(#aaee3b36a7)"><path fill="url(#429c8cbc39)" d="M 31.949219 9.792969 L 31.949219 33.90625 L 49.546875 33.90625 L 49.546875 9.792969 Z M 31.949219 9.792969 " fill-rule="nonzero"/></g></g><g clip-path="url(#65d0bcb4f8)"><g clip-path="url(#3ea07dcc32)"><path fill="url(#448b6d55da)" d="M 29.835938 15.519531 L 29.835938 33.386719 L 43.230469 33.386719 L 43.230469 15.519531 Z M 29.835938 15.519531 " fill-rule="nonzero"/></g></g><g clip-path="url(#a801297dd4)"><g clip-path="url(#b0138b7359)"><path fill="url(#1ff9446014)" d="M 28.058594 21.59375 L 28.058594 32.832031 L 36.816406 32.832031 L 36.816406 21.59375 Z M 28.058594 21.59375 " fill-rule="nonzero"/></g></g><path fill="#ffffff" d="M 24.3125 17.746094 C 24.738281 19.496094 24.183594 20.542969 22.539062 21.382812 C 21.460938 21.933594 20.320312 22.359375 19.207031 22.847656 C 18.378906 23.210938 18.214844 23.527344 18.503906 24.351562 C 19.652344 27.636719 21.160156 30.6875 23.019531 33.515625 C 20.613281 34.351562 18.050781 34.84375 15.382812 34.9375 C 13.625 31.824219 12.304688 28.46875 11.46875 24.847656 C 11.117188 23.308594 10.957031 21.726562 10.703125 20.167969 C 10.414062 15.480469 13.097656 11.15625 17.433594 9.457031 C 19.886719 8.496094 21.574219 9.125 22.484375 11.582031 C 23.230469 13.585938 23.804688 15.664062 24.3125 17.746094 Z M 24.3125 17.746094 " fill-opacity="0.32" fill-rule="nonzero"/><path fill="#ffffff" d="M 35.15625 24.75 C 34.378906 25.765625 33.527344 26.726562 32.605469 27.613281 C 32.058594 26.453125 31.058594 25.671875 29.609375 25.289062 C 28.65625 25.039062 28.125 24.40625 28.089844 23.542969 C 28.058594 22.675781 28.527344 21.960938 29.371094 21.710938 C 29.691406 21.617188 30.074219 21.59375 30.398438 21.664062 C 32.351562 22.078125 34.015625 23.195312 35.15625 24.75 Z M 35.15625 24.75 " fill-opacity="0.32" fill-rule="nonzero"/><path fill="#ffffff" d="M 32.480469 15.761719 C 34.761719 16.234375 36.84375 17.324219 38.554688 18.835938 C 38.0625 20.042969 37.476562 21.207031 36.808594 22.3125 C 35.515625 20.957031 33.769531 19.933594 31.644531 19.359375 C 30.476562 19.042969 29.835938 18.113281 30.089844 17.105469 C 30.351562 16.050781 31.304688 15.519531 32.480469 15.761719 Z M 32.480469 15.761719 " fill-opacity="0.32" fill-rule="nonzero"/><path fill="#ffffff" d="M 40.273438 12.171875 C 40.117188 13.515625 39.855469 14.828125 39.496094 16.097656 C 37.863281 14.90625 35.953125 14.046875 33.769531 13.523438 C 32.710938 13.269531 32.097656 12.671875 32.015625 11.785156 C 31.949219 11.046875 32.378906 10.234375 33.113281 9.984375 C 33.550781 9.835938 34.082031 9.792969 34.53125 9.890625 C 36.589844 10.332031 38.523438 11.113281 40.273438 12.171875 Z M 40.273438 12.171875 " fill-opacity="0.32" fill-rule="nonzero"/></svg>