<svg xmlns="http://www.w3.org/2000/svg" xmlns:xlink="http://www.w3.org/1999/xlink" width="115" zoomAndPan="magnify" viewBox="0 0 86.25 86.249996" height="115" preserveAspectRatio="xMidYMid meet" version="1.0"><defs><clipPath id="3a16b8bfe2"><path d="M 0 0 L 85.507812 0 L 85.507812 85.507812 L 0 85.507812 Z M 0 0 " clip-rule="nonzero"/></clipPath><clipPath id="23b5dc5e21"><path d="M 11.515625 15.925781 L 73.972656 15.925781 L 73.972656 69.460938 L 11.515625 69.460938 Z M 11.515625 15.925781 " clip-rule="nonzero"/></clipPath></defs><g clip-path="url(#3a16b8bfe2)"><path fill="#ffffff" d="M 0 0 L 85.507812 0 L 85.507812 85.507812 L 0 85.507812 Z M 0 0 " fill-opacity="1" fill-rule="nonzero"/><path fill="#ffffff" d="M 0 0 L 85.507812 0 L 85.507812 85.507812 L 0 85.507812 Z M 0 0 " fill-opacity="1" fill-rule="nonzero"/></g><g clip-path="url(#23b5dc5e21)"><path fill="#000000" d="M 73.296875 61.308594 C 72.808594 60.777344 72.164062 60.496094 71.441406 60.496094 L 69.886719 60.496094 L 69.886719 29.167969 C 69.886719 27.050781 68.164062 25.332031 66.046875 25.332031 L 51.667969 25.332031 C 50.117188 24.359375 48.289062 23.796875 46.324219 23.796875 L 43.519531 23.796875 L 43.519531 21.902344 C 44.820312 21.558594 45.78125 20.375 45.78125 18.972656 C 45.78125 17.300781 44.417969 15.941406 42.742188 15.941406 C 41.066406 15.941406 39.703125 17.300781 39.703125 18.972656 C 39.703125 20.375 40.664062 21.558594 41.964844 21.902344 L 41.964844 23.796875 L 39.160156 23.796875 C 37.199219 23.796875 35.367188 24.359375 33.816406 25.332031 L 19.4375 25.332031 C 17.320312 25.332031 15.597656 27.050781 15.597656 29.167969 L 15.597656 60.496094 L 14.042969 60.496094 C 13.320312 60.496094 12.679688 60.777344 12.1875 61.308594 C 11.699219 61.835938 11.46875 62.496094 11.523438 63.21875 C 11.796875 66.710938 14.761719 69.449219 18.273438 69.449219 L 67.214844 69.449219 C 70.726562 69.449219 73.691406 66.710938 73.964844 63.21875 C 74.019531 62.5 73.789062 61.835938 73.300781 61.308594 Z M 41.257812 18.972656 C 41.257812 18.15625 41.925781 17.492188 42.742188 17.492188 C 43.558594 17.492188 44.226562 18.15625 44.226562 18.972656 C 44.226562 19.789062 43.5625 20.453125 42.742188 20.453125 C 41.925781 20.453125 41.257812 19.789062 41.257812 18.972656 Z M 46.324219 25.347656 C 51.023438 25.347656 54.847656 29.164062 54.847656 33.855469 L 54.847656 37.445312 C 54.847656 42.136719 51.023438 45.953125 46.324219 45.953125 L 39.160156 45.953125 C 34.460938 45.953125 30.636719 42.136719 30.636719 37.445312 L 30.636719 33.855469 C 30.636719 29.164062 34.460938 25.347656 39.160156 25.347656 Z M 29.589844 40.597656 C 27.878906 40.496094 26.519531 39.074219 26.519531 37.339844 L 26.519531 36.324219 C 26.519531 34.84375 27.648438 33.621094 29.089844 33.46875 C 29.085938 33.597656 29.082031 33.726562 29.082031 33.855469 L 29.082031 37.445312 C 29.082031 38.546875 29.261719 39.605469 29.589844 40.601562 Z M 29.273438 31.902344 C 26.882812 31.96875 24.960938 33.925781 24.960938 36.324219 L 24.960938 37.335938 C 24.960938 39.996094 27.128906 42.15625 29.792969 42.15625 L 30.257812 42.15625 C 31.957031 45.335938 35.308594 47.503906 39.160156 47.503906 L 46.324219 47.503906 C 50.179688 47.503906 53.53125 45.335938 55.226562 42.15625 L 55.695312 42.15625 C 56.15625 42.15625 56.601562 42.089844 57.023438 41.96875 L 57.023438 44.171875 C 57.023438 46.832031 54.855469 49 52.1875 49 L 42.742188 49 C 42.3125 49 41.964844 49.347656 41.964844 49.773438 C 41.964844 50.203125 42.3125 50.550781 42.742188 50.550781 L 52.1875 50.550781 C 55.714844 50.550781 58.578125 47.6875 58.578125 44.171875 L 58.578125 41.199219 C 59.757812 40.320312 60.523438 38.917969 60.523438 37.339844 L 60.523438 36.324219 C 60.523438 33.925781 58.601562 31.96875 56.210938 31.90625 C 56.082031 31.242188 55.886719 30.601562 55.628906 29.992188 L 65.21875 29.992188 L 65.21875 57.390625 L 20.265625 57.390625 L 20.265625 29.992188 L 29.855469 29.992188 C 29.597656 30.601562 29.402344 31.242188 29.273438 31.90625 Z M 55.894531 40.597656 C 56.222656 39.605469 56.402344 38.546875 56.402344 37.445312 L 56.402344 33.855469 C 56.402344 33.726562 56.398438 33.597656 56.390625 33.46875 C 57.835938 33.621094 58.964844 34.839844 58.964844 36.324219 L 58.964844 37.335938 C 58.964844 39.070312 57.605469 40.492188 55.890625 40.597656 Z M 17.152344 29.167969 C 17.152344 27.910156 18.175781 26.882812 19.4375 26.882812 L 31.902344 26.882812 C 31.441406 27.363281 31.03125 27.882812 30.671875 28.441406 L 19.488281 28.441406 C 19.058594 28.441406 18.710938 28.789062 18.710938 29.21875 L 18.710938 58.164062 C 18.710938 58.59375 19.058594 58.941406 19.488281 58.941406 L 65.996094 58.941406 C 66.425781 58.941406 66.773438 58.59375 66.773438 58.164062 L 66.773438 29.21875 C 66.773438 28.789062 66.425781 28.441406 65.996094 28.441406 L 54.8125 28.441406 C 54.453125 27.882812 54.039062 27.359375 53.582031 26.882812 L 66.046875 26.882812 C 67.308594 26.882812 68.332031 27.910156 68.332031 29.167969 L 68.332031 60.496094 L 17.152344 60.496094 Z M 33.757812 62.050781 L 51.730469 62.050781 L 51.730469 63.296875 C 51.730469 63.792969 51.324219 64.195312 50.828125 64.195312 L 34.65625 64.195312 C 34.160156 64.195312 33.757812 63.792969 33.757812 63.296875 Z M 72.414062 63.097656 C 72.203125 65.789062 69.917969 67.894531 67.210938 67.894531 L 18.273438 67.894531 C 15.566406 67.894531 13.285156 65.789062 13.074219 63.097656 C 13.050781 62.808594 13.132812 62.574219 13.328125 62.359375 C 13.527344 62.148438 13.753906 62.050781 14.042969 62.050781 L 32.203125 62.050781 L 32.203125 63.296875 C 32.203125 64.648438 33.304688 65.75 34.65625 65.75 L 50.832031 65.75 C 52.183594 65.75 53.285156 64.648438 53.285156 63.296875 L 53.285156 62.050781 L 71.445312 62.050781 C 71.734375 62.050781 71.960938 62.148438 72.160156 62.359375 C 72.355469 62.574219 72.4375 62.808594 72.417969 63.097656 Z M 32.132812 37.714844 C 32.132812 41.4375 35.171875 44.46875 38.902344 44.46875 L 46.585938 44.46875 C 50.316406 44.46875 53.351562 41.4375 53.351562 37.714844 L 53.351562 35.402344 C 53.351562 31.679688 50.316406 28.648438 46.585938 28.648438 L 38.902344 28.648438 C 35.171875 28.648438 32.132812 31.679688 32.132812 35.402344 Z M 33.6875 35.398438 C 33.6875 32.53125 36.027344 30.199219 38.902344 30.199219 L 46.585938 30.199219 C 49.457031 30.199219 51.796875 32.53125 51.796875 35.398438 L 51.796875 37.710938 C 51.796875 40.582031 49.457031 42.914062 46.585938 42.914062 L 38.902344 42.914062 C 36.027344 42.914062 33.6875 40.582031 33.6875 37.710938 Z M 38.101562 36.9375 C 39.3125 36.9375 40.300781 35.953125 40.300781 34.742188 C 40.300781 33.527344 39.3125 32.542969 38.101562 32.542969 C 36.886719 32.542969 35.898438 33.527344 35.898438 34.742188 C 35.898438 35.953125 36.886719 36.9375 38.101562 36.9375 Z M 38.101562 34.09375 C 38.457031 34.09375 38.746094 34.382812 38.746094 34.742188 C 38.746094 35.097656 38.457031 35.386719 38.101562 35.386719 C 37.742188 35.386719 37.453125 35.097656 37.453125 34.742188 C 37.453125 34.382812 37.742188 34.09375 38.101562 34.09375 Z M 47.386719 36.9375 C 48.597656 36.9375 49.589844 35.953125 49.589844 34.742188 C 49.589844 33.527344 48.597656 32.542969 47.386719 32.542969 C 46.171875 32.542969 45.183594 33.527344 45.183594 34.742188 C 45.183594 35.953125 46.171875 36.9375 47.386719 36.9375 Z M 47.386719 34.09375 C 47.742188 34.09375 48.035156 34.382812 48.035156 34.742188 C 48.035156 35.097656 47.742188 35.386719 47.386719 35.386719 C 47.027344 35.386719 46.738281 35.097656 46.738281 34.742188 C 46.738281 34.382812 47.027344 34.09375 47.386719 34.09375 Z M 40.117188 38.515625 C 40.484375 38.296875 40.960938 38.414062 41.183594 38.78125 C 41.523438 39.347656 42.105469 39.6875 42.742188 39.6875 C 43.378906 39.6875 43.964844 39.347656 44.300781 38.78125 C 44.523438 38.414062 45 38.296875 45.367188 38.515625 C 45.738281 38.734375 45.859375 39.210938 45.636719 39.578125 C 45.015625 40.621094 43.933594 41.242188 42.742188 41.242188 C 41.554688 41.242188 40.472656 40.621094 39.847656 39.578125 C 39.628906 39.210938 39.746094 38.734375 40.117188 38.515625 Z M 40.117188 38.515625 " fill-opacity="1" fill-rule="nonzero"/></g></svg>