<svg width="204" height="70" viewBox="0 0 204 70" fill="none" xmlns="http://www.w3.org/2000/svg">
  <g filter="url(#filter0_ii_6062_76)">
    <rect width="204" height="70" rx="8" fill="#272727"/>
    <rect width="204" height="70" rx="8" fill="url(#paint0_radial_6062_76)" fill-opacity="0.2"/>

    <g transform="translate(57 20)">
      <!-- Vocaly in white -->
      <g fill="#FFFFFF" fill-opacity="1">
        <g transform="translate(21.228599, 19.233873)">
          <g><path d="M 6.554688 -6.640625 C 6.183594 -5.457031 5.796875 -4.066406 5.445312 -2.589844 C 5.074219 -4.066406 4.675781 -5.457031 4.304688 -6.640625 L 3.089844 -10.53125 L -0.0742188 -10.53125 L 3.652344 0 L 7.203125 0 L 10.796875 -10.53125 L 7.75 -10.53125 Z M 6.554688 -6.640625 "/></g>
        </g>
        <g transform="translate(31.772716, 19.233873)">
          <g><path d="M 4.40625 0.175781 C 6.953125 0.175781 8.519531 -1.40625 8.519531 -3.816406 C 8.519531 -6.226562 6.953125 -7.808594 4.40625 -7.808594 C 1.863281 -7.808594 0.296875 -6.226562 0.296875 -3.816406 C 0.296875 -1.40625 1.863281 0.175781 4.40625 0.175781 Z M 4.40625 -1.953125 C 3.550781 -1.953125 3.03125 -2.515625 3.03125 -3.816406 C 3.03125 -5.117188 3.550781 -5.679688 4.40625 -5.679688 C 5.265625 -5.679688 5.785156 -5.117188 5.785156 -3.816406 C 5.785156 -2.515625 5.265625 -1.953125 4.40625 -1.953125 Z M 4.40625 -1.953125 "/></g>
        </g>
        <g transform="translate(41.518541, 19.233873)">
          <g><path d="M 4.363281 0.175781 C 6.613281 0.175781 8.179688 -1.09375 8.296875 -3.136719 L 5.636719 -3.136719 C 5.5625 -2.335938 5.058594 -2.011719 4.363281 -2.011719 C 3.503906 -2.011719 3.03125 -2.542969 3.03125 -3.816406 C 3.03125 -5.089844 3.503906 -5.636719 4.363281 -5.636719 C 5 -5.636719 5.457031 -5.339844 5.578125 -4.660156 L 8.253906 -4.660156 C 8.0625 -6.597656 6.554688 -7.808594 4.363281 -7.808594 C 1.863281 -7.808594 0.296875 -6.226562 0.296875 -3.816406 C 0.296875 -1.40625 1.863281 0.175781 4.363281 0.175781 Z M 4.363281 0.175781 "/></g>
        </g>
        <g transform="translate(51.04258, 19.233873)">
          <g><path d="M 8.386719 0 C 8.179688 -0.28125 8.078125 -0.785156 8.078125 -1.375 L 8.078125 -5.414062 C 8.078125 -6.921875 6.96875 -7.808594 4.480469 -7.808594 C 1.921875 -7.808594 0.753906 -6.894531 0.621094 -5.117188 L 3.3125 -5.117188 C 3.386719 -5.769531 3.699219 -5.929688 4.453125 -5.929688 C 5.238281 -5.929688 5.414062 -5.664062 5.414062 -5.324219 C 5.414062 -4.910156 5.117188 -4.75 4.496094 -4.6875 L 3.269531 -4.585938 C 1.035156 -4.394531 0.222656 -3.566406 0.222656 -2.203125 C 0.222656 -0.652344 1.449219 0.175781 3.03125 0.175781 C 4.171875 0.175781 4.984375 -0.191406 5.457031 -0.785156 C 5.472656 -0.488281 5.5625 -0.191406 5.652344 0 Z M 3.964844 -1.566406 C 3.359375 -1.566406 2.988281 -1.847656 2.988281 -2.308594 C 2.988281 -2.765625 3.285156 -3.003906 3.859375 -3.0625 L 4.734375 -3.152344 C 5.074219 -3.195312 5.28125 -3.269531 5.414062 -3.445312 L 5.414062 -3.003906 C 5.414062 -1.921875 4.761719 -1.566406 3.964844 -1.566406 Z M 3.964844 -1.566406 "/></g>
        </g>
        <g transform="translate(60.507424, 19.233873)">
          <g><path d="M 3.3125 0 L 3.3125 -10.53125 L 0.589844 -10.53125 L 0.589844 0 Z M 3.3125 0 "/></g>
        </g>
        <g transform="translate(65.269565, 19.233873)">
          <g><path d="M 5.679688 -7.308594 C 5.25 -5.710938 4.792969 -4.023438 4.363281 -2.054688 C 3.917969 -4.007812 3.460938 -5.695312 3.003906 -7.320312 L 2.914062 -7.632812 L 0 -7.632812 L 2.160156 -1.492188 C 2.335938 -0.992188 2.515625 -0.488281 2.515625 -0.0742188 C 2.515625 0.445312 2.261719 0.828125 1.449219 0.828125 L 0.695312 0.828125 L 0.695312 2.898438 C 0.917969 2.914062 1.140625 2.929688 1.65625 2.929688 C 4.304688 2.929688 5.207031 2.117188 5.929688 0 L 8.550781 -7.632812 L 5.769531 -7.632812 Z M 5.679688 -7.308594 "/></g>
        </g>
      </g>

      <!-- Red last y untouched -->
      <g fill="#ff5757" fill-opacity="1">
        <g transform="translate(74.756824, 19.233873)">
          <g><path d="M 5.679688 -7.308594 C 5.25 -5.710938 4.792969 -4.023438 4.363281 -2.054688 C 3.917969 -4.007812 3.460938 -5.695312 3.003906 -7.320312 L 2.914062 -7.632812 L 0 -7.632812 L 2.160156 -1.492188 C 2.335938 -0.992188 2.515625 -0.488281 2.515625 -0.0742188 C 2.515625 0.445312 2.261719 0.828125 1.449219 0.828125 L 0.695312 0.828125 L 0.695312 2.898438 C 0.917969 2.914062 1.140625 2.929688 1.65625 2.929688 C 4.304688 2.929688 5.207031 2.117188 5.929688 0 L 8.550781 -7.632812 L 5.769531 -7.632812 Z M 5.679688 -7.308594 "/></g>
        </g>
      </g>

      <!-- Robot untouched -->
      <g>
        <path fill="#ff5757" d="M 18.5 13.730469 C 18.441406 13.351562 18.320312 12.996094 18.132812 12.660156 C 17.945312 12.324219 17.707031 12.03125 17.417969 11.78125 C 17.125 11.535156 16.800781 11.34375 16.441406 11.210938 C 16.082031 11.074219 15.710938 11.007812 15.328125 11.007812 L 12.265625 11.007812 L 12.265625 9.65625 C 12.398438 9.625 12.511719 9.566406 12.613281 9.476562 C 12.710938 9.390625 12.785156 9.28125 12.832031 9.15625 C 12.878906 9.03125 12.890625 8.902344 12.875 8.769531 C 12.855469 8.636719 12.808594 8.519531 12.730469 8.410156 C 12.648438 8.300781 12.550781 8.21875 12.429688 8.160156 C 12.308594 8.101562 12.183594 8.078125 12.050781 8.082031 C 11.917969 8.085938 11.792969 8.125 11.675781 8.191406 C 11.5625 8.261719 11.46875 8.351562 11.402344 8.464844 C 11.332031 8.582031 11.292969 8.703125 11.285156 8.835938 C 11.28125 8.972656 11.304688 9.097656 11.359375 9.21875 C 11.417969 9.339844 11.5 9.441406 11.609375 9.519531 C 11.714844 9.601562 11.835938 9.648438 11.964844 9.667969 L 11.964844 11.007812 L 8.886719 11.007812 C 8.5 11.007812 8.128906 11.078125 7.769531 11.210938 C 7.410156 11.34375 7.085938 11.535156 6.792969 11.78125 C 6.503906 12.03125 6.265625 12.324219 6.078125 12.660156 C 5.890625 12.992188 5.769531 13.351562 5.710938 13.730469 C 5.292969 13.933594 4.964844 14.230469 4.722656 14.628906 C 4.480469 15.027344 4.367188 15.457031 4.382812 15.921875 C 4.398438 16.386719 4.535156 16.808594 4.800781 17.191406 C 5.0625 17.574219 5.410156 17.851562 5.839844 18.03125 C 5.863281 18.109375 5.894531 18.183594 5.925781 18.261719 C 6.175781 18.855469 6.570312 19.332031 7.109375 19.6875 C 7.648438 20.042969 8.238281 20.222656 8.886719 20.222656 L 11.101562 20.222656 C 11.199219 20.644531 11.75 20.964844 12.417969 20.964844 C 13.152344 20.964844 13.75 20.570312 13.75 20.085938 C 13.75 19.597656 13.152344 19.203125 12.417969 19.203125 C 11.765625 19.203125 11.222656 19.511719 11.109375 19.921875 L 8.886719 19.921875 C 8.5 19.921875 8.128906 19.847656 7.773438 19.703125 C 7.417969 19.554688 7.101562 19.34375 6.832031 19.074219 C 6.558594 18.800781 6.347656 18.488281 6.199219 18.132812 C 6.050781 17.777344 5.976562 17.40625 5.972656 17.023438 L 5.972656 14.207031 C 5.976562 13.824219 6.050781 13.453125 6.199219 13.097656 C 6.347656 12.742188 6.558594 12.429688 6.832031 12.15625 C 7.101562 11.886719 7.417969 11.675781 7.773438 11.53125 C 8.128906 11.382812 8.5 11.308594 8.886719 11.308594 L 11.964844 11.308594 L 11.964844 11.679688 C 11.726562 11.707031 11.511719 11.796875 11.324219 11.949219 C 11.136719 12.101562 11.003906 12.292969 10.925781 12.523438 L 8.601562 12.523438 C 8.390625 12.523438 8.191406 12.5625 7.996094 12.640625 C 7.800781 12.722656 7.628906 12.835938 7.480469 12.988281 C 7.332031 13.136719 7.21875 13.308594 7.136719 13.5 C 7.054688 13.695312 7.015625 13.898438 7.015625 14.109375 L 7.015625 17.152344 C 7.015625 17.363281 7.054688 17.5625 7.136719 17.757812 C 7.21875 17.953125 7.332031 18.125 7.480469 18.273438 C 7.628906 18.421875 7.800781 18.535156 7.996094 18.617188 C 8.191406 18.699219 8.390625 18.738281 8.601562 18.738281 L 15.628906 18.738281 C 15.839844 18.738281 16.042969 18.699219 16.238281 18.617188 C 16.429688 18.535156 16.601562 18.421875 16.753906 18.273438 C 16.902344 18.125 17.015625 17.953125 17.097656 17.757812 C 17.175781 17.5625 17.21875 17.363281 17.21875 17.152344 L 17.21875 14.109375 C 17.21875 13.898438 17.175781 13.695312 17.097656 13.5 C 17.015625 13.304688 16.902344 13.136719 16.753906 12.984375 C 16.601562 12.835938 16.429688 12.722656 16.238281 12.640625 C 16.042969 12.5625 15.839844 12.519531 15.628906 12.519531 L 13.308594 12.519531 C 13.230469 12.292969 13.097656 12.101562 12.90625 11.949219 C 12.71875 11.796875 12.507812 11.707031 12.265625 11.679688 L 12.265625 11.308594 L 15.328125 11.308594 C 15.703125 11.308594 16.066406 11.378906 16.414062 11.519531 C 16.761719 11.660156 17.070312 11.859375 17.34375 12.121094 C 17.613281 12.382812 17.828125 12.683594 17.980469 13.027344 C 18.136719 13.367188 18.21875 13.726562 18.234375 14.105469 L 18.234375 18.082031 C 18.6875 17.925781 19.054688 17.65625 19.34375 17.277344 C 19.632812 16.898438 19.792969 16.46875 19.824219 15.996094 C 19.851562 15.519531 19.746094 15.074219 19.503906 14.660156 C 19.265625 14.25 18.929688 13.9375 18.5 13.730469 Z M 9.867188 15.628906 C 9.714844 15.628906 9.585938 15.578125 9.480469 15.46875 C 9.371094 15.363281 9.316406 15.230469 9.316406 15.078125 C 9.316406 14.929688 9.371094 14.796875 9.480469 14.691406 C 9.585938 14.582031 9.714844 14.53125 9.867188 14.53125 C 10.019531 14.53125 10.148438 14.582031 10.257812 14.691406 C 10.363281 14.796875 10.417969 14.929688 10.417969 15.082031 C 10.417969 15.230469 10.363281 15.363281 10.257812 15.46875 C 10.148438 15.578125 10.019531 15.628906 9.867188 15.628906 Z M 14.363281 14.53125 C 14.515625 14.53125 14.644531 14.582031 14.753906 14.691406 C 14.859375 14.796875 14.914062 14.929688 14.914062 15.078125 C 14.914062 15.230469 14.859375 15.363281 14.753906 15.46875 C 14.644531 15.578125 14.515625 15.628906 14.363281 15.628906 C 14.214844 15.628906 14.082031 15.578125 13.976562 15.46875 C 13.867188 15.363281 13.816406 15.230469 13.816406 15.082031 C 13.816406 14.929688 13.867188 14.796875 13.976562 14.691406 C 14.082031 14.585938 14.214844 14.53125 14.363281 14.53125 Z M 13.421875 16.351562 C 13.355469 16.664062 13.199219 16.921875 12.949219 17.121094 C 12.703125 17.324219 12.417969 17.425781 12.097656 17.425781 C 11.777344 17.425781 11.492188 17.324219 11.242188 17.121094 C 10.996094 16.921875 10.835938 16.664062 10.769531 16.351562 Z M 13.421875 16.351562 " fill-rule="nonzero"/>
      </g>
    </g>
  </g>

  <defs>
    <filter id="filter0_ii_6062_76" x="0" y="0" width="204" height="70" filterUnits="userSpaceOnUse" color-interpolation-filters="sRGB">
      <feFlood flood-opacity="0" result="BackgroundImageFix"/>
      <feBlend mode="normal" in="SourceGraphic" in2="BackgroundImageFix" result="shape"/>
      <feColorMatrix in="SourceAlpha" type="matrix" values="0 0 0 0 0 0 0 0 0 0 0 0 0 0 0 0 0 0 127 0" result="hardAlpha"/>
      <feOffset dy="-3"/>
      <feComposite in2="hardAlpha" operator="arithmetic" k2="-1" k3="1"/>
      <feColorMatrix type="matrix" values="0 0 0 0 0.0313726 0 0 0 0 0.0313726 0 0 0 0 0.0313726 0 0 0 1 0"/>
      <feBlend mode="normal" in2="shape" result="effect1_innerShadow_6062_76"/>
      <feColorMatrix in="SourceAlpha" type="matrix" values="0 0 0 0 0 0 0 0 0 0 0 0 0 0 0 0 0 0 127 0" result="hardAlpha"/>
      <feOffset dy="1"/>
      <feComposite in2="hardAlpha" operator="arithmetic" k2="-1" k3="1"/>
      <feColorMatrix type="matrix" values="0 0 0 0 1 0 0 0 0 1 0 0 0 0 1 0 0 0 0.3 0"/>
      <feBlend mode="normal" in2="effect1_innerShadow_6062_76" result="effect2_innerShadow_6062_76"/>
    </filter>

    <radialGradient id="paint0_radial_6062_76" cx="0" cy="0" r="1" gradientTransform="matrix(127.628 37.9167 -6.42893 43.794 57.407 -7.29167)" gradientUnits="userSpaceOnUse">
      <stop stop-color="white"/>
      <stop offset="1" stop-color="white" stop-opacity="0"/>
    </radialGradient>
  </defs>
</svg>